<?xml version="1.0" encoding="UTF-8"?>
<!DOCTYPE svg PUBLIC "-//W3C//DTD SVG 1.1//EN" "http://www.w3.org/Graphics/SVG/1.1/DTD/svg11.dtd">
<!-- Creator: CorelDRAW 2021 (64-Bit) -->
<svg xmlns="http://www.w3.org/2000/svg" xml:space="preserve" width="10.4914in" height="1.77771in" version="1.1" style="shape-rendering:geometricPrecision; text-rendering:geometricPrecision; image-rendering:optimizeQuality; fill-rule:evenodd; clip-rule:evenodd"
viewBox="0 0 4701.52 796.65"
 xmlns:xlink="http://www.w3.org/1999/xlink"
 xmlns:xodm="http://www.corel.com/coreldraw/odm/2003">
 <defs>
  <style type="text/css">
   <![CDATA[
    .fil0 {fill:#D9C179;fill-rule:nonzero}
   ]]>
  </style>
 </defs>
 <g id="Layer_x0020_1">
  <metadata id="CorelCorpID_0Corel-Layer"/>
  <g id="_2048853688368">
   <g id="_1418815710720">
    <path id="path2491" class="fil0" d="M846.89 355.7c-0.5,-16.24 -8.21,-24.78 -23.11,-25.29l-79.71 0c-18.92,1.17 -28.64,11.56 -29.14,30.98l0 143.35c0.5,20.1 11.22,30.31 32.15,30.98l73.02 0c7.54,0 13.9,-2.85 18.92,-8.54 5.19,-4.35 7.7,-9.88 7.7,-16.75l0 -154.74 0.17 0zm-234.29 -20.43c0.5,-35.84 8.54,-63.14 23.95,-81.73 8.04,-7.87 18.25,-14.4 30.65,-19.76 12.9,-5.69 25.29,-8.54 37.34,-8.54l146.37 0c64.48,0.5 97.3,35.84 98.47,106.01l0 215.87c-0.5,24.95 -10.22,46.56 -29.14,64.64 -18.59,18.92 -41.03,28.64 -66.99,29.31l-138.33 0 0 155.58 -102.32 0 0 -461.21 -0 -0.17z"/>
    <path id="path2493" class="fil0" d="M1134.1 514.8c0,6.03 2.85,10.72 8.21,14.4 4.86,4.35 10.89,6.53 18.59,6.53l78.54 0c17.75,0 26.96,-6.87 27.46,-20.77l0 -29.31c0,-16.08 -9.38,-24.12 -28.3,-24.12l-77.87 0c-10.22,0 -17.42,1.67 -21.27,4.86 -3.68,3.85 -5.53,11.39 -5.53,22.44l0 26.13 0.17 -0.17zm132.97 -161.77c0.5,-15.74 -8.71,-23.28 -27.46,-22.78l-206.15 0 0 -105.17 232.11 0c67.66,1.17 101.99,33.83 103.16,98.3l0 220.05c-0.5,27.8 -9.04,50.74 -25.62,69 -17.25,18.92 -39.52,28.47 -66.82,28.47l-140.34 0c-68.33,-0.5 -102.99,-31.82 -104,-93.78l0 -84.91c0.5,-64.81 33.66,-97.63 99.14,-98.8l136.15 0 0 -10.38 -0.17 -0z"/>
    <path id="path2495" class="fil0" d="M1656.1 691.31c8.04,-0.5 15.07,-3.35 20.93,-8.71 5.53,-4.86 8.21,-10.55 8.21,-16.91l0 -24.95 -131.13 0c-17.08,0 -30.81,-2.18 -41.03,-6.53 -10.72,-4.02 -21.44,-11.39 -32.32,-21.77 -10.22,-11.05 -17.58,-22.61 -22.11,-34.83 -4.69,-11.05 -7.03,-25.12 -7.03,-42.03l0 -310.49 102.32 0 0 277.16c0,22.27 9.04,33.33 27.46,33.33l72.35 0c8.54,0 16.08,-2.85 22.27,-8.54 6.03,-4.86 9.04,-10.72 9.04,-17.42l0 -284.53 101.49 0 0 458.03c-0.5,33.83 -9.21,60.96 -25.96,81.56 -17.08,20.6 -40.36,31.15 -70,31.65l-238.98 0 0 -105.17 204.31 0 0.17 0.17z"/>
    <path id="path2497" class="fil0" d="M1867.11 535.73l182.37 0c16.75,-0.5 25.29,-7.2 25.96,-20.1l0 -9.38c0,-2.68 -0.84,-5.86 -2.51,-9.04 -4.02,-7.87 -9.04,-11.89 -15.07,-11.89l-90.43 0c-26.79,-0.5 -49.74,-9.71 -69,-27.63 -19.43,-16.41 -29.47,-36.84 -29.98,-60.62l0 -78.38c1.01,-61.13 34.33,-92.28 99.81,-93.45l211.51 0 0 105.17 -179.19 0c-21.1,0 -31.65,6.53 -31.65,19.26l0 10.22c0,13.4 10.89,20.1 32.49,20.1l90.1 0c23.95,0.5 44.55,9.71 61.63,27.63 17.25,18.09 26.13,39.52 26.79,64.48l0 76.7c-0.5,21.6 -10.55,43.04 -29.64,64.48 -9.38,10.55 -18.92,17.75 -28.47,21.94 -9.88,3.85 -23.28,5.69 -40.53,5.69l-214.02 0 0 -105.17 -0.17 -0z"/>
    <path id="path2499" class="fil0" d="M2354.94 514.8c0,6.03 2.85,10.72 8.37,14.4 4.69,4.35 10.89,6.53 18.42,6.53l78.71 0c17.75,0 26.96,-6.87 27.46,-20.77l0 -29.31c0,-16.08 -9.55,-24.12 -28.3,-24.12l-77.87 0c-10.22,0 -17.25,1.67 -21.27,4.86 -3.68,3.85 -5.53,11.39 -5.53,22.44l0 26.13 0 -0.17zm132.97 -161.77c0.5,-15.74 -8.71,-23.28 -27.63,-22.78l-206.15 0 0 -105.17 232.28 0c67.49,1.17 101.82,33.83 102.99,98.3l0 220.05c-0.5,27.8 -9.21,50.74 -25.62,69 -17.08,18.92 -39.52,28.47 -66.82,28.47l-140.51 0c-68.33,-0.5 -102.83,-31.82 -103.83,-93.78l0 -84.91c0.5,-64.81 33.49,-97.63 99.14,-98.8l136.15 0 0 -10.38 0 -0z"/>
    <path id="path2501" class="fil0" d="M2672.47 165.63c0.67,-28.47 11.05,-51.25 31.65,-68.33 19.93,-17.42 46.05,-26.29 78.38,-26.79l64.98 0 0 101.65 -39.35 0c-21.6,0.5 -32.66,10.89 -33.16,30.81l0 22.27 72.51 0 0 105.34 -72.51 0 0 310.49 -102.49 0 0 -475.28 0 -0.17z"/>
    <path id="path2503" class="fil0" d="M3138.53 351.18l0 -2.51c0,-5.36 -2.18,-10.05 -6.53,-13.4 -4.69,-3.35 -10.55,-4.86 -17.58,-4.86l-71.34 0c-9.21,0 -16.58,2.51 -22.27,7.87 -7.03,4.86 -10.72,11.22 -10.72,19.09l0 42.2 128.28 -48.4 0.17 0zm-126.77 148.71l0 6.53c0,8.37 2.18,15.07 6.7,19.93 3.18,6.2 7.54,9.38 13.23,9.38l210.34 0 0 105.17 -223.57 0c-20.43,0 -36.34,-1.84 -47.56,-5.69 -12.22,-4.02 -23.28,-10.72 -32.99,-19.93 -11.22,-11.05 -18.92,-22.44 -22.78,-34.16 -4.19,-12.22 -6.36,-28.3 -6.36,-48.4l-0.84 -210.51c1.17,-63.64 34.33,-95.96 99.64,-97.13l137.99 0c63.81,1.17 95.96,34.67 97.13,100.65l0 83.06 -230.94 90.77 0 0.33z"/>
    <path id="path2505" class="fil0" d="M3459.4 640.9c-15.58,0 -29.64,-1.51 -42.54,-4.02 -13.4,-2.18 -26.79,-8.37 -40.53,-18.92 -14.07,-12.22 -23.78,-25.96 -29.14,-41.03 -5.69,-14.9 -8.37,-31.82 -8.37,-50.74l0 -196.27c-0.5,-16.08 1.01,-29.98 4.86,-42.2 3.52,-12.22 10.72,-24.12 21.6,-35.67 12.39,-12.22 25.12,-20.43 38.52,-24.45 12.9,-3.18 27.46,-4.86 43.71,-4.86l156.92 0 0 24.62 -153.23 0c-27.13,0 -48.4,5.53 -63.81,16.75 -15.91,12.06 -23.95,32.99 -23.95,62.63l0 196.44c0,13.9 2.18,27.3 6.36,40.19 4.35,12.73 11.39,23.95 21.77,33.66 11.22,8.54 22.27,13.73 33.16,15.91 11.22,2.51 23.45,3.68 36.17,3.68l146.2 0 0 24.62 -147.71 0 0 -0.33z"/>
    <path id="path2507" class="fil0" d="M4008.2 386.18l-205.65 0c-24.62,0.5 -43.88,8.21 -57.78,22.77 -14.4,14.9 -21.44,35.34 -21.44,61.29l0 62.63c0,12.06 1.34,23.28 3.85,33.16 2.51,10.55 9.04,19.93 19.26,27.97 17.75,14.74 37.51,21.94 58.95,21.94l124.6 0c52.08,-0.5 78.38,-27.97 78.38,-82.39l0 -147.54 -0.17 0.17zm24.45 141.34c0,15.74 -1.17,29.64 -3.18,41.87 -3.35,13.23 -10.05,26.13 -20.43,38.18 -21.44,22.61 -48.06,33.66 -79.88,33.16l-122.25 0c-31.82,0 -57.61,-9.55 -77.54,-28.47 -20.43,-18.59 -30.65,-44.55 -30.65,-77.87l0 -63.3c1.01,-71.34 36.51,-108.02 106.68,-109.52l203.81 0 0 -27.63c0,-22.78 -6.53,-42.87 -19.76,-59.95 -8.37,-11.22 -18.25,-18.59 -29.47,-22.44 -11.39,-3.02 -24.12,-4.52 -38.18,-4.52l-222.23 0 0 -24.62 210.68 0c19.26,0 36.68,1.34 52.42,4.02 8.04,1.67 15.41,4.86 22.27,9.38 7.2,4.35 13.9,10.72 20.1,19.09 18.92,24.45 28.14,52.42 27.8,84.24l0 188.57 -0.17 -0.17z"/>
    <path id="path2509" class="fil0" d="M4262.58 247.19c-57.11,1.01 -85.24,32.15 -84.07,93.45l0 300.27 -24.45 0 0 -300.27c-1.17,-78.88 36.34,-118.23 112.54,-118.23l27.3 0 0 24.62 -31.15 0 -0.17 0.17z"/>
    <path id="path2511" class="fil0" d="M4677.06 247.19l-193.93 0c-13.9,0 -26.46,1.51 -37.85,4.52 -11.89,2.68 -23.28,9.88 -33.83,21.44 -10.22,10.55 -16.58,21.1 -19.42,31.65 -3.52,10.55 -5.19,23.45 -4.69,38.18l0 191.42c0,31.82 9.21,53.42 27.97,65.14 9.21,5.36 19.43,9.38 30.65,12.22 11.39,3.02 23.95,4.52 37.85,4.52l84.74 0c31.65,0 57.61,-7.37 77.54,-21.94 19.93,-13.73 30.14,-37.51 30.81,-71.51l0 -275.65 0.17 0zm24.45 277.33c-2.18,79.21 -44.04,118.06 -125.77,116.39l-90.94 0c-19.26,0 -36.34,-1.67 -51.58,-4.86 -15.58,-4.02 -30.65,-13.57 -45.05,-28.47 -10.89,-13.4 -17.75,-26.79 -20.6,-40.7 -3.68,-13.73 -5.36,-29.14 -4.86,-45.89l0 -178.69c1.01,-80.55 41.53,-120.41 121.75,-119.91l192.42 0 0 -135.65 24.45 0 0 437.6 0.17 0.17z"/>
    <path id="path2513" class="fil0" d="M43.88 209.5c8.04,-3.52 16.08,-6.36 24.12,-8.04 14.74,-70.5 77.2,-123.42 152.23,-123.42 75.03,0 137.49,52.92 152.23,123.59 22.94,4.35 42.03,13.73 56.77,27.46 0.67,-13.57 0,-26.63 -1.51,-38.85 -9.55,-106.51 -98.8,-190.24 -207.83,-190.24 -112.2,0 -203.47,88.93 -208.33,200.13 -0.67,9.55 -0.84,19.59 -0.5,29.98 9.38,-7.87 20.1,-15.07 32.82,-20.6l0 -0z"/>
    <path id="path2515" class="fil0" d="M341.97 225.25l-250.03 0c-12.06,0 -24.45,2.85 -37.34,8.54 -12.39,5.36 -22.61,11.89 -30.65,19.76 -15.58,18.59 -23.45,45.89 -23.95,81.73l0 195.43c0.5,36.01 8.54,63.14 23.95,81.73 8.21,7.87 18.25,14.4 30.65,19.93 12.9,5.69 25.29,8.54 37.34,8.54l250.03 0c64.64,-0.5 97.47,-36.01 98.47,-106.01l0 -203.64c-1.01,-70.17 -33.83,-105.5 -98.47,-106.01l0 -0z"/>
   </g>
  </g>
 </g>
</svg>
