<?xml version="1.0" encoding="UTF-8"?>
<!DOCTYPE svg PUBLIC "-//W3C//DTD SVG 1.1//EN" "http://www.w3.org/Graphics/SVG/1.1/DTD/svg11.dtd">
<!-- Creator: CorelDRAW 2021 (64-Bit) -->
<svg xmlns="http://www.w3.org/2000/svg" xml:space="preserve" width="5.49878in" height="1.77777in" version="1.1" style="shape-rendering:geometricPrecision; text-rendering:geometricPrecision; image-rendering:optimizeQuality; fill-rule:evenodd; clip-rule:evenodd"
viewBox="0 0 14409.09 4658.5"
 xmlns:xlink="http://www.w3.org/1999/xlink"
 xmlns:xodm="http://www.corel.com/coreldraw/odm/2003">
 <defs>
  <style type="text/css">
   <![CDATA[
    .fil0 {fill:#D9C179;fill-rule:nonzero}
   ]]>
  </style>
 </defs>
 <g id="Layer_x0020_1">
  <metadata id="CorelCorpID_0Corel-Layer"/>
  <g id="_2049052921072">
   <g id="_1419110465824">
    <path class="fil0" d="M4244.86 88.46l-1209.98 3061.43 -491.07 -2605.75c-55.3,-289.77 -285.34,-457.89 -535.3,-457.89l-1979.76 0 -28.75 128.3c407.01,88.49 869.33,227.84 1148.04,384.89 172.53,95.12 216.78,172.53 278.71,395.95l926.83 3592.32 1232.1 0 1884.64 -4501.46 -1227.67 0 0 0 2.21 2.22zm1723.17 0l-964.45 4501.46 1165.73 0 964.44 -4501.46 -1165.72 0zm6671.44 1216.6l351.71 1689.97 -964.45 0 612.73 -1689.97zm-168.12 -1216.6c-223.42,0 -413.64,128.3 -495.5,329.59l-1745.28 4171.86 1221.04 0 245.52 -674.66 1495.33 0 139.36 674.66 1077.26 0 -937.9 -4501.46 -997.62 0 0 0 -2.21 0zm-5025.71 1404.63c-6.63,645.91 579.56,1008.67 1019.74,1227.66 451.25,223.42 608.31,362.77 601.67,557.43 -6.63,300.83 -362.77,435.77 -696.78,440.19 -586.19,11.06 -926.84,-157.05 -1194.5,-285.35l-212.35 986.57c274.28,123.87 776.41,234.48 1294.02,238.9 1221.04,0 2024,-601.67 2024,-1539.57 6.63,-1187.84 -1639.11,-1254.21 -1628.05,-1785.09 6.63,-161.48 157.05,-334.02 495.5,-380.47 168.11,-22.12 623.79,-39.81 1148.04,201.3l205.72 -953.38c-278.71,-99.54 -641.49,-201.3 -1088.32,-201.3 -1154.67,0 -1968.7,612.73 -1975.34,1488.69l0 0 6.63 4.41z"/>
   </g>
  </g>
 </g>
</svg>
