<?xml version="1.0" encoding="UTF-8"?>
<!DOCTYPE svg PUBLIC "-//W3C//DTD SVG 1.1//EN" "http://www.w3.org/Graphics/SVG/1.1/DTD/svg11.dtd">
<!-- Creator: CorelDRAW 2021 (64-Bit) -->
<svg xmlns="http://www.w3.org/2000/svg" xml:space="preserve" width="5.85209in" height="1.77897in" version="1.1" style="shape-rendering:geometricPrecision; text-rendering:geometricPrecision; image-rendering:optimizeQuality; fill-rule:evenodd; clip-rule:evenodd"
viewBox="0 0 2052.97 624.08"
 xmlns:xlink="http://www.w3.org/1999/xlink"
 xmlns:xodm="http://www.corel.com/coreldraw/odm/2003">
 <defs>
  <style type="text/css">
   <![CDATA[
    .fil0 {fill:#D9C179;fill-rule:nonzero}
   ]]>
  </style>
 </defs>
 <g id="Layer_x0020_1">
  <metadata id="CorelCorpID_0Corel-Layer"/>
  <g id="_2084985919104">
   <g id="_1405931911632">
    <path class="fil0" d="M266.45 432.43l-81.35 0c-66.61,0 -98.83,-38.22 -98.83,-117.94 0,-75.35 34.94,-113.02 104.83,-113.02l75.35 0 0 230.96 0 0zm0 -297.03l-87.91 0c-50.23,0 -87.91,10.37 -115.21,31.12 -40.4,31.12 -63.34,87.36 -63.34,152.88 0,58.97 18.02,108.11 50.23,138.68 31.12,30.03 65.52,40.4 135.41,40.4l165.98 0 0 -497.95 -84.63 0 0 134.32 -0.54 0.55z"/>
    <path class="fil0" d="M634.46 401.31c0,13.65 -11.47,25.12 -25.12,25.12l-115.21 0c-13.65,0 -25.12,-11.47 -25.12,-25.12l0 -74.8c0,-10.37 6.55,-19.11 15.29,-22.93l0 -56.24c0,-19.66 15.29,-36.04 35.49,-36.58l63.88 0c20.2,0 35.49,16.93 35.49,36.58l0 56.24c9.28,3.82 15.83,12.56 15.83,22.93l0 74.8 -0.54 0zm-81.35 -264.27c-99.37,0 -180.18,80.81 -180.18,180.18 0,99.37 80.81,180.18 180.18,180.18 99.37,0 180.18,-80.81 180.18,-180.18 0,-99.37 -80.81,-180.18 -180.18,-180.18z"/>
    <path class="fil0" d="M790.07 134.86l-66.61 0 0 66.61 66.61 0 0 175.27c0,52.42 7.64,77.53 27.85,97.74 19.66,18.02 40.4,24.02 85.72,24.02l71.53 0 0 -66.61 -40.95 0c-50.78,0 -59.51,-9.83 -59.51,-66.61l0 -164.35 101.01 0 0 -66.61 -101.01 0 0 -134.32 -84.63 0 0 134.32 0 0.55z"/>
    <path class="fil0" d="M1081.63 201.47l69.34 0c70.98,0 104.83,36.04 104.83,111.39 0,42.59 -9.83,76.44 -27.85,95 -14.74,16.38 -42.59,24.57 -80.81,24.57l-65.52 0 0 -230.96 -0 -0zm-84.63 -66.61l0 489.22 84.63 0 0 -125.58 77.53 0c69.34,0 101.56,-9.83 132.13,-38.77 32.21,-31.12 51.32,-83.54 51.32,-141.42 0,-63.34 -18.02,-113.57 -52.96,-145.78 -32.21,-28.94 -62.24,-38.22 -132.13,-38.22l-160.52 0 0 0 0 0.55z"/>
    <path class="fil0" d="M1622.18 343.44l0 89 -119.03 0c-45.32,0 -63.34,-12.01 -63.34,-43.13 0,-20.2 8.74,-34.94 24.02,-40.95 8.74,-3.82 16.93,-4.37 39.31,-4.37l119.03 0 0 0 0 -0.54zm-126.13 -66.61c-42.04,0 -68.8,3.82 -85.72,12.01 -34.94,15.83 -56.78,54.6 -56.78,101.01 0,36.58 14.2,67.71 39.86,87.36 24.02,18.02 44.23,21.84 117.94,21.84l195.47 0 0 -218.95c0,-57.33 -6.55,-83.54 -27.85,-108.11 -24.02,-28.39 -51.32,-36.58 -127.77,-36.58l-178.54 0 0 66.61 170.35 0c42.04,0 57.33,5.46 68.8,20.75 8.74,12.56 10.37,22.93 10.37,54.6l-126.13 0 0 0 0 -0.55z"/>
    <path class="fil0" d="M1968.34 432.43l-87.36 0c-52.42,0 -67.16,-19.66 -67.16,-89.55l0 -207.48 -84.63 0 0 201.48c0,71.53 4.37,93.37 25.66,119.58 25.66,30.58 58.42,42.59 117.94,42.59l95.55 0c-1.64,30.03 -3.82,38.22 -14.74,45.86 -9.83,8.19 -20.75,9.83 -57.33,9.83l-166.53 0 0 66.61 168.71 0c66.61,0 95.55,-8.19 119.58,-32.21 24.02,-24.57 34.94,-65.52 34.94,-125.58l0 -328.15 -84.63 0 0 297.03 0 -0z"/>
    <path class="fil0" d="M585.32 238.06l-63.88 0c-1.64,0 -3.28,0.55 -4.91,2.18 -1.64,1.64 -2.18,3.82 -2.18,6.55l0 54.05 78.62 0 0 -54.05c0,-2.73 -1.09,-4.91 -2.18,-6.55 -1.64,-1.64 -3.28,-2.18 -4.91,-2.18l-0.55 0z"/>
   </g>
  </g>
 </g>
</svg>
