<?xml version="1.0" encoding="UTF-8"?>
<!DOCTYPE svg PUBLIC "-//W3C//DTD SVG 1.1//EN" "http://www.w3.org/Graphics/SVG/1.1/DTD/svg11.dtd">
<!-- Creator: CorelDRAW 2021 (64-Bit) -->
<svg xmlns="http://www.w3.org/2000/svg" xml:space="preserve" width="8.43396in" height="1.77822in" version="1.1" style="shape-rendering:geometricPrecision; text-rendering:geometricPrecision; image-rendering:optimizeQuality; fill-rule:evenodd; clip-rule:evenodd"
viewBox="0 0 672.31 141.75"
 xmlns:xlink="http://www.w3.org/1999/xlink"
 xmlns:xodm="http://www.corel.com/coreldraw/odm/2003">
 <defs>
  <style type="text/css">
   <![CDATA[
    .fil0 {fill:#D9C179;fill-rule:nonzero}
   ]]>
  </style>
 </defs>
 <g id="Layer_x0020_1">
  <metadata id="CorelCorpID_0Corel-Layer"/>
  <g id="_2049061353920">
   <g id="_1419110126704">
    <g>
     <polygon class="fil0" points="224.17,112.42 224.17,21.58 191.58,21.58 191.58,0 280.24,0 280.24,21.58 247.65,21.58 247.65,112.42 "/>
     <path class="fil0" d="M276.55 112.42l0 -81.54 21.58 0 0 12.92c5.13,-10.97 11.68,-12.92 18.76,-12.92l8.35 0 0 21.86 -7.07 0c-10.13,0 -19.23,5.84 -19.23,23.72l0 36.04 -22.37 0 0 -0.08 0 0zm58.81 -29.84l0 -51.7 22.33 0 0 46.65c0,9.54 4.65,16.61 14.19,16.61 9.22,0 15.06,-7.07 15.06,-16.45l0 -46.77 22.33 0 0 81.62 -21.26 0 0 -10.29c-5.36,8.15 -13.39,12.16 -23.53,12.16 -17.88,-0.08 -29.13,-12.36 -29.13,-31.79l0 0 0 -0.04zm83.41 6.91l19.43 -4.45c0.95,6.32 6,11.09 15.74,11.09 7.51,0 11.68,-3.1 11.68,-6.91 0,-3.1 -1.67,-5.36 -9.42,-7.07l-12.76 -2.74c-16.33,-3.58 -23.25,-11.09 -23.25,-24.8 0,-13.99 11.56,-25.27 33.26,-25.27 23.05,0 32.35,13.83 33.26,22.93l-19.55 4.29c-0.95,-4.77 -4.45,-10.01 -14.19,-10.01 -6.2,0 -10.77,2.74 -10.77,6.8 0,3.38 2.3,5.25 6.32,6.2l18.64 4.29c14.19,3.22 20.78,11.68 20.78,23.72 0,12.92 -10.29,26.51 -33.9,26.51 -25.95,-0.08 -34.41,-15.58 -35.29,-24.52l0 0 -0 -0.04zm112.06 22.93c-14.47,0 -24.12,-7.99 -24.12,-23.88l0 -38.19 -13.71 0 0 -19.55 13.71 0 0 -18.16 22.33 -6.44 0 24.6 16.45 0 0 19.55 -16.45 0 0 34.14c0,6 3.1,8.35 9.06,8.35l8.62 0 0 19.55 -15.86 0 -0.04 0.04zm27.98 0l0 -112.34 22.33 0 0 112.42 -22.33 0 0 -0.08zm89.61 -81.54l23.88 0 -34.02 110.87 -23.88 0 9.42 -29.25 -12.32 0 -22.45 -81.62 23.88 0 16.81 63.15 18.68 -63.15 0 0zm-648.43 18.44l52.38 0 0 -41.81 41.81 41.81 -41.81 41.77 0 21.38 50.75 0 0 -63.15 46.57 0 0 -49.2 -149.7 0 0 49.2z"/>
    </g>
   </g>
  </g>
 </g>
</svg>
