<?xml version="1.0" encoding="UTF-8"?>
<!DOCTYPE svg PUBLIC "-//W3C//DTD SVG 1.1//EN" "http://www.w3.org/Graphics/SVG/1.1/DTD/svg11.dtd">
<!-- Creator: CorelDRAW 2021 (64-Bit) -->
<svg xmlns="http://www.w3.org/2000/svg" xml:space="preserve" width="4.93924in" height="1.77887in" version="1.1" style="shape-rendering:geometricPrecision; text-rendering:geometricPrecision; image-rendering:optimizeQuality; fill-rule:evenodd; clip-rule:evenodd"
viewBox="0 0 493.49 177.73"
 xmlns:xlink="http://www.w3.org/1999/xlink"
 xmlns:xodm="http://www.corel.com/coreldraw/odm/2003">
 <defs>
  <style type="text/css">
   <![CDATA[
    .fil0 {fill:#D9C179;fill-rule:nonzero}
   ]]>
  </style>
 </defs>
 <g id="Layer_x0020_1">
  <metadata id="CorelCorpID_0Corel-Layer"/>
  <g id="_2048854539888">
   <g id="_1419189507168">
    <path class="fil0" d="M109.58 43.16l-33.75 0c0,-5.52 -0.65,-9.3 -1.95,-11.14 -2.06,-2.81 -7.57,-4.22 -16.66,-4.22 -8.76,0 -14.6,0.76 -17.52,2.38 -2.81,1.62 -4.33,5.19 -4.33,10.6 0,4.87 1.3,8.11 3.79,9.74 1.84,1.08 4.22,1.73 7.25,1.95l6.81 0.43c14.6,0.97 23.69,1.62 27.37,2.06 11.57,1.19 19.9,4.22 25.1,9.19 4.11,3.89 6.49,8.98 7.25,15.25 0.43,3.79 0.65,8 0.65,12.66 0,10.82 -1.08,18.82 -3.14,23.8 -3.79,9.19 -12.22,15.04 -25.31,17.52 -5.52,1.08 -13.95,1.51 -25.2,1.51 -18.93,0 -32.13,-1.08 -39.48,-3.35 -9.09,-2.81 -15.14,-8.33 -18.07,-16.88 -1.62,-4.65 -2.38,-12.55 -2.38,-23.47l33.75 0c0,1.19 0,2.16 0,2.81 0,5.84 1.73,9.63 5.08,11.25 2.38,1.19 5.08,1.73 8.44,1.84l12.44 0c6.38,0 10.38,-0.32 12.12,-0.97 3.14,-1.19 5.19,-3.14 6.17,-5.95 0.54,-1.62 0.76,-3.79 0.76,-6.49 0,-5.95 -2.16,-9.52 -6.49,-10.82 -1.62,-0.54 -9.19,-1.19 -22.61,-2.16 -10.82,-0.76 -18.28,-1.51 -22.5,-2.27 -11.03,-2.06 -18.39,-6.27 -22.07,-12.76 -3.25,-5.52 -4.87,-13.74 -4.87,-24.88 0,-8.44 0.87,-15.25 2.6,-20.34 1.73,-5.08 4.54,-8.98 8.44,-11.57 5.73,-4.11 12.98,-6.49 21.85,-7.14 7.36,-0.65 15.58,-0.97 24.56,-0.97 14.17,0 24.23,0.87 30.29,2.38 14.71,3.89 22.07,15.04 22.07,33.21 0,1.51 -0.11,3.68 -0.32,6.71l-0.11 0.11zm56.9 0.43l74.96 0 -0.54 -0.87 -8.98 19.26 0.54 -0.32 -72.69 0 -0.11 0.54c-0.11,1.62 -0.22,3.25 -0.22,4.87 0,2.38 0.22,4.87 0.54,7.25l0.11 0.54 66.85 0 -0.54 -0.87 -8.98 19.26 0.54 -0.32 -51.06 0 0.54 0.87c8.98,13.74 24.12,21.96 40.46,21.96 13.85,0 27.15,-6.06 36.35,-16.44l-0.97 -0.43 0 23.69 0.22 -0.43c-11.25,7.46 -24.34,11.36 -37.86,11.36 -27.15,0 -51.49,-15.79 -62.09,-40.24l-0.11 -0.32 -24.23 0 0.54 0.87 8.98 -19.36 -0.54 0.32 10.49 0 -0.11 -0.65c-0.22,-2.16 -0.32,-4.33 -0.32,-6.49 0,-1.62 0.11,-3.35 0.22,-5.41l0 -0.65 -20.23 0 0.54 0.87 8.98 -19.26 -0.54 0.32 15.69 0 0.11 -0.32c4.98,-12.12 13.41,-22.39 24.34,-29.75 11.25,-7.57 24.45,-11.57 38.19,-11.57 17.52,0 34.18,6.6 46.84,18.5l-0.11 -0.65 -7.79 16.77 0.97 -0.11c-9.3,-11.36 -22.93,-17.96 -37.54,-17.96 -17.2,0 -33.21,9.3 -41.86,24.23l-0.54 0.87 0.97 0 0 0.11zm41.43 -23.91c14.28,0 27.58,6.38 36.67,17.52l0.54 0.76 0.43 -0.87 7.79 -16.77 0.22 -0.43 -0.32 -0.32c-12.87,-12.12 -29.75,-18.82 -47.6,-18.82 -13.95,0 -27.37,4.11 -38.83,11.79 -11.14,7.57 -19.8,17.96 -24.77,30.29l0.54 -0.32 -15.58 0 -0.11 0.32 -8.98 19.26 -0.43 0.87 20.55 0 -0.54 -0.65c-0.22,2.06 -0.22,3.79 -0.22,5.41 0,2.16 0.11,4.44 0.32,6.6l0.54 -0.65 -10.28 0 -0.11 0.32 -8.98 19.26 -0.43 0.87 24.77 0 -0.54 -0.32c10.71,24.88 35.59,40.89 63.17,40.89 13.85,0 27.15,-4 38.51,-11.57l0.22 -0.22 0 -25.53 -0.97 1.19c-8.98,10.28 -21.96,16.12 -35.48,16.12 -15.9,0 -30.72,-8 -39.48,-21.42l-0.43 0.87 50.41 0 0.11 -0.32 8.98 -19.36 0.43 -0.87 -67.28 0 0.54 0.54c-0.32,-2.38 -0.54,-4.65 -0.54,-7.03 0,-1.62 0.11,-3.25 0.22,-4.76l-0.54 0.54 72.59 0 0.11 -0.32 8.98 -19.26 0.43 -0.87 -75.94 0 0.54 0.87c8.44,-14.6 24.12,-23.69 40.89,-23.69l-0.11 0.11zm279.52 141.49c-0.65,0.22 -1.62,0.43 -3.03,0.76 -1.41,0.32 -2.27,0.54 -2.7,0.87 -0.65,0.43 -0.97,1.08 -0.97,1.73 0,0.65 0.22,1.3 0.76,1.84 0.54,0.54 1.19,0.76 1.95,0.76 0.87,0 1.73,-0.32 2.49,-0.87 0.65,-0.43 0.97,-0.97 1.19,-1.62 0.11,-0.43 0.22,-1.19 0.22,-2.38l0 -0.97 0.11 -0.11zm-6.6 -4l-4.44 -0.87c0.54,-1.84 1.41,-3.14 2.6,-4 1.19,-0.87 3.03,-1.3 5.52,-1.3 2.16,0 3.89,0.22 4.98,0.76 1.08,0.54 1.84,1.19 2.27,1.95 0.43,0.76 0.65,2.27 0.65,4.44l0 5.73c0,1.62 0.11,2.81 0.22,3.68 0.11,0.76 0.43,1.62 0.87,2.49l-4.87 0c-0.11,-0.32 -0.32,-0.76 -0.43,-1.41 -0.11,-0.32 -0.11,-0.43 -0.22,-0.54 -0.87,0.87 -1.73,1.41 -2.7,1.84 -0.97,0.43 -1.95,0.65 -3.03,0.65 -1.95,0 -3.46,-0.54 -4.54,-1.51 -1.08,-1.08 -1.62,-2.38 -1.62,-4 0,-1.08 0.22,-1.95 0.76,-2.81 0.54,-0.87 1.19,-1.51 2.16,-1.95 0.87,-0.43 2.27,-0.87 3.89,-1.19 2.27,-0.43 3.89,-0.87 4.76,-1.19l0 -0.54c0,-0.97 -0.22,-1.62 -0.76,-2.06 -0.43,-0.43 -1.41,-0.65 -2.7,-0.65 -0.87,0 -1.62,0.22 -2.06,0.54 -0.54,0.32 -0.87,0.97 -1.19,1.84l-0.11 0.11zm-13.63 2.06c0,-1.41 -0.43,-2.6 -1.08,-3.35 -0.76,-0.76 -1.51,-1.08 -2.6,-1.08 -1.08,0 -1.95,0.43 -2.7,1.19 -0.76,0.76 -1.08,1.84 -1.08,3.25l7.46 0zm-0.22 4.98l4.87 0.87c-0.65,1.84 -1.62,3.14 -3.03,4.11 -1.41,0.97 -3.03,1.41 -5.08,1.41 -3.25,0 -5.62,-1.08 -7.25,-3.25 -1.19,-1.73 -1.84,-3.89 -1.84,-6.49 0,-3.14 0.76,-5.52 2.38,-7.25 1.62,-1.73 3.68,-2.6 6.17,-2.6 2.81,0 4.98,0.97 6.6,2.81 1.62,1.84 2.38,4.65 2.27,8.44l-12.44 0c0,1.51 0.43,2.6 1.19,3.46 0.76,0.87 1.73,1.19 2.92,1.19 0.76,0 1.41,-0.22 1.95,-0.65 0.54,-0.43 0.97,-1.08 1.19,-2.06l0.11 0zm-21.2 5.84l-4.98 0 0 -18.61 4.65 0 0 2.7c0.76,-1.3 1.51,-2.06 2.16,-2.49 0.65,-0.43 1.3,-0.65 2.16,-0.65 1.08,0 2.16,0.32 3.25,0.97l-1.51 4.33c-0.87,-0.54 -1.62,-0.76 -2.38,-0.76 -0.65,0 -1.3,0.22 -1.73,0.54 -0.43,0.43 -0.87,1.08 -1.19,2.06 -0.32,0.97 -0.43,3.14 -0.43,6.27l0 5.73 0 -0.11zm-18.06 -10.17l-3.57 -9.52 -3.46 9.52 7.03 0zm9.52 10.17l-5.62 0 -2.27 -5.84 -10.38 0 -2.16 5.84 -5.52 0 9.95 -25.75 5.52 0 10.38 25.75 0.11 0zm-57.12 -5.3l4.98 -0.76c0.22,0.97 0.65,1.62 1.3,2.16 0.65,0.54 1.51,0.76 2.7,0.76 1.3,0 2.27,-0.22 2.92,-0.76 0.43,-0.32 0.65,-0.76 0.65,-1.3 0,-0.32 -0.11,-0.65 -0.32,-0.97 -0.22,-0.22 -0.76,-0.43 -1.62,-0.65 -4,-0.87 -6.49,-1.73 -7.57,-2.38 -1.51,-0.97 -2.27,-2.38 -2.27,-4.22 0,-1.62 0.65,-3.03 1.95,-4.11 1.3,-1.08 3.25,-1.62 5.95,-1.62 2.6,0 4.44,0.43 5.73,1.19 1.3,0.87 2.06,2.06 2.6,3.68l-4.65 0.87c-0.22,-0.76 -0.54,-1.3 -1.19,-1.62 -0.54,-0.43 -1.41,-0.54 -2.38,-0.54 -1.3,0 -2.27,0.22 -2.81,0.54 -0.43,0.22 -0.54,0.54 -0.54,0.97 0,0.32 0.22,0.65 0.54,0.87 0.43,0.32 1.95,0.76 4.65,1.41 2.6,0.65 4.44,1.3 5.52,2.16 1.08,0.87 1.51,2.16 1.51,3.68 0,1.73 -0.76,3.25 -2.16,4.44 -1.41,1.19 -3.57,1.84 -6.38,1.84 -2.49,0 -4.54,-0.54 -6.06,-1.51 -1.51,-1.08 -2.49,-2.38 -2.92,-4.22l-0.11 0.11zm-2.81 -13.41l0 3.89 -3.35 0 0 7.57c0,1.51 0,2.38 0.11,2.7 0.11,0.22 0.22,0.43 0.43,0.65 0.22,0.22 0.54,0.22 0.87,0.22 0.43,0 1.08,-0.11 1.95,-0.43l0.43 3.79c-1.19,0.54 -2.49,0.76 -3.89,0.76 -0.87,0 -1.73,-0.11 -2.38,-0.43 -0.76,-0.32 -1.19,-0.65 -1.51,-1.19 -0.32,-0.43 -0.54,-1.08 -0.65,-1.95 -0.11,-0.54 -0.11,-1.73 -0.11,-3.46l0 -8.11 -2.27 0 0 -3.89 2.27 0 0 -3.68 4.98 -2.92 0 6.6 3.35 0 -0.22 -0.11zm-14.6 18.61l-4.98 0 0 -9.52c0,-2.06 -0.11,-3.35 -0.32,-3.89 -0.22,-0.54 -0.54,-1.08 -0.97,-1.41 -0.43,-0.32 -1.08,-0.54 -1.73,-0.54 -0.87,0 -1.62,0.22 -2.27,0.76 -0.65,0.43 -1.19,1.08 -1.41,1.84 -0.22,0.76 -0.32,2.16 -0.32,4.33l0 8.44 -4.98 0 0 -18.61 4.65 0 0 2.7c1.62,-2.16 3.68,-3.25 6.17,-3.25 1.08,0 2.06,0.22 3.03,0.54 0.87,0.43 1.62,0.87 2.06,1.51 0.43,0.65 0.76,1.3 0.97,2.06 0.22,0.76 0.32,1.84 0.32,3.35l0 11.57 -0.22 0.11zm-26.94 -10.93c0,-1.41 -0.43,-2.6 -1.08,-3.35 -0.76,-0.76 -1.51,-1.08 -2.6,-1.08 -1.08,0 -1.95,0.43 -2.7,1.19 -0.76,0.76 -1.08,1.84 -1.08,3.25l7.46 0zm-0.22 4.98l4.87 0.87c-0.65,1.84 -1.62,3.14 -3.03,4.11 -1.41,0.97 -3.03,1.41 -5.19,1.41 -3.25,0 -5.62,-1.08 -7.25,-3.25 -1.19,-1.73 -1.84,-3.89 -1.84,-6.49 0,-3.14 0.87,-5.52 2.38,-7.25 1.62,-1.73 3.68,-2.6 6.17,-2.6 2.81,0 4.98,0.97 6.6,2.81 1.62,1.84 2.38,4.65 2.27,8.44l-12.44 0c0,1.51 0.43,2.6 1.19,3.46 0.76,0.87 1.73,1.19 2.92,1.19 0.76,0 1.41,-0.22 1.95,-0.65 0.54,-0.43 0.97,-1.08 1.19,-2.06l0.22 0zm-44.35 -12.76l4.54 0 0 2.6c1.62,-2.06 3.57,-3.03 5.84,-3.03 1.19,0 2.27,0.22 3.14,0.76 0.87,0.54 1.62,1.19 2.16,2.27 0.87,-0.97 1.73,-1.73 2.7,-2.27 0.97,-0.54 1.95,-0.76 3.03,-0.76 1.41,0 2.49,0.32 3.46,0.87 0.97,0.54 1.62,1.41 2.16,2.49 0.32,0.76 0.54,2.06 0.54,3.89l0 11.9 -4.98 0 0 -10.71c0,-1.84 -0.22,-3.03 -0.54,-3.57 -0.43,-0.76 -1.19,-1.08 -2.06,-1.08 -0.65,0 -1.3,0.22 -1.95,0.65 -0.65,0.43 -1.08,1.08 -1.3,1.84 -0.22,0.87 -0.43,2.06 -0.43,3.89l0 8.98 -4.98 0 0 -10.28c0,-1.84 -0.11,-3.03 -0.22,-3.57 -0.22,-0.54 -0.43,-0.97 -0.87,-1.19 -0.32,-0.22 -0.87,-0.43 -1.51,-0.43 -0.76,0 -1.41,0.22 -2.06,0.65 -0.65,0.43 -1.08,0.97 -1.3,1.73 -0.22,0.76 -0.43,2.06 -0.43,3.89l0 9.09 -4.98 0 0 -18.61 0 0zm-23.04 0l5.3 0 4.44 13.2 4.33 -13.2 5.08 0 -6.6 17.96 -1.19 3.25c-0.43,1.08 -0.87,1.95 -1.19,2.49 -0.43,0.54 -0.87,1.08 -1.41,1.41 -0.54,0.32 -1.19,0.65 -1.84,0.87 -0.76,0.22 -1.62,0.32 -2.49,0.32 -0.97,0 -1.84,-0.11 -2.81,-0.32l-0.43 -3.89c0.76,0.11 1.51,0.22 2.06,0.22 1.19,0 2.06,-0.32 2.6,-0.97 0.54,-0.65 0.97,-1.51 1.3,-2.6l-7.14 -18.71zm-8.44 9.74c-0.65,0.22 -1.62,0.43 -3.03,0.76 -1.41,0.32 -2.27,0.54 -2.7,0.87 -0.65,0.43 -0.97,1.08 -0.97,1.73 0,0.65 0.22,1.3 0.76,1.84 0.54,0.54 1.19,0.76 1.95,0.76 0.87,0 1.73,-0.32 2.49,-0.87 0.65,-0.43 0.97,-0.97 1.19,-1.62 0.11,-0.43 0.22,-1.19 0.22,-2.38l0 -0.97 0.11 -0.11zm-6.6 -4l-4.44 -0.87c0.54,-1.84 1.41,-3.14 2.6,-4 1.19,-0.87 3.03,-1.3 5.52,-1.3 2.16,0 3.89,0.22 4.98,0.76 1.08,0.54 1.84,1.19 2.27,1.95 0.43,0.76 0.65,2.27 0.65,4.44l0 5.73c0,1.62 0.11,2.81 0.22,3.68 0.11,0.76 0.43,1.62 0.87,2.49l-4.87 0c-0.11,-0.32 -0.32,-0.76 -0.43,-1.41 -0.11,-0.32 -0.11,-0.43 -0.22,-0.54 -0.87,0.87 -1.73,1.41 -2.7,1.84 -0.97,0.43 -1.95,0.65 -3.03,0.65 -1.95,0 -3.46,-0.54 -4.54,-1.51 -1.08,-1.08 -1.62,-2.38 -1.62,-4 0,-1.08 0.22,-1.95 0.76,-2.81 0.54,-0.87 1.19,-1.51 2.16,-1.95 0.87,-0.43 2.27,-0.87 3.89,-1.19 2.27,-0.43 3.89,-0.87 4.76,-1.19l0 -0.54c0,-0.97 -0.22,-1.62 -0.76,-2.06 -0.43,-0.43 -1.41,-0.65 -2.7,-0.65 -0.87,0 -1.62,0.22 -2.06,0.54 -0.54,0.32 -0.87,0.97 -1.19,1.84l-0.11 0.11zm-23.47 -8.44l0 7.36 2.81 0c2.06,0 3.46,-0.11 4.11,-0.43 0.65,-0.32 1.19,-0.65 1.62,-1.3 0.43,-0.54 0.54,-1.3 0.54,-2.06 0,-0.97 -0.32,-1.73 -0.87,-2.38 -0.54,-0.65 -1.3,-0.97 -2.06,-1.19 -0.65,-0.11 -1.84,-0.22 -3.79,-0.22l-2.49 0 0.11 0.22zm-5.19 21.42l0 -25.75 8.33 0c3.14,0 5.19,0.11 6.17,0.43 1.51,0.43 2.7,1.19 3.68,2.49 0.97,1.3 1.51,2.92 1.51,4.98 0,1.62 -0.32,2.92 -0.87,4 -0.54,1.08 -1.3,1.95 -2.16,2.49 -0.87,0.65 -1.73,0.97 -2.7,1.19 -1.19,0.22 -3.03,0.32 -5.41,0.32l-3.35 0 0 9.74 -5.19 0 0 0.11zm-30.4 -9.3c0,1.84 0.43,3.25 1.3,4.22 0.87,0.97 1.95,1.51 3.25,1.51 1.3,0 2.38,-0.54 3.25,-1.51 0.87,-0.97 1.3,-2.38 1.3,-4.33 0,-1.84 -0.43,-3.25 -1.3,-4.22 -0.87,-0.97 -1.95,-1.51 -3.25,-1.51 -1.3,0 -2.38,0.54 -3.25,1.51 -0.87,0.97 -1.3,2.38 -1.3,4.22l0 0.11zm-5.08 -0.22c0,-1.62 0.43,-3.25 1.19,-4.76 0.76,-1.51 1.95,-2.7 3.46,-3.57 1.51,-0.76 3.14,-1.19 4.98,-1.19 2.81,0 5.08,0.87 6.92,2.7 1.84,1.84 2.7,4.22 2.7,6.92 0,2.81 -0.87,5.19 -2.7,7.03 -1.84,1.84 -4.11,2.81 -6.92,2.81 -1.73,0 -3.35,-0.43 -4.87,-1.19 -1.51,-0.76 -2.7,-1.95 -3.57,-3.46 -0.76,-1.51 -1.19,-3.35 -1.19,-5.52l0 0.22zm-9.19 9.63l-4.98 0 0 -18.61 4.65 0 0 2.7c0.76,-1.3 1.51,-2.06 2.16,-2.49 0.65,-0.43 1.3,-0.65 2.16,-0.65 1.08,0 2.16,0.32 3.25,0.97l-1.51 4.33c-0.87,-0.54 -1.62,-0.76 -2.38,-0.76 -0.65,0 -1.3,0.22 -1.73,0.54 -0.43,0.43 -0.87,1.08 -1.19,2.06 -0.32,0.97 -0.43,3.14 -0.43,6.27l0 5.73 0 -0.11zm-15.47 0l0 -2.81c-0.65,0.97 -1.62,1.84 -2.7,2.38 -1.08,0.54 -2.27,0.87 -3.46,0.87 -1.3,0 -2.38,-0.32 -3.35,-0.87 -0.97,-0.54 -1.73,-1.3 -2.16,-2.27 -0.43,-0.97 -0.65,-2.38 -0.65,-4.11l0 -11.79 4.98 0 0 8.55c0,2.6 0.11,4.22 0.32,4.87 0.22,0.65 0.54,1.08 0.97,1.41 0.43,0.32 1.08,0.54 1.84,0.54 0.87,0 1.62,-0.22 2.27,-0.65 0.65,-0.43 1.08,-1.08 1.41,-1.73 0.22,-0.65 0.32,-2.38 0.32,-5.08l0 -7.9 4.98 0 0 18.61 -4.65 0 -0.11 -0zm-37.32 0l0 -25.75 19.04 0 0 4.33 -13.85 0 0 5.73 12.87 0 0 4.33 -12.87 0 0 7.03 14.39 0 0 4.33 -19.58 0 0 0zm-21.09 -10.93c0,-1.41 -0.43,-2.6 -1.08,-3.35 -0.76,-0.76 -1.51,-1.08 -2.6,-1.08 -1.08,0 -1.95,0.43 -2.7,1.19 -0.76,0.76 -1.08,1.84 -1.08,3.25l7.46 0zm-0.22 4.98l4.87 0.87c-0.65,1.84 -1.62,3.14 -3.03,4.11 -1.41,0.97 -3.03,1.41 -5.08,1.41 -3.25,0 -5.62,-1.08 -7.25,-3.25 -1.19,-1.73 -1.84,-3.89 -1.84,-6.49 0,-3.14 0.76,-5.52 2.38,-7.25 1.62,-1.73 3.68,-2.6 6.17,-2.6 2.81,0 4.98,0.97 6.6,2.81 1.62,1.84 2.38,4.65 2.27,8.44l-12.44 0c0,1.51 0.43,2.6 1.19,3.46 0.76,0.87 1.73,1.19 2.92,1.19 0.76,0 1.41,-0.22 1.95,-0.65 0.54,-0.43 0.97,-1.08 1.19,-2.06l0.11 0zm-21.96 5.84l4.98 0 0 -25.75 -4.98 0 0 25.75zm-19.04 -9.74c0,1.95 0.43,3.46 1.19,4.33 0.76,0.97 1.73,1.41 2.81,1.41 1.19,0 2.16,-0.43 3.03,-1.41 0.87,-0.97 1.19,-2.38 1.19,-4.22 0,-1.95 -0.43,-3.35 -1.19,-4.33 -0.76,-0.97 -1.84,-1.41 -3.03,-1.41 -1.19,0 -2.16,0.43 -2.92,1.41 -0.76,0.97 -1.19,2.38 -1.19,4.22l0.11 0zm-4.44 10.93l5.62 0.65c0.11,0.65 0.32,1.19 0.65,1.41 0.43,0.32 1.19,0.54 2.27,0.54 1.3,0 2.27,-0.22 2.92,-0.54 0.43,-0.22 0.76,-0.65 0.97,-1.3 0.11,-0.43 0.22,-1.19 0.22,-2.27l0 -2.7c-1.51,1.95 -3.35,3.03 -5.52,3.03 -2.49,0 -4.54,-1.08 -5.95,-3.14 -1.19,-1.73 -1.73,-3.79 -1.73,-6.27 0,-3.14 0.76,-5.52 2.27,-7.14 1.51,-1.62 3.35,-2.49 5.62,-2.49 2.27,0 4.22,0.97 5.73,3.03l0 -2.6 4.65 0 0 16.77c0,2.16 -0.22,3.89 -0.54,4.98 -0.32,1.08 -0.87,1.95 -1.51,2.6 -0.65,0.65 -1.51,1.08 -2.6,1.51 -1.08,0.32 -2.49,0.54 -4.11,0.54 -3.14,0 -5.41,-0.54 -6.71,-1.62 -1.3,-1.08 -1.95,-2.49 -1.95,-4.11 0,-0.22 0,-0.32 0,-0.65l-0.32 -0.22zm-5.62 -1.19l-4.98 0 0 -9.52c0,-2.06 -0.11,-3.35 -0.32,-3.89 -0.22,-0.54 -0.54,-1.08 -0.97,-1.41 -0.43,-0.32 -1.08,-0.54 -1.73,-0.54 -0.87,0 -1.62,0.22 -2.27,0.76 -0.65,0.43 -1.19,1.08 -1.41,1.84 -0.22,0.76 -0.32,2.16 -0.32,4.33l0 8.44 -4.98 0 0 -18.61 4.65 0 0 2.7c1.62,-2.16 3.68,-3.25 6.17,-3.25 1.08,0 2.06,0.22 3.03,0.54 0.87,0.43 1.62,0.87 2.06,1.51 0.43,0.65 0.76,1.3 0.97,2.06 0.22,0.76 0.32,1.84 0.32,3.35l0 11.57 -0.22 0.11zm-28.13 0l0 -18.61 4.98 0 0 18.61 -4.98 0zm0 -21.2l0 -4.54 4.98 0 0 4.54 -4.98 0zm-26.39 12.76l5.08 -0.54c0.32,1.73 0.97,2.92 1.84,3.79 0.97,0.76 2.16,1.19 3.79,1.19 1.62,0 2.92,-0.32 3.79,-1.08 0.87,-0.76 1.3,-1.51 1.3,-2.49 0,-0.65 -0.22,-1.08 -0.54,-1.51 -0.32,-0.43 -0.97,-0.76 -1.84,-1.08 -0.65,-0.22 -1.95,-0.54 -4.11,-1.08 -2.81,-0.65 -4.76,-1.51 -5.84,-2.49 -1.62,-1.41 -2.38,-3.14 -2.38,-5.19 0,-1.3 0.32,-2.49 1.08,-3.68 0.76,-1.19 1.84,-2.06 3.25,-2.6 1.41,-0.65 3.14,-0.87 5.08,-0.87 3.25,0 5.62,0.76 7.25,2.16 1.62,1.41 2.49,3.35 2.6,5.73l-5.19 0.22c-0.22,-1.3 -0.65,-2.27 -1.41,-2.81 -0.76,-0.54 -1.84,-0.87 -3.25,-0.87 -1.51,0 -2.7,0.32 -3.57,0.97 -0.54,0.43 -0.87,0.97 -0.87,1.62 0,0.65 0.22,1.08 0.76,1.51 0.65,0.54 2.27,1.08 4.76,1.73 2.49,0.65 4.44,1.19 5.62,1.84 1.19,0.65 2.16,1.51 2.81,2.6 0.65,1.08 0.97,2.49 0.97,4.11 0,1.51 -0.43,2.81 -1.19,4.11 -0.87,1.3 -1.95,2.27 -3.46,2.92 -1.51,0.65 -3.35,0.97 -5.62,0.97 -3.25,0 -5.73,-0.76 -7.46,-2.27 -1.73,-1.51 -2.81,-3.68 -3.14,-6.6l-0.11 -0.32zm442.22 -76.26l-16.98 -58.41 -16.44 58.41 33.53 0 -0.11 0zm7.25 26.29l-48.46 0 -6.49 23.26 -37.54 0 40.46 -134.79 54.74 0 41 134.79 -36.78 0 -6.92 -23.26zm-155.34 -42.73l22.61 0c7.14,-0.22 11.57,-0.76 13.09,-1.62 2.16,-1.19 3.57,-3.57 4.33,-7.03 0.43,-2.38 0.65,-5.84 0.65,-10.49 0,-5.73 -0.43,-9.95 -1.41,-12.66 -1.3,-3.89 -4.44,-6.27 -9.41,-7.03 -0.97,-0.11 -3.35,-0.22 -7.03,-0.22l-22.93 0 0 39.27 0.11 -0.22zm-36.24 66.09l0 -134.79 67.61 0c9.3,0 16.33,0.76 21.2,2.27 11.14,3.46 18.61,10.6 22.39,21.42 1.95,5.62 2.92,14.17 2.92,25.53 0,13.63 -1.08,23.47 -3.25,29.53 -4.33,11.79 -13.31,18.61 -26.72,20.45 -1.62,0.22 -8.33,0.54 -20.23,0.65l-6.06 0.22 -21.63 0 0 34.83 -36.24 0 0 -0.11z"/>
    <path class="fil0" d="M207.91 19.04c14.93,0 28.34,6.92 37.1,17.74l7.79 -16.77c-12.22,-11.57 -28.88,-18.71 -47.27,-18.71 -28.56,0 -53.01,17.31 -63.07,41.76l-15.25 0 -8.98 19.26 19.58 0c-0.11,1.84 -0.22,3.57 -0.22,5.41 0,2.16 0.11,4.44 0.32,6.6l-9.84 0 -8.98 19.36 23.91 0c10.28,23.8 34.51,40.57 62.63,40.57 14.17,0 27.37,-4.22 38.19,-11.47l0 -23.69c-8.76,9.95 -21.63,16.33 -35.91,16.33 -16.77,0 -31.48,-8.65 -40.02,-21.63l49.98 0 8.98 -19.36 -66.31 0c-0.32,-2.27 -0.54,-4.65 -0.54,-7.14 0,-1.62 0.11,-3.25 0.22,-4.87l72.26 0 8.98 -19.26 -74.96 0c8.33,-14.28 23.69,-23.91 41.43,-23.91l0 -0.22z"/>
   </g>
  </g>
 </g>
</svg>
