<?xml version="1.0" encoding="UTF-8"?>
<!DOCTYPE svg PUBLIC "-//W3C//DTD SVG 1.1//EN" "http://www.w3.org/Graphics/SVG/1.1/DTD/svg11.dtd">
<!-- Creator: CorelDRAW 2021 (64-Bit) -->
<svg xmlns="http://www.w3.org/2000/svg" xml:space="preserve" width="2.29081in" height="1.78027in" version="1.1" style="shape-rendering:geometricPrecision; text-rendering:geometricPrecision; image-rendering:optimizeQuality; fill-rule:evenodd; clip-rule:evenodd"
viewBox="0 0 185.95 144.51"
 xmlns:xlink="http://www.w3.org/1999/xlink"
 xmlns:xodm="http://www.corel.com/coreldraw/odm/2003">
 <defs>
  <style type="text/css">
   <![CDATA[
    .fil1 {fill:#D9C179;fill-rule:nonzero}
    .fil2 {fill:#E3CA7F;fill-rule:nonzero}
    .fil0 {fill:#F7DB88;fill-rule:nonzero}
   ]]>
  </style>
 </defs>
 <g id="Layer_x0020_1">
  <metadata id="CorelCorpID_0Corel-Layer"/>
  <g id="_2048858294880">
   <g id="_1419110086240">
    <g>
     <polygon class="fil0" points="118.14,102.66 67.81,102.66 67.81,12.24 118.14,12.24 "/>
     <path class="fil1" d="M71.04 57.45c0,-18.3 8.61,-34.71 21.93,-45.21 -9.82,-7.67 -22.07,-12.24 -35.52,-12.24 -31.75,0 -57.45,25.7 -57.45,57.45 0,31.75 25.7,57.45 57.45,57.45 13.46,0 25.7,-4.57 35.52,-12.24 -13.32,-10.49 -21.93,-26.91 -21.93,-45.21z"/>
     <path class="fil2" d="M185.95 57.45c0,31.75 -25.7,57.45 -57.45,57.45 -13.46,0 -25.7,-4.57 -35.52,-12.24 13.32,-10.49 21.93,-26.91 21.93,-45.21 0,-18.3 -8.61,-34.71 -21.93,-45.21 9.82,-7.67 22.07,-12.24 35.52,-12.24 31.75,0 57.45,25.7 57.45,57.45z"/>
     <path class="fil1" d="M135.09 128.09c0.67,0 1.61,0.13 2.42,0.4l-1.08 3.09c-0.67,-0.27 -1.35,-0.4 -2.02,-0.4 -2.15,0 -3.23,1.35 -3.23,3.9l0 8.61 -3.36 0 0 -15.2 3.23 0 0 1.88c0.81,-1.35 2.15,-2.29 4.04,-2.29l0 0 -0 0zm-12.24 3.36l-5.38 0 0 6.86c0,1.48 0.54,2.56 2.15,2.56 0.81,0 1.88,-0.27 2.96,-0.81l0.94 2.83c-1.08,0.67 -2.69,1.21 -4.17,1.21 -3.9,0 -5.25,-2.15 -5.25,-5.65l0 -7 -3.09 0 0 -3.09 3.09 0 0 -4.57 3.36 0 0 4.57 5.38 0 0 3.09 0 0 -0 -0zm-42.52 3.23c0.4,-2.15 1.75,-3.77 4.04,-3.77 2.15,0 3.5,1.35 3.9,3.77l-7.94 0zm11.3 1.35c0,-4.71 -2.96,-8.07 -7.27,-8.07 -4.44,0 -7.54,3.23 -7.54,8.07 0,4.84 3.23,8.07 7.8,8.07 2.29,0 4.44,-0.54 6.19,-2.15l-1.61 -2.42c-1.21,1.08 -2.96,1.61 -4.44,1.61 -2.15,0 -4.04,-0.94 -4.57,-3.77l11.3 0c0,-0.4 0,-0.81 0,-1.21l0 0 0.13 -0.13zm14.53 -3.77c-0.94,-0.54 -2.83,-1.35 -4.71,-1.35 -1.88,0 -2.96,0.67 -2.96,1.75 0,1.08 1.21,1.35 2.56,1.48l1.61 0.27c3.36,0.54 5.38,1.88 5.38,4.57 0,2.96 -2.56,4.98 -7,4.98 -2.56,0 -4.84,-0.67 -6.59,-2.02l1.61 -2.56c1.08,0.81 2.83,1.61 5.11,1.61 2.29,0 3.5,-0.67 3.5,-1.88 0,-0.81 -0.81,-1.35 -2.69,-1.61l-1.61 -0.27c-3.36,-0.54 -5.25,-2.02 -5.25,-4.44 0,-3.09 2.56,-4.84 6.32,-4.84 2.42,0 4.57,0.54 6.19,1.61l-1.48 2.69 0 0 0 0zm40.9 -1.08c-0.67,0 -1.35,0.13 -1.88,0.4 -0.54,0.27 -1.08,0.54 -1.48,0.94 -0.4,0.4 -0.81,0.94 -0.94,1.61 -0.27,0.54 -0.4,1.21 -0.4,2.02 0,0.67 0.13,1.35 0.4,2.02 0.27,0.54 0.54,1.08 0.94,1.61 0.4,0.4 0.94,0.81 1.48,0.94 0.54,0.27 1.21,0.4 1.88,0.4 0.67,0 1.35,-0.13 1.88,-0.4 0.54,-0.27 1.08,-0.54 1.48,-0.94 0.4,-0.4 0.81,-0.94 1.08,-1.61 0.27,-0.54 0.4,-1.21 0.4,-2.02 0,-0.67 -0.13,-1.35 -0.4,-2.02 -0.27,-0.54 -0.54,-1.08 -1.08,-1.61 -0.4,-0.4 -0.94,-0.81 -1.48,-0.94 -0.54,-0.27 -1.21,-0.4 -1.88,-0.4l0 0zm0 -3.09c1.21,0 2.29,0.27 3.23,0.67 0.94,0.4 1.88,0.94 2.56,1.75 0.67,0.67 1.35,1.61 1.75,2.56 0.4,0.94 0.67,2.02 0.67,3.23 0,1.21 -0.27,2.15 -0.67,3.23 -0.4,0.94 -0.94,1.88 -1.75,2.56 -0.67,0.67 -1.61,1.35 -2.56,1.75 -0.94,0.4 -2.15,0.67 -3.23,0.67 -1.21,0 -2.29,-0.27 -3.23,-0.67 -0.94,-0.4 -1.88,-0.94 -2.56,-1.75 -0.67,-0.67 -1.35,-1.61 -1.75,-2.56 -0.4,-0.94 -0.67,-2.02 -0.67,-3.23 0,-1.21 0.27,-2.15 0.67,-3.23 0.4,-0.94 0.94,-1.88 1.75,-2.56 0.67,-0.67 1.61,-1.35 2.56,-1.75 0.94,-0.4 2.15,-0.67 3.23,-0.67l0 0zm-86.25 8.07c0,-2.69 1.75,-4.84 4.57,-4.84 2.69,0 4.57,2.15 4.57,4.84 0,2.83 -1.88,4.84 -4.57,4.84 -2.83,0 -4.57,-2.15 -4.57,-4.84l0 0zm12.38 0l0 -7.67 -3.36 0 0 1.88c-1.08,-1.35 -2.69,-2.29 -4.84,-2.29 -4.31,0 -7.67,3.36 -7.67,8.07 0,4.71 3.36,8.07 7.67,8.07 2.15,0 3.77,-0.81 4.84,-2.29l0 1.88 3.36 0 0 -7.67 0 0zm-18.7 7.67l0 -9.55c0,-3.63 -2.29,-6.05 -6.05,-6.05 -1.88,0 -3.9,0.54 -5.38,2.69 -1.08,-1.75 -2.69,-2.69 -4.98,-2.69 -1.61,0 -3.23,0.54 -4.44,2.29l0 -1.88 -3.36 0 0 15.2 3.36 0 0 -8.48c0,-2.69 1.48,-4.04 3.77,-4.04 2.15,0 3.36,1.48 3.36,4.04l0 8.48 3.36 0 0 -8.48c0,-2.69 1.48,-4.04 3.77,-4.04 2.29,0 3.36,1.48 3.36,4.04l0 8.48 3.36 0 0 0 -0.14 -0z"/>
    </g>
   </g>
  </g>
 </g>
</svg>
