<?xml version="1.0" encoding="UTF-8"?>
<!DOCTYPE svg PUBLIC "-//W3C//DTD SVG 1.1//EN" "http://www.w3.org/Graphics/SVG/1.1/DTD/svg11.dtd">
<!-- Creator: CorelDRAW 2021 (64-Bit) -->
<svg xmlns="http://www.w3.org/2000/svg" xml:space="preserve" width="10.0861in" height="1.82922in" version="1.1" style="shape-rendering:geometricPrecision; text-rendering:geometricPrecision; image-rendering:optimizeQuality; fill-rule:evenodd; clip-rule:evenodd"
viewBox="0 0 1240.01 224.89"
 xmlns:xlink="http://www.w3.org/1999/xlink"
 xmlns:xodm="http://www.corel.com/coreldraw/odm/2003">
 <defs>
  <style type="text/css">
   <![CDATA[
    .fil0 {fill:#D9C179;fill-rule:nonzero}
   ]]>
  </style>
 </defs>
 <g id="Layer_x0020_1">
  <metadata id="CorelCorpID_0Corel-Layer"/>
  <g id="_2049059927120">
   <path class="fil0" d="M1022.86 3.5c4.31,3.37 7.93,7.24 10.99,11.61 7.87,11.3 10.86,24.72 9.05,40.08l40.15 0 -60.44 166.2 60.44 0 60.5 -166.2 77.61 0 18.86 -51.7 -217.08 0 -0.06 0z"/>
   <path class="fil0" d="M1022.93 3.25c4.25,3.37 7.93,7.24 10.99,11.61 7.87,11.3 10.8,24.72 9.05,40.08l40.15 0 -60.44 166.2 60.44 0 60.5 -166.2 77.61 0 18.79 -51.57 0 -0.19 -217.02 0 -0.06 0.06zm-260.29 107.82c-18.67,51.13 -32.22,63.93 -52.57,63.93l-0.06 0c-15.86,0 -23.48,-7.99 -16.54,-36.96 1.75,-7.37 4.5,-15.98 8.24,-26.22 13.86,-37.96 31.84,-62.25 53.63,-62.25l0.06 0c17.42,0 23.54,8.55 14.17,40.89 -1.75,5.99 -4,12.86 -6.87,20.6l-0.06 0zm64.06 -87.53c-10.86,-15.55 -29.53,-23.48 -55.44,-23.54 -16.92,0 -33.4,3.93 -48.82,11.18 -22.1,10.43 -42.08,27.91 -58.44,51.01 -10.61,14.98 -19.67,32.4 -26.78,51.88 -1.5,4.12 -2.81,8.12 -4,11.99l0 0c-0.12,0.44 -0.25,0.94 -0.44,1.37 -8.87,30.66 -7.24,55.75 4.81,72.99 7.74,11.11 23.91,24.35 56.82,24.41l0.12 0c59.87,0 104.51,-39.21 132.8,-116.63 1.19,-3.25 2.44,-6.93 3.62,-10.99 6.37,-21.35 10.99,-51.95 -4.25,-73.74l0 0.06zm-122 -20.42l-127.3 0c-35.59,0 -62.12,18.04 -74.61,51.7l-60.5 166.14 0 0 -0.06 0.25 66.24 0 31.09 -85.41 58.56 0.06 16.67 -45.76 0 0 0.06 -0.25 -58.31 -0.06 9.3 -26.22c2,-4.74 6.62,-8.49 13.49,-8.49 3.81,0 46.76,0 69.05,0 0.56,-0.81 1.06,-1.69 1.62,-2.56 14.61,-20.67 35.28,-37.4 54.63,-49.2l-0.31 0 0.37 -0.25 -0 0.06zm-303.24 107.95c-18.67,51.13 -32.22,63.93 -52.63,63.93l-0.06 0c-17.04,0 -24.6,-9.3 -14.61,-44.2l0 0c0.19,-0.56 0.31,-1.12 0.5,-1.69l0 -0.06c1.56,-5.18 3.5,-10.93 5.81,-17.29 13.92,-37.96 31.84,-62.25 53.63,-62.25l0 0c17.79,0 23.79,8.87 13.61,42.89l0 0c-0.19,0.56 -0.31,1.06 -0.5,1.62 -1.56,5.06 -3.5,10.74 -5.74,16.92l0 0.12zm64.06 -87.53c-10.86,-15.55 -29.53,-23.48 -55.44,-23.54 -16.98,0 -33.4,3.93 -48.82,11.18 -22.1,10.43 -42.08,27.91 -58.44,51.01 -10.61,14.98 -19.73,32.4 -26.78,51.88 -1.06,2.93 -2.06,5.81 -2.93,8.68l0 0.06c-0.12,0.5 -0.31,0.94 -0.44,1.44 -9.93,32.15 -8.68,58.44 3.81,76.23 7.74,11.11 23.91,24.35 56.75,24.41l0.12 0c59.87,0 104.51,-39.21 132.86,-116.63 1.44,-3.93 2.93,-8.43 4.31,-13.42l0.25 -1 0 0c5.74,-21.1 9.18,-49.64 -5.24,-70.3l0 -0zm495.73 49.2c-6.43,17.42 -18.11,28.16 -40.21,28.16l-0.06 0 -11.43 0 19.48 -52.45 11.11 0c18.67,0 26.6,4.99 22.41,20.23 -0.37,1.31 -0.81,2.62 -1.31,4.06l0 0zm58.63 -48.14c-9.93,-14.3 -30.16,-21.35 -61.87,-21.35l-73.36 0 -79.35 217.83 0 0 -0.06 0.25 67.37 0 28.84 -76.67c1.37,3.12 18.42,76.67 18.42,76.67l70.86 0 -0.06 -0.25 0.12 0c0,0 -12.92,-54.01 -22.35,-75.86 -2.37,-5.56 -4.93,-11.74 -8.24,-16.98 19.98,-7.43 48.89,-23.41 60.81,-55.69 0.81,-2.19 1.56,-4.37 2.19,-6.49 5.12,-17.04 4,-30.97 -3.31,-41.52l-0 0.06zm-677.1 -21.48l-124.93 0c-19.73,0 -38.83,0 -55.94,8.68 -17.17,8.74 -32.28,26.1 -43.95,60.94l-0.06 0.25 -0.06 0.12 -0.06 0.25 -0.06 0.12 -0.06 0.25 -0.06 0.12c-2.31,7.12 -3.56,13.36 -3.75,18.73 -0.19,5.62 0.81,10.43 2.93,14.55 2.62,5.06 6.87,9.8 12.17,13.86 5.31,4 11.68,7.3 18.54,9.36 0.25,0.06 3.87,1.12 8.24,2.37 4.37,1.25 9.43,2.75 12.67,3.75 1.87,0.56 3.93,1.31 5.87,2.44 1.87,1.12 3.56,2.62 4.62,4.68 0.69,1.37 1.06,2.87 1.12,4.5 0.06,1.25 -0.12,2.56 -0.5,3.93l0 0 0 0c-0.12,0.31 -0.19,0.69 -0.31,1 -1.56,4.74 -4,7.8 -8.62,9.68 -4.62,1.87 -11.36,2.44 -21.67,2.56l-128.55 0 -20.29 55.82 0 0 -0.06 0.25 137.61 0c12.92,0 36.65,0 59.38,-9.68 22.04,-9.36 43.27,-27.85 52.94,-64.18 0.31,-1.19 0.62,-2.44 0.94,-3.68 3.5,-14.55 2.44,-26.35 -3.31,-35.65 -5.74,-9.3 -16.05,-16.05 -31.09,-20.35 0,0 -3.37,-1 -7.3,-2.12 -3.93,-1.12 -8.49,-2.44 -10.8,-3.12 -3.87,-1.06 -6.81,-3.31 -8.55,-6.18 -1.69,-2.81 -2.25,-6.18 -1.31,-9.61 1.06,-3.62 3.5,-6.49 7.12,-8.49 3.62,-2 8.37,-3.12 13.92,-3.12l79.98 0c0.56,-0.81 1.06,-1.69 1.62,-2.5 14.61,-20.67 32.28,-37.4 51.7,-49.2l-0.31 0 0.37 -0.25 -0.12 -0.06z"/>
  </g>
 </g>
</svg>
