<?xml version="1.0" encoding="UTF-8"?>
<!DOCTYPE svg PUBLIC "-//W3C//DTD SVG 1.1//EN" "http://www.w3.org/Graphics/SVG/1.1/DTD/svg11.dtd">
<!-- Creator: CorelDRAW 2021 (64-Bit) -->
<svg xmlns="http://www.w3.org/2000/svg" xml:space="preserve" width="4.13533in" height="1.77724in" version="1.1" style="shape-rendering:geometricPrecision; text-rendering:geometricPrecision; image-rendering:optimizeQuality; fill-rule:evenodd; clip-rule:evenodd"
viewBox="0 0 229.77 98.75"
 xmlns:xlink="http://www.w3.org/1999/xlink"
 xmlns:xodm="http://www.corel.com/coreldraw/odm/2003">
 <defs>
  <style type="text/css">
   <![CDATA[
    .fil0 {fill:#D9C179;fill-rule:nonzero}
   ]]>
  </style>
 </defs>
 <g id="Layer_x0020_1">
  <metadata id="CorelCorpID_0Corel-Layer"/>
  <g id="_2048849183808">
   <g id="_1841408854176">
    <path id="_92653320" class="fil0" d="M-0 17.7c0,-9.78 7.98,-17.7 17.82,-17.7l194.12 0c9.84,0 17.82,7.95 17.82,17.7l0 63.34c0,9.78 -7.95,17.7 -17.82,17.7l-194.12 0c-9.84,0.03 -17.82,-7.92 -17.82,-17.7l0 -63.37 0 0.03zm7.32 0.63l0 62.14c0,6.11 4.97,11.08 11.14,11.08l101.7 0 0 -84.3 -101.7 0c-6.14,0 -11.14,4.97 -11.14,11.08zm139.12 30.77c0,3.97 -1.96,6.65 -5.18,6.65 -2.86,0 -5.24,-2.71 -5.24,-6.35 0,-3.7 2.11,-6.47 5.24,-6.47 3.31,0.03 5.18,2.89 5.18,6.17l0 -0zm-19.03 22.7l8.58 0 0 -13.49 0.09 0c1.63,2.95 4.88,4.03 7.86,4.03 7.41,0 11.32,-6.08 11.32,-13.43 0,-6.02 -3.76,-12.52 -10.63,-12.52 -3.91,0 -7.53,1.6 -9.27,5.06l-0.09 0 0 -4.49 -7.92 0 0 34.83 0.03 0 0.03 0zm39.62 -17.88c0,-2.38 2.29,-3.28 5.18,-3.28 1.29,0 2.53,0.09 3.64,0.12 0,2.89 -2.05,5.87 -5.3,5.87 -1.99,0.03 -3.52,-0.96 -3.52,-2.71l-0 -0zm17.31 7.89c-0.39,-1.96 -0.48,-3.91 -0.48,-5.87l0 -9.27c0,-7.59 -5.48,-10.3 -11.83,-10.3 -3.64,0 -6.86,0.51 -9.9,1.78l0.15 5.81c2.38,-1.35 5.15,-1.87 7.92,-1.87 3.1,0 5.63,0.9 5.69,4.31 -1.08,-0.18 -2.62,-0.33 -4,-0.33 -4.58,0 -12.83,0.9 -12.83,8.49 0,5.39 4.4,7.8 9.27,7.8 3.52,0 5.9,-1.38 7.86,-4.49l0.09 0c0,1.29 0.12,2.56 0.18,3.91l7.83 0 0 0.03 0.06 -0zm3.85 10.03c1.78,0.39 3.52,0.57 5.33,0.57 7.86,0 9.72,-6.08 12.16,-12.28l9.09 -23.12 -8.58 0 -5.12 16.2 -0.09 0 -5.33 -16.2 -9.24 0 10.06 25.41c-0.63,2.2 -2.23,3.43 -4.34,3.43 -1.2,0 -2.23,-0.15 -3.4,-0.51l-0.6 6.5 0.06 -0z"/>
    <path id="_47303032" class="fil0" d="M28.27 49.16c0,-3.4 1.66,-6.2 4.88,-6.2 3.85,0 5.48,3.1 5.48,5.87 0,3.82 -2.44,6.38 -5.48,6.38 -2.59,0 -4.88,-2.17 -4.88,-6.05zm18.64 -12.22l-7.77 0 0 4.49 -0.09 0c-1.81,-3.07 -4.79,-5.06 -8.43,-5.06 -7.74,0 -11.2,5.54 -11.2,12.92 0,7.35 4.24,12.49 11.05,12.49 3.46,0 6.29,-1.35 8.34,-4.24l0.09 0 0 1.35c0,4.85 -2.68,7.2 -7.62,7.2 -3.58,0 -5.78,-0.75 -8.4,-2.05l-0.45 6.77c1.99,0.72 5.39,1.6 9.48,1.6 10.03,0 14.96,-3.28 14.96,-13.49l0 -21.95 0 0 0.03 -0.03zm14.51 -10.36l-8.58 0 0 6.29 8.58 0 0 -6.29zm-8.58 35.19l8.58 0 0 -24.84 -8.58 0 0 24.84 0 0zm32.48 -25.14c-0.84,-0.12 -1.93,-0.27 -2.89,-0.27 -3.7,0 -5.87,1.99 -7.35,5.15l-0.09 0 0 -4.58 -7.8 0 0 24.84 8.58 0 0 -10.48c0,-4.88 2.26,-7.77 6.26,-7.77 1.02,0 1.96,0 2.89,0.27l0.42 -7.2 0 0 -0.03 0.03zm14.78 19.69c-3.97,0 -5.57,-3.28 -5.57,-6.95 0,-3.7 1.6,-7.01 5.57,-7.01 3.97,0 5.57,3.28 5.57,7.01 0,3.64 -1.63,6.95 -5.57,6.95zm0 6.02c8.19,0 14.45,-4.79 14.45,-12.98 0,-8.25 -6.26,-13.01 -14.45,-13.01 -8.19,0 -14.45,4.79 -14.45,13.01 0,8.19 6.23,12.98 14.45,12.98z"/>
   </g>
  </g>
 </g>
</svg>
