<?xml version="1.0" encoding="UTF-8"?>
<!DOCTYPE svg PUBLIC "-//W3C//DTD SVG 1.1//EN" "http://www.w3.org/Graphics/SVG/1.1/DTD/svg11.dtd">
<!-- Creator: CorelDRAW 2021 (64-Bit) -->
<svg xmlns="http://www.w3.org/2000/svg" xml:space="preserve" width="5.22752in" height="1.78675in" version="1.1" style="shape-rendering:geometricPrecision; text-rendering:geometricPrecision; image-rendering:optimizeQuality; fill-rule:evenodd; clip-rule:evenodd"
viewBox="0 0 407.64 139.33"
 xmlns:xlink="http://www.w3.org/1999/xlink"
 xmlns:xodm="http://www.corel.com/coreldraw/odm/2003">
 <defs>
  <style type="text/css">
   <![CDATA[
    .fil0 {fill:#D9C179}
   ]]>
  </style>
 </defs>
 <g id="Layer_x0020_1">
  <metadata id="CorelCorpID_0Corel-Layer"/>
  <g id="_2049058888832">
   <g id="_1419116656784">
    <g id="Page-1">
     <g id="skrill-logo-web-1-rgb">
      <path id="Fill-1" class="fil0" d="M292.8 33.44c9.22,0 16.72,-7.5 16.72,-16.72 0,-9.22 -7.5,-16.72 -16.72,-16.72 -9.22,0 -16.72,7.5 -16.72,16.72 0,9.22 7.5,16.72 16.72,16.72l0 0zm-128.18 9.02c-0.73,1.92 -6.17,17.25 -19.31,33.17l0 -68.01 -35.03 6.9 0 123.34 35.03 0 0 -38.15c10.15,15.19 15.13,38.15 15.13,38.15l41.93 0c-4.18,-17.25 -22.29,-49.03 -22.29,-49.03 16.32,-20.63 23.42,-42.66 24.62,-46.31l-40.07 0 0 0 0 -0.07zm92.09 -1.26c-31.38,1 -47.31,15.06 -47.31,43.06l0 53.61 34.24 0 0 -43.72c0,-16.72 2.19,-23.95 22.09,-24.62l0 -27.87c-3.32,-0.73 -9.02,-0.46 -9.02,-0.46l0 0zm-205.15 14.86c-4.31,-0.27 -14.2,-0.93 -14.2,-9.89 0,-10.81 14.26,-10.81 19.64,-10.81 9.42,0 21.63,2.79 30.39,5.37 0,0 4.84,1.73 9.02,3.45l0.4 0.13 0 -29.53 -0.53 -0.13c-10.28,-3.58 -22.29,-7.03 -44.45,-7.03 -38.28,0 -51.82,22.29 -51.82,41.4 0,11.01 4.71,36.89 48.5,39.88 3.72,0.2 13.6,0.8 13.6,10.02 0,7.63 -8.09,12.14 -21.63,12.14 -14.86,0 -29.33,-3.78 -38.08,-7.36l0 30.45c13.14,3.45 27.93,5.18 45.25,5.18 37.42,0 54.14,-21.1 54.14,-42 0,-23.69 -18.78,-39.08 -50.23,-41.2l0 0 0 -0.07zm224.26 81.81l33.97 0 0 -95.28 -33.97 0 0 95.28zm97.86 -124.14l0 124.14 33.97 0 0 -130.24 -33.97 6.1 0 0zm-49.56 0l33.9 -6.1 0 130.24 -33.9 0 0 -124.14 0 0z"/>
     </g>
    </g>
   </g>
  </g>
 </g>
</svg>
