<?xml version="1.0" encoding="UTF-8"?>
<!DOCTYPE svg PUBLIC "-//W3C//DTD SVG 1.1//EN" "http://www.w3.org/Graphics/SVG/1.1/DTD/svg11.dtd">
<!-- Creator: CorelDRAW 2021 (64-Bit) -->
<svg xmlns="http://www.w3.org/2000/svg" xml:space="preserve" width="10.2564in" height="1.77767in" version="1.1" style="shape-rendering:geometricPrecision; text-rendering:geometricPrecision; image-rendering:optimizeQuality; fill-rule:evenodd; clip-rule:evenodd"
viewBox="0 0 1734.18 300.57"
 xmlns:xlink="http://www.w3.org/1999/xlink"
 xmlns:xodm="http://www.corel.com/coreldraw/odm/2003">
 <defs>
  <style type="text/css">
   <![CDATA[
    .fil0 {fill:#D9C179;fill-rule:nonzero}
   ]]>
  </style>
 </defs>
 <g id="Layer_x0020_1">
  <metadata id="CorelCorpID_0Corel-Layer"/>
  <g id="_2048847384480">
   <g id="_1418815676784">
    <g id="Layer_2">
     <g id="Layer_5">
      <path class="fil0" d="M1702.53 23.6c-22.35,-15.03 -55.47,-22.69 -99.26,-22.69l-114.92 0 -42.6 231.65 -150.43 0 9.81 -52.7 90.36 0 10.72 -59.16 -90.7 0 9.81 -52.41 93.42 0 12.25 -67.73 -189.68 0 -40.44 219.69 -69.54 0 40.73 -219.69 -98.98 0 -40.44 219.69 -67.73 0 40.73 -219.69 -98.98 0 -42.88 231.65 -151.34 0 9.47 -52.7 90.98 0 10.72 -58.82 -90.98 0 9.47 -52.7 94.67 0 12.25 -68.01 -590.43 0 -33.69 184.46 -66.82 -183.55 -102.95 0 -55.13 299.67 98.07 0 33.41 -188.72 64.95 188.72 351.74 0 42.88 -231.65 55.13 0 -42.88 231.65 925.6 0 26.94 -146.17 43.51 146.17 98.36 0 -45.04 -119.51 10.1 -2.16c22.69,-4.88 40.44,-15.32 52.7,-30.97 12.25,-15.6 18.72,-36.13 18.72,-60.35 -0.28,-28.47 -10.72,-49.35 -31.88,-64.04l0.23 0.06zm-1239.39 208.97l-150.14 0 9.81 -52.7 94.39 0 10.72 -59.16 -93.42 0 8.91 -52.07 150.14 0 -30.35 163.93 -0.06 0zm1158.16 -101.14c-9.81,7.03 -24.22,10.1 -43.79,10.1l-19.63 0 15.03 -80.26 14.41 0c16.22,0 28.19,2.78 36.13,7.94 6.41,4.31 13.78,12.25 13.78,27.91 0.62,19.29 -8.28,29.44 -15.94,34.32l0 0z"/>
     </g>
    </g>
   </g>
  </g>
 </g>
</svg>
