<svg width="78" height="32" viewBox="0 0 78 32" fill="none" xmlns="http://www.w3.org/2000/svg">
<path d="M23.7309 9.23868C23.8231 9.27369 23.9206 9.26035 24.0146 9.26536C25.5537 9.34706 27.0397 9.65051 28.4671 10.2007C28.5841 10.2458 28.7012 10.2858 28.8412 10.3358C28.6781 10.3825 28.5345 10.4225 28.3909 10.4642C27.9848 10.5792 27.5787 10.6959 27.1727 10.8127C27.1283 10.826 27.0893 10.8277 27.0432 10.816C25.7931 10.4875 24.52 10.3808 23.2273 10.4542C22.1315 10.5175 21.064 10.7143 20.0338 11.0794C18.922 11.4729 17.929 12.0398 17.1151 12.8652C17.0725 12.9085 17.0335 12.9519 16.9839 13.0052C16.8225 12.56 16.6665 12.1349 16.5122 11.7114C16.4324 11.4929 16.358 11.2745 16.2728 11.0594C16.248 10.9944 16.2657 10.9711 16.3207 10.9377C17.0123 10.5159 17.7535 10.1907 18.5301 9.9373C19.4309 9.63884 20.3547 9.45043 21.2963 9.34205C21.6864 9.29704 22.0783 9.26536 22.4702 9.25368C22.4879 9.25368 22.5127 9.26369 22.5234 9.23868C22.9276 9.23868 23.3302 9.23868 23.7309 9.23868Z" fill="#FE0101"/>
<path d="M19.3176 20.7275C19.0729 20.7275 18.8371 20.7275 18.6012 20.7275C18.064 20.7275 17.5249 20.7258 16.9876 20.7292C16.9273 20.7292 16.8972 20.7175 16.8759 20.6575C16.5089 19.6337 16.1383 18.6133 15.7712 17.5896C15.7428 17.5129 15.7074 17.4929 15.624 17.4929C14.6044 17.4962 13.5849 17.4962 12.5653 17.4929C12.4908 17.4929 12.4607 17.5129 12.4376 17.5796C12.0794 18.605 11.7177 19.6304 11.3613 20.6575C11.3418 20.7158 11.3134 20.7308 11.2513 20.7308C10.5208 20.7292 9.79199 20.7292 9.06143 20.7308C8.98341 20.7308 8.96923 20.7192 8.99582 20.6475C9.89838 18.1665 10.7992 15.6854 11.6999 13.2044C12.122 12.0406 12.5458 10.8785 12.966 9.71467C12.9873 9.65631 13.0121 9.63297 13.0813 9.63297C13.7905 9.6363 14.4998 9.6363 15.2091 9.63297C15.2765 9.63297 15.3049 9.65131 15.3261 9.71133C16.6472 13.3578 17.97 17.006 19.2928 20.6525C19.2999 20.6742 19.307 20.6958 19.3176 20.7275ZM14.1044 12.7342C14.0973 12.7476 14.0902 12.7576 14.0867 12.7659C13.7728 13.703 13.4199 14.6283 13.0884 15.5604C13.0635 15.6288 13.0618 15.6521 13.154 15.6504C13.7941 15.6471 14.436 15.6471 15.0761 15.6504C15.1524 15.6504 15.1683 15.6421 15.1417 15.5671C14.7942 14.6267 14.4502 13.6846 14.1044 12.7342Z" fill="white"/>
<path d="M46.1107 15.2745C46.1107 13.4904 46.1107 11.708 46.1089 9.92396C46.1089 9.84392 46.1267 9.81558 46.2171 9.80057C47.281 9.62216 48.3556 9.54713 49.4355 9.56214C50.1891 9.57381 50.932 9.66552 51.6307 9.9473C52.7673 10.4042 53.4447 11.2128 53.6433 12.3583C53.7869 13.1886 53.6911 13.9973 53.2727 14.7543C52.9109 15.4095 52.3435 15.8647 51.6502 16.1899C51.0863 16.4533 50.487 16.5967 49.8628 16.6617C49.3894 16.7117 48.9141 16.7167 48.4389 16.6784C48.3609 16.6717 48.3769 16.7134 48.3769 16.7517C48.3769 17.9456 48.3769 19.1411 48.3769 20.3349C48.3769 20.4399 48.3733 20.5466 48.3786 20.6517C48.3822 20.7134 48.3645 20.73 48.2971 20.73C47.7563 20.7267 47.2154 20.7284 46.6746 20.7284C46.5115 20.7284 46.3501 20.725 46.187 20.73C46.1178 20.7317 46.1072 20.7117 46.1072 20.6517C46.109 19.6479 46.1089 18.6459 46.1089 17.6421C46.1107 16.8535 46.1107 16.0631 46.1107 15.2745ZM48.3786 13.1169C48.3786 13.6505 48.3804 14.184 48.3769 14.7176C48.3769 14.7726 48.3875 14.7959 48.4513 14.7959C48.5329 14.7976 48.6162 14.811 48.6978 14.8143C49.1482 14.8376 49.5951 14.831 50.0348 14.7243C50.4497 14.6225 50.8292 14.4558 51.0863 14.1207C51.4995 13.5821 51.5332 12.9852 51.3097 12.3766C51.1448 11.9248 50.76 11.6747 50.2884 11.5396C49.6766 11.3645 49.0507 11.4012 48.4247 11.4496C48.3609 11.4546 48.3769 11.4929 48.3769 11.5246C48.3786 12.0565 48.3786 12.5867 48.3786 13.1169Z" fill="white"/>
<path d="M36.5795 16.6901C36.583 15.8281 36.7675 15.0094 37.2427 14.2641C37.881 13.2637 38.8226 12.6668 40.0372 12.4567C40.9043 12.3083 41.7555 12.365 42.5765 12.6801C43.6156 13.0803 44.3319 13.7906 44.7575 14.761C45.0625 15.4596 45.1547 16.1899 45.1051 16.9385C45.0607 17.5971 44.9065 18.2274 44.5731 18.8109C43.9897 19.8364 43.0818 20.48 41.8902 20.7567C40.6898 21.0368 39.5372 20.9118 38.4786 20.2849C37.6682 19.8047 37.1434 19.1077 36.8402 18.259C36.6557 17.7538 36.5777 17.227 36.5795 16.6901ZM38.8918 16.6984C38.9006 16.9002 38.9148 17.0719 38.9467 17.242C39.0354 17.7172 39.2092 18.159 39.5603 18.5208C40.0443 19.0227 40.6419 19.2011 41.3388 19.0077C41.8512 18.8643 42.2076 18.5258 42.4364 18.0856C42.9258 17.1453 42.9116 16.1899 42.4789 15.2361C42.314 14.8727 42.0605 14.5725 41.6863 14.3791C41.0214 14.0357 39.9113 14.104 39.3439 15.0044C39.007 15.5363 38.8953 16.1182 38.8918 16.6984Z" fill="white"/>
<path d="M60.7323 12.535C60.8493 12.535 60.9522 12.535 61.055 12.535C61.7466 12.535 62.4381 12.5367 63.1297 12.5334C63.197 12.5334 63.2254 12.5517 63.2485 12.6101C63.8709 14.209 64.4933 15.808 65.1174 17.407C65.1245 17.427 65.1334 17.447 65.1511 17.4871C65.1759 17.4154 65.1919 17.362 65.2114 17.3086C65.7753 15.7397 66.3409 14.1724 66.9048 12.6034C66.9208 12.56 66.9332 12.535 66.9935 12.535C67.7701 12.5367 68.5486 12.5367 69.3252 12.5367C69.3376 12.5367 69.3483 12.5384 69.366 12.54C69.3518 12.6184 69.3128 12.6868 69.2844 12.7584C68.4102 14.9043 67.5396 17.0519 66.6601 19.1961C66.3072 20.0548 65.9207 20.8984 65.4224 21.6938C65.0908 22.2223 64.7131 22.7192 64.2149 23.121C63.6811 23.5529 63.0853 23.8847 62.3973 24.0514C62.2377 24.0898 62.0728 24.1098 61.9115 24.1431C61.8512 24.1564 61.8494 24.1181 61.8388 24.0864C61.7306 23.7529 61.6242 23.4178 61.5178 23.0843C61.4434 22.8509 61.3707 22.6175 61.2926 22.3841C61.2749 22.3307 61.282 22.3107 61.3423 22.2924C61.6331 22.209 61.9203 22.1189 62.1881 21.9822C62.8566 21.6438 63.346 21.1419 63.713 20.5266C63.7822 20.4099 63.8443 20.2915 63.9028 20.1698C63.9311 20.1131 63.9311 20.0614 63.9063 20.0031C63.5552 19.1844 63.2041 18.3657 62.8548 17.5454C62.1562 15.9031 61.4593 14.2591 60.7624 12.6167C60.7554 12.5917 60.7465 12.5684 60.7323 12.535Z" fill="white"/>
<path d="M58.6207 20.2399C58.5214 20.3016 58.4309 20.3599 58.3387 20.4116C57.7004 20.7734 57.007 20.9235 56.2641 20.8818C55.6878 20.8484 55.1558 20.6934 54.6948 20.3616C54.0919 19.9264 53.7568 19.3428 53.6805 18.6359C53.6114 17.9956 53.7408 17.392 54.1203 16.8468C54.466 16.3483 54.9519 16.0048 55.5211 15.758C56.0743 15.5163 56.6595 15.3845 57.2624 15.3078C57.6117 15.2628 57.961 15.2361 58.3121 15.2278C58.3635 15.2261 58.3742 15.2145 58.3671 15.1661C58.344 14.9961 58.2997 14.8343 58.2128 14.6843C58.032 14.3691 57.727 14.2274 57.367 14.1974C56.5389 14.1274 55.764 14.2791 55.076 14.7409C54.9874 14.801 54.8934 14.8527 54.8065 14.9144C54.7533 14.9527 54.7338 14.9427 54.7143 14.886C54.5618 14.4558 54.4058 14.0257 54.2497 13.5955C54.2143 13.4954 54.1806 13.3954 54.1415 13.297C54.1274 13.2603 54.1362 13.247 54.1681 13.2253C54.842 12.8018 55.5832 12.5501 56.3829 12.4417C57.0017 12.3583 57.6188 12.3516 58.2323 12.4767C58.876 12.6084 59.4346 12.8835 59.8654 13.3621C60.2254 13.7605 60.4293 14.2291 60.5446 14.7343C60.6261 15.0978 60.6545 15.4646 60.6545 15.8347C60.6527 16.7134 60.6545 17.5904 60.6527 18.4691C60.651 19.2028 60.69 19.9347 60.8318 20.6584C60.8442 20.7234 60.823 20.7284 60.7645 20.7284C60.096 20.7267 59.4292 20.7267 58.7607 20.7284C58.6934 20.7284 58.6756 20.7067 58.6703 20.6517C58.6561 20.5166 58.6384 20.3849 58.6207 20.2399ZM58.4185 17.5054C58.4185 17.3287 58.415 17.1819 58.4203 17.0352C58.4221 16.9735 58.4114 16.9502 58.3369 16.9535C58.1454 16.9619 57.9539 16.9719 57.7624 16.9935C57.3635 17.0369 56.9698 17.1069 56.6045 17.2753C56.3013 17.4154 56.0637 17.6105 55.9786 17.9339C55.9396 18.084 55.9378 18.2357 55.9538 18.3891C55.991 18.7559 56.2304 19.0194 56.5992 19.0744C57.0975 19.1494 57.5496 19.0444 57.938 18.7342C58.1844 18.5358 58.3618 18.2941 58.4096 17.9856C58.4345 17.8155 58.4132 17.6455 58.4185 17.5054Z" fill="white"/>
<path d="M22.1991 20.8984C21.3338 20.8918 20.4401 20.6834 19.6262 20.1982C19.5819 20.1715 19.5712 20.1515 19.5872 20.1065C19.7787 19.5479 19.9684 18.9893 20.1564 18.4291C20.1741 18.3774 20.1901 18.3724 20.2397 18.4008C20.5341 18.5625 20.8231 18.7359 21.1441 18.8526C21.598 19.016 22.0608 19.1227 22.552 19.0777C22.7329 19.061 22.9048 19.0193 23.068 18.941C23.4989 18.7326 23.4811 18.139 23.2169 17.9156C23.0325 17.7588 22.818 17.6521 22.5928 17.5587C22.2488 17.4154 21.887 17.3086 21.5519 17.1436C21.0731 16.9101 20.6369 16.625 20.3089 16.2132C19.894 15.693 19.7769 15.1061 19.9117 14.4775C20.1138 13.5271 20.754 12.9285 21.6955 12.5917C22.302 12.375 22.9332 12.3449 23.5716 12.415C24.0344 12.4667 24.4794 12.575 24.8997 12.7735C25.0681 12.8535 25.2242 12.9552 25.3838 13.0486C25.4192 13.0686 25.4246 13.0886 25.4121 13.1236C25.2189 13.6788 25.0256 14.2341 24.8341 14.7893C24.8164 14.8393 24.7986 14.826 24.7667 14.8076C24.6089 14.7142 24.4546 14.6175 24.2933 14.5308C23.8269 14.2774 23.3286 14.1473 22.786 14.1924C22.646 14.204 22.5165 14.2424 22.3924 14.3074C22.0537 14.4825 21.9792 14.9744 22.325 15.2111C22.5768 15.3845 22.8587 15.5029 23.146 15.6113C23.5858 15.778 24.0273 15.9414 24.4227 16.1932C24.9564 16.5333 25.3643 16.9685 25.538 17.5654C25.8696 18.7075 25.4263 19.9697 24.0681 20.56C23.5272 20.7934 22.9634 20.8984 22.1991 20.8984Z" fill="white"/>
<path d="M29.1942 10.6243C29.1942 11.0728 29.1942 11.5113 29.1942 11.9498C29.1942 12.1199 29.1978 12.2883 29.1925 12.4583C29.1907 12.5234 29.212 12.535 29.2776 12.535C29.9017 12.5334 30.5241 12.535 31.1483 12.5317C31.2157 12.5317 31.237 12.545 31.237 12.6117C31.2334 13.167 31.2334 13.7239 31.237 14.2791C31.237 14.3391 31.2245 14.3574 31.1554 14.3574C30.5294 14.3541 29.9017 14.3558 29.2758 14.3541C29.2173 14.3541 29.1889 14.3558 29.1889 14.4275C29.1925 15.6396 29.1907 16.8501 29.1942 18.0623C29.1942 18.254 29.2173 18.4458 29.2829 18.6292C29.3698 18.8693 29.5152 18.9627 29.7829 18.9743C30.1819 18.991 30.5614 18.9043 30.9373 18.7893C31.0561 18.7526 31.0596 18.7542 31.0667 18.8726C31.1022 19.4279 31.1359 19.9814 31.1731 20.5366C31.1767 20.58 31.1572 20.5933 31.1199 20.6067C30.5454 20.8134 29.9496 20.9168 29.3343 20.8918C28.6818 20.8651 28.0948 20.675 27.632 20.2215C27.3253 19.9197 27.1639 19.5479 27.0628 19.1477C26.9795 18.8109 26.9423 18.4691 26.9405 18.124C26.9369 16.9018 26.9387 15.678 26.9405 14.4558C26.9405 14.3825 26.9263 14.3591 26.8412 14.3591C26.4919 14.3641 26.1443 14.3591 25.795 14.3624C25.7347 14.3624 25.7152 14.3491 25.7152 14.2908C25.717 13.7289 25.717 13.1686 25.7152 12.6067C25.7152 12.5467 25.7347 12.5334 25.795 12.535C26.1408 12.5384 26.4866 12.5334 26.8323 12.5384C26.9139 12.54 26.9423 12.525 26.9405 12.4417C26.9352 12.0715 26.9387 11.703 26.9369 11.3329C26.9369 11.2879 26.944 11.2595 26.999 11.2445C27.7136 11.0444 28.4264 10.841 29.141 10.6393C29.157 10.6343 29.1712 10.6309 29.1942 10.6243Z" fill="white"/>
<path d="M34.0457 13.132C34.2355 12.9535 34.4323 12.8068 34.6522 12.6918C35.1504 12.4317 35.6806 12.3266 36.2463 12.4017C36.3828 12.42 36.5211 12.4383 36.6594 12.4517C36.7055 12.4567 36.7233 12.47 36.7233 12.5167C36.7215 13.1836 36.7215 13.8506 36.7233 14.5175C36.7233 14.5692 36.7108 14.5742 36.6576 14.5642C36.3846 14.5109 36.1133 14.4458 35.8278 14.4508C35.3242 14.4575 34.9341 14.6509 34.6486 15.0344C34.4075 15.3579 34.2993 15.7213 34.2798 16.1132C34.2603 16.485 34.2709 16.8585 34.2692 17.2303C34.2674 18.3591 34.2692 19.4862 34.2692 20.615C34.2692 20.7267 34.2692 20.7267 34.145 20.7267C33.4659 20.7267 32.785 20.7267 32.1059 20.7267C31.9871 20.7267 31.9871 20.7267 31.9871 20.6183C31.9871 18.7643 31.9871 16.9118 31.9853 15.0577C31.9853 14.2374 31.9569 13.4187 31.8948 12.6001C31.8913 12.5484 31.9002 12.5334 31.9569 12.5334C32.6219 12.535 33.2868 12.535 33.9518 12.5334C34.0032 12.5334 34.0138 12.55 34.0156 12.5951C34.0262 12.7685 34.0369 12.9419 34.0457 13.132Z" fill="white"/>
</svg>
