<svg width="107" height="32" viewBox="0 0 107 32" fill="none" xmlns="http://www.w3.org/2000/svg">
<path d="M31.3862 17.5368C30.3415 21.7273 26.0972 24.2775 21.9063 23.2325C17.7171 22.1878 15.1668 17.9433 16.2121 13.7531C17.2563 9.5621 21.5005 7.0116 25.6902 8.05634C29.8809 9.10109 32.4309 13.3461 31.3862 17.5368Z" fill="#F7931A"/>
<path d="M27.2481 14.5301C27.4038 13.4892 26.6113 12.9297 25.5277 12.5564L25.8792 11.1465L25.021 10.9326L24.6788 12.3054C24.4531 12.2492 24.2214 12.1961 23.9911 12.1436L24.3358 10.7617L23.4781 10.5479L23.1263 11.9573C22.9396 11.9148 22.7562 11.8727 22.5783 11.8285L22.5792 11.8241L21.3957 11.5285L21.1674 12.4452C21.1674 12.4452 21.8041 12.5911 21.7907 12.6002C22.1383 12.687 22.2011 12.917 22.1906 13.0993L21.7902 14.7056C21.8141 14.7117 21.8452 14.7205 21.8794 14.7342C21.8508 14.7271 21.8203 14.7192 21.7887 14.7117L21.2275 16.9618C21.1849 17.0674 21.0772 17.2258 20.8342 17.1656C20.8427 17.1781 20.2104 17.0099 20.2104 17.0099L19.7843 17.9923L20.9012 18.2707C21.1089 18.3228 21.3125 18.3773 21.513 18.4286L21.1578 19.8547L22.0151 20.0686L22.3668 18.6577C22.601 18.7212 22.8283 18.7799 23.0508 18.8352L22.7002 20.2395L23.5585 20.4534L23.9137 19.03C25.3771 19.3069 26.4776 19.1952 26.9408 17.8716C27.3141 16.8058 26.9222 16.191 26.1522 15.7902C26.713 15.6608 27.1354 15.292 27.2481 14.5301ZM25.2872 17.2798C25.0219 18.3455 23.2275 17.7694 22.6457 17.6249L23.117 15.7356C23.6988 15.8808 25.5644 16.1683 25.2872 17.2798ZM25.5526 14.5147C25.3106 15.4841 23.8171 14.9916 23.3326 14.8708L23.7599 13.1573C24.2444 13.278 25.8046 13.5034 25.5526 14.5147Z" fill="white"/>
<path d="M38.9004 12.5547C39.5347 12.5547 40.0827 12.6683 40.5432 12.8915C41.006 13.1169 41.3878 13.4205 41.6941 13.8023C41.9962 14.1861 42.2211 14.6346 42.3663 15.1487C42.5105 15.6642 42.5829 16.2184 42.5829 16.8116C42.5829 17.7229 42.4159 18.5838 42.0788 19.3954C41.7417 20.2082 41.2844 20.9131 40.7026 21.5145C40.1213 22.1151 39.4349 22.5885 38.6434 22.9383C37.8532 23.2884 36.994 23.4634 36.0714 23.4634C35.9521 23.4634 35.7424 23.46 35.4461 23.4539C35.1499 23.4478 34.8094 23.4172 34.428 23.3656C34.0443 23.3121 33.6385 23.2329 33.21 23.1268C32.7817 23.0227 32.375 22.8767 31.9919 22.6915L35.4171 8.29966L38.4848 7.82422L37.2584 12.9314C37.521 12.813 37.7854 12.7214 38.0494 12.6546C38.3137 12.5889 38.5972 12.5547 38.9004 12.5547ZM36.3271 21.0297C36.7891 21.0297 37.2245 20.9161 37.6334 20.6929C38.0436 20.4695 38.3975 20.1678 38.694 19.7921C38.9906 19.4147 39.2252 18.9896 39.3963 18.5147C39.5674 18.0397 39.654 17.5442 39.654 17.0287C39.654 16.3954 39.5481 15.9013 39.3372 15.5442C39.1262 15.1885 38.7358 15.0096 38.169 15.0096C37.9832 15.0096 37.7439 15.045 37.4471 15.1084C37.1494 15.1756 36.883 15.3152 36.6442 15.5251L35.3383 20.9488C35.4171 20.9628 35.4867 20.976 35.5461 20.9884C35.6043 21.0019 35.6686 21.0114 35.7326 21.018C35.8003 21.0256 35.8778 21.0295 35.9715 21.0295C36.0651 21.0295 36.1822 21.0297 36.3271 21.0297Z" fill="white"/>
<path d="M45.7643 23.1879H42.8342L45.3087 12.7754H48.2589L45.7643 23.1879ZM47.1902 11.5067C46.7812 11.5067 46.4104 11.385 46.0814 11.141C45.7497 10.8986 45.5854 10.5253 45.5854 10.0222C45.5854 9.74553 45.6416 9.48593 45.7531 9.241C45.8663 8.99656 46.0142 8.7861 46.1995 8.60716C46.3845 8.4297 46.5989 8.28792 46.8423 8.1811C47.0873 8.07599 47.3478 8.02344 47.6255 8.02344C48.0342 8.02344 48.4031 8.14517 48.7333 8.38912C49.0624 8.6343 49.2278 9.00756 49.2278 9.50793C49.2278 9.78562 49.1719 10.0462 49.0594 10.2906C48.9477 10.5351 48.7998 10.7455 48.6145 10.9245C48.431 11.1022 48.2146 11.2435 47.9717 11.3493C47.7265 11.4561 47.4669 11.5067 47.1902 11.5067Z" fill="white"/>
<path d="M50.8267 10.1815L53.8957 9.70605L53.1421 12.7752H56.4288L55.8353 15.1898H52.5684L51.6981 18.8319C51.618 19.1355 51.5725 19.4191 51.5598 19.6826C51.5454 19.9473 51.5789 20.1746 51.6581 20.366C51.7368 20.5579 51.8783 20.7058 52.0836 20.8104C52.288 20.9168 52.5806 20.9703 52.9644 20.9703C53.2804 20.9703 53.5884 20.9402 53.8862 20.8806C54.1822 20.8219 54.4821 20.7403 54.7857 20.6334L55.0042 22.8911C54.6082 23.0363 54.1795 23.1612 53.7175 23.2663C53.2548 23.3729 52.707 23.4242 52.0739 23.4242C51.1636 23.4242 50.4579 23.289 49.955 23.0199C49.453 22.7488 49.098 22.3785 48.8856 21.9097C48.6761 21.4425 48.5825 20.904 48.6087 20.2973C48.6358 19.6892 48.7275 19.05 48.8856 18.3768L50.8267 10.1815Z" fill="white"/>
<path d="M56.3005 19.0303C56.3005 18.1334 56.4457 17.2877 56.7359 16.4959C57.0256 15.7034 57.4428 15.0104 57.9843 14.4157C58.5237 13.8239 59.181 13.3551 59.9547 13.0109C60.7247 12.6687 61.5868 12.4961 62.537 12.4961C63.1317 12.4961 63.6629 12.5523 64.1303 12.665C64.5996 12.7787 65.0242 12.9256 65.4082 13.1099L64.3977 15.4077C64.1337 15.3006 63.8597 15.2062 63.5764 15.1207C63.2928 15.0334 62.9467 14.9914 62.5372 14.9914C61.5592 14.9914 60.786 15.3285 60.2106 16.0004C59.6374 16.6729 59.3487 17.5781 59.3487 18.7135C59.3487 19.3865 59.4939 19.9306 59.7853 20.3469C60.0752 20.7632 60.6108 20.9702 61.3883 20.9702C61.7721 20.9702 62.1425 20.9301 62.4971 20.8519C62.8545 20.7727 63.1701 20.673 63.448 20.5552L63.6668 22.9106C63.2962 23.0543 62.8875 23.1841 62.4392 23.2978C61.9899 23.4076 61.4551 23.4645 60.8349 23.4645C60.0163 23.4645 59.3233 23.3447 58.7564 23.1089C58.1893 22.8693 57.7207 22.5513 57.3516 22.1484C56.9806 21.7446 56.7141 21.2731 56.5494 20.7319C56.3846 20.1912 56.3005 19.6231 56.3005 19.0303Z" fill="white"/>
<path d="M69.3171 23.4645C68.6177 23.4645 68.0103 23.3579 67.495 23.147C66.9812 22.936 66.5556 22.64 66.219 22.2562C65.8819 21.8744 65.6297 21.4219 65.4569 20.9005C65.284 20.3794 65.2009 19.8023 65.2009 19.1699C65.2009 18.3767 65.3283 17.5837 65.5857 16.7929C65.8419 16.0004 66.222 15.2884 66.725 14.6555C67.2242 14.0217 67.8399 13.5034 68.5649 13.0994C69.2892 12.698 70.1223 12.4961 71.058 12.4961C71.7446 12.4961 72.3489 12.6029 72.8713 12.8139C73.3912 13.0243 73.8195 13.3228 74.158 13.7046C74.4929 14.0884 74.7474 14.5389 74.9185 15.061C75.0908 15.5812 75.1759 16.1598 75.1759 16.7927C75.1759 17.5835 75.0502 18.3764 74.8009 19.1696C74.5513 19.959 74.181 20.6727 73.6921 21.3071C73.2042 21.9399 72.5941 22.4579 71.8612 22.8603C71.1294 23.2626 70.2807 23.4645 69.3171 23.4645ZM70.7815 14.9916C70.3472 14.9916 69.9631 15.1177 69.6344 15.3668C69.3044 15.6189 69.0272 15.9357 68.8038 16.3177C68.5779 16.7015 68.4104 17.12 68.2973 17.5749C68.1851 18.0308 68.1301 18.4617 68.1301 18.8712C68.1301 19.5319 68.2367 20.0465 68.4461 20.4168C68.6586 20.7852 69.0401 20.9705 69.5948 20.9705C70.0306 20.9705 70.4127 20.8453 70.7434 20.5935C71.0714 20.3435 71.3489 20.0264 71.574 19.6436C71.7984 19.2618 71.9673 18.8421 72.0805 18.3865C72.1912 17.932 72.2477 17.4986 72.2477 17.0899C72.2477 16.4309 72.1416 15.9151 71.9302 15.5453C71.719 15.1769 71.3357 14.9916 70.7815 14.9916Z" fill="white"/>
<path d="M78.3686 23.1879H75.436L77.9105 12.7754H80.8622L78.3686 23.1879ZM79.7922 11.5067C79.3835 11.5067 79.013 11.385 78.6844 11.141C78.3544 10.8986 78.1887 10.5253 78.1887 10.0222C78.1887 9.74553 78.2456 9.48593 78.3574 9.241C78.4691 8.99656 78.6179 8.7861 78.8032 8.60716C78.9873 8.4297 79.2036 8.28792 79.4466 8.1811C79.6901 8.07599 79.9506 8.02344 80.2273 8.02344C80.637 8.02344 81.0071 8.14517 81.3366 8.38912C81.6664 8.6343 81.8328 9.00756 81.8328 9.50793C81.8328 9.78562 81.7737 10.0462 81.663 10.2906C81.5522 10.5351 81.4033 10.7455 81.2188 10.9245C81.033 11.1022 80.8194 11.2435 80.5759 11.3493C80.3305 11.4561 80.0704 11.5067 79.7922 11.5067Z" fill="white"/>
<path d="M82.9739 13.2492C83.1963 13.1842 83.4447 13.1059 83.7148 13.0209C83.9859 12.9358 84.2888 12.8566 84.6271 12.7852C84.9617 12.7117 85.3394 12.652 85.7547 12.6058C86.17 12.5586 86.6432 12.5356 87.169 12.5356C88.7144 12.5356 89.7796 12.9857 90.3678 13.883C90.9554 14.7804 91.0571 16.0085 90.6758 17.5651L89.3279 23.1873H86.3785L87.6848 17.6834C87.7645 17.3397 87.8271 17.0075 87.8733 16.6829C87.9199 16.3612 87.9172 16.0776 87.8627 15.8322C87.8107 15.5897 87.688 15.3912 87.4975 15.2375C87.3042 15.0862 87.0121 15.0101 86.6158 15.0101C86.2338 15.0101 85.8451 15.0512 85.4484 15.1304L83.5278 23.187H80.5771L82.9739 13.2492Z" fill="white"/>
</svg>
