<svg width="107" height="32" viewBox="0 0 107 32" fill="none" xmlns="http://www.w3.org/2000/svg">
<path fill-rule="evenodd" clip-rule="evenodd" d="M42.7732 16.6754C42.7732 16.7821 42.6665 16.8887 42.5599 16.8887H38.5421C38.6487 17.8843 39.3954 18.8087 40.4621 18.8087C41.1732 18.8087 41.7065 18.5243 42.1332 17.9554C42.1687 17.8843 42.2399 17.8487 42.311 17.8487C42.4176 17.8487 42.5243 17.9199 42.5243 18.0621C42.5243 18.0976 42.5243 18.1332 42.4887 18.1687C42.0976 18.8799 41.2799 19.2354 40.4976 19.2354C39.1465 19.2354 38.1865 18.0265 38.1865 16.711C38.1865 15.3954 39.1465 14.1865 40.4976 14.1865C41.8487 14.1865 42.7732 15.3599 42.7732 16.6754ZM42.3466 16.4621C42.2754 15.4665 41.4932 14.5421 40.4266 14.5421C39.3599 14.5421 38.6132 15.4665 38.5066 16.4621H42.3466Z" fill="white"/>
<path d="M38.5421 16.8887V16.3887H37.9856L38.0449 16.942L38.5421 16.8887ZM42.1332 17.9554L42.5332 18.2554L42.5602 18.2193L42.5804 18.179L42.1332 17.9554ZM42.4887 18.1687L42.1352 17.8152L42.0849 17.8655L42.0506 17.9278L42.4887 18.1687ZM42.3466 16.4621V16.9621H42.8835L42.8453 16.4265L42.3466 16.4621ZM38.5066 16.4621L38.0094 16.4088L37.9501 16.9621H38.5066V16.4621ZM42.2732 16.6754C42.2732 16.5661 42.3228 16.4987 42.353 16.4685C42.3831 16.4384 42.4506 16.3887 42.5599 16.3887V17.3887C42.7758 17.3887 42.9499 17.2858 43.0601 17.1756C43.1702 17.0655 43.2732 16.8914 43.2732 16.6754H42.2732ZM42.5599 16.3887H38.5421V17.3887H42.5599V16.3887ZM38.0449 16.942C38.1703 18.1118 39.0669 19.3087 40.4621 19.3087V18.3087C39.7239 18.3087 39.1272 17.6568 39.0392 16.8355L38.0449 16.942ZM40.4621 19.3087C41.34 19.3087 42.0179 18.9425 42.5332 18.2554L41.7332 17.6554C41.3951 18.1061 41.0064 18.3087 40.4621 18.3087V19.3087ZM42.5804 18.179C42.5195 18.3008 42.4015 18.3487 42.311 18.3487V17.3487C42.0782 17.3487 41.818 17.4678 41.686 17.7318L42.5804 18.179ZM42.311 18.3487C42.2578 18.3487 42.1882 18.3316 42.1255 18.2758C42.0535 18.2118 42.0243 18.1266 42.0243 18.0621H43.0243C43.0243 17.8553 42.9418 17.6635 42.7898 17.5284C42.6471 17.4015 42.4708 17.3487 42.311 17.3487V18.3487ZM42.0243 18.0621C42.0243 18.0891 42.0219 18.0456 42.0348 17.9941C42.0518 17.9259 42.0875 17.8629 42.1352 17.8152L42.8423 18.5223C43.0333 18.3313 43.0243 18.1051 43.0243 18.0621H42.0243ZM42.0506 17.9278C41.7704 18.4373 41.1508 18.7354 40.4976 18.7354V19.7354C41.4089 19.7354 42.4249 19.3224 42.9269 18.4097L42.0506 17.9278ZM40.4976 18.7354C39.4827 18.7354 38.6865 17.8145 38.6865 16.711H37.6865C37.6865 18.2385 38.8103 19.7354 40.4976 19.7354V18.7354ZM38.6865 16.711C38.6865 15.6074 39.4827 14.6865 40.4976 14.6865V13.6865C38.8103 13.6865 37.6865 15.1834 37.6865 16.711H38.6865ZM40.4976 14.6865C41.5114 14.6865 42.2732 15.5705 42.2732 16.6754H43.2732C43.2732 15.1492 42.1861 13.6865 40.4976 13.6865V14.6865ZM42.8453 16.4265C42.7596 15.2267 41.8095 14.0421 40.4266 14.0421V15.0421C41.1769 15.0421 41.7913 15.7063 41.8478 16.4977L42.8453 16.4265ZM40.4266 14.0421C39.0314 14.0421 38.1347 15.239 38.0094 16.4088L39.0037 16.5154C39.0917 15.694 39.6884 15.0421 40.4266 15.0421V14.0421ZM38.5066 16.9621H42.3466V15.9621H38.5066V16.9621Z" fill="white"/>
<path fill-rule="evenodd" clip-rule="evenodd" d="M47.6799 14.2577C47.7866 14.2577 47.8932 14.3643 47.8932 14.471C47.8932 14.5777 47.8221 14.6843 47.6799 14.6843H46.6132V18.9154C46.6132 19.0221 46.5421 19.1288 46.3999 19.1288C46.2932 19.1288 46.1866 19.0221 46.1866 18.9154V14.6488H45.1555C45.0488 14.6488 44.9421 14.5777 44.9421 14.4354C44.9421 14.3288 45.0132 14.2221 45.1555 14.2221H46.1866V12.6577C46.1866 12.551 46.2577 12.4443 46.3999 12.4443C46.5066 12.4443 46.6132 12.5154 46.6132 12.6577V14.2221H47.6799V14.2577Z" fill="white" stroke="white"/>
<path fill-rule="evenodd" clip-rule="evenodd" d="M54.2933 16.3197V18.8797C54.2933 18.9863 54.1866 19.093 54.08 19.093C53.9733 19.093 53.8666 19.0219 53.8666 18.8797V16.3197C53.8666 15.4663 53.3688 14.5774 52.4088 14.5774C51.1644 14.5774 50.6311 15.6441 50.7022 16.7819C50.7022 16.8174 50.7022 16.9241 50.7022 16.9597V18.8797C50.7022 18.9863 50.6311 19.093 50.4888 19.093C50.3822 19.093 50.2755 19.0219 50.2755 18.8797V10.4174C50.2755 10.3108 50.3466 10.2041 50.4888 10.2041C50.5955 10.2041 50.7022 10.3108 50.7022 10.4174V15.1819C51.0577 14.5774 51.6622 14.1508 52.4088 14.1508C53.6177 14.1508 54.2933 15.2174 54.2933 16.3197Z" fill="white"/>
<path d="M54.2933 16.3197V18.8797C54.2933 18.9863 54.1866 19.093 54.08 19.093C53.9733 19.093 53.8666 19.0219 53.8666 18.8797V16.3197C53.8666 15.4663 53.3688 14.5774 52.4088 14.5774C51.1644 14.5774 50.6311 15.6441 50.7022 16.7819C50.7022 16.8174 50.7022 16.9241 50.7022 16.9597V18.8797C50.7022 18.9863 50.6311 19.093 50.4888 19.093C50.3822 19.093 50.2755 19.0219 50.2755 18.8797V10.4174C50.2755 10.3108 50.3466 10.2041 50.4888 10.2041C50.5955 10.2041 50.7022 10.3108 50.7022 10.4174V15.1819C51.0577 14.5774 51.6622 14.1508 52.4088 14.1508C53.6177 14.1508 54.2933 15.2174 54.2933 16.3197" stroke="white"/>
<path fill-rule="evenodd" clip-rule="evenodd" d="M61.511 16.6752C61.511 16.7819 61.4043 16.8885 61.2976 16.8885H57.2799C57.3865 17.8841 58.1332 18.8085 59.1999 18.8085C59.911 18.8085 60.4443 18.5241 60.871 17.9552C60.9065 17.8841 60.9776 17.8485 61.0488 17.8485C61.1554 17.8485 61.2621 17.9196 61.2621 18.0619C61.2621 18.0974 61.2621 18.133 61.2265 18.1685C60.8354 18.8796 60.0176 19.2352 59.2354 19.2352C57.8843 19.2352 56.9243 18.0263 56.9243 16.7108C56.9243 15.3952 57.8843 14.1863 59.2354 14.1863C60.551 14.1508 61.511 15.3596 61.511 16.6752ZM61.0844 16.4617C61.0133 15.4662 60.231 14.5417 59.1644 14.5417C58.0977 14.5417 57.3511 15.4662 57.2444 16.4617H61.0844Z" fill="white"/>
<path d="M57.2799 16.8885V16.3885H56.7234L56.7827 16.9418L57.2799 16.8885ZM60.871 17.9552L61.271 18.2552L61.298 18.2191L61.3182 18.1788L60.871 17.9552ZM61.2265 18.1685L60.873 17.815L60.8227 17.8653L60.7884 17.9276L61.2265 18.1685ZM59.2354 14.1863V14.6865L59.2489 14.6861L59.2354 14.1863ZM61.0844 16.4617V16.9617H61.6214L61.5831 16.4261L61.0844 16.4617ZM57.2444 16.4617L56.7472 16.4085L56.688 16.9617H57.2444V16.4617ZM61.011 16.6752C61.011 16.5659 61.0606 16.4985 61.0908 16.4683C61.1209 16.4381 61.1884 16.3885 61.2976 16.3885V17.3885C61.5136 17.3885 61.6877 17.2856 61.7979 17.1754C61.908 17.0652 62.011 16.8911 62.011 16.6752H61.011ZM61.2976 16.3885H57.2799V17.3885H61.2976V16.3885ZM56.7827 16.9418C56.9081 18.1116 57.8047 19.3085 59.1999 19.3085V18.3085C58.4617 18.3085 57.865 17.6566 57.777 16.8353L56.7827 16.9418ZM59.1999 19.3085C60.0778 19.3085 60.7557 18.9422 61.271 18.2552L60.471 17.6552C60.1329 18.1059 59.7442 18.3085 59.1999 18.3085V19.3085ZM61.3182 18.1788C61.2573 18.3005 61.1393 18.3485 61.0488 18.3485V17.3485C60.816 17.3485 60.5557 17.4676 60.4238 17.7316L61.3182 18.1788ZM61.0488 18.3485C60.9956 18.3485 60.926 18.3314 60.8632 18.2756C60.7913 18.2116 60.7621 18.1264 60.7621 18.0619H61.7621C61.7621 17.8551 61.6796 17.6632 61.5276 17.5282C61.3848 17.4013 61.2086 17.3485 61.0488 17.3485V18.3485ZM60.7621 18.0619C60.7621 18.0889 60.7597 18.0454 60.7726 17.9939C60.7896 17.9257 60.8253 17.8626 60.873 17.815L61.5801 18.5221C61.7711 18.3311 61.7621 18.1048 61.7621 18.0619H60.7621ZM60.7884 17.9276C60.5082 18.4371 59.8886 18.7352 59.2354 18.7352V19.7352C60.1467 19.7352 61.1627 19.3222 61.6646 18.4095L60.7884 17.9276ZM59.2354 18.7352C58.2205 18.7352 57.4243 17.8143 57.4243 16.7108H56.4243C56.4243 18.2383 57.5481 19.7352 59.2354 19.7352V18.7352ZM57.4243 16.7108C57.4243 15.6072 58.2205 14.6863 59.2354 14.6863V13.6863C57.5481 13.6863 56.4243 15.1832 56.4243 16.7108H57.4243ZM59.2489 14.6861C60.2097 14.6602 61.011 15.5616 61.011 16.6752H62.011C62.011 15.1577 60.8922 13.6414 59.2219 13.6865L59.2489 14.6861ZM61.5831 16.4261C61.4974 15.2264 60.5473 14.0417 59.1644 14.0417V15.0417C59.9148 15.0417 60.5291 15.706 60.5857 16.4974L61.5831 16.4261ZM59.1644 14.0417C57.7692 14.0417 56.8726 15.2387 56.7472 16.4085L57.7415 16.515C57.8295 15.6937 58.4262 15.0417 59.1644 15.0417V14.0417ZM57.2444 16.9617H61.0844V15.9617H57.2444V16.9617Z" fill="white"/>
<path fill-rule="evenodd" clip-rule="evenodd" d="M66.4889 14.4351C66.4889 14.5773 66.4177 14.6484 66.3111 14.6484C65.1377 14.8262 64.6044 15.7862 64.6044 16.924V18.844C64.6044 18.9507 64.5333 19.0573 64.3911 19.0573C64.2844 19.0573 64.1777 18.9862 64.1777 18.844V14.4707C64.1777 14.364 64.2488 14.2573 64.3911 14.2573C64.4977 14.2573 64.6044 14.3284 64.6044 14.4707V15.3595C64.9244 14.7907 65.6 14.2573 66.3111 14.2573C66.3466 14.2573 66.4889 14.3284 66.4889 14.4351Z" fill="white"/>
<path d="M66.4889 14.4351C66.4889 14.5773 66.4177 14.6484 66.3111 14.6484C65.1377 14.8262 64.6044 15.7862 64.6044 16.924V18.844C64.6044 18.9507 64.5333 19.0573 64.3911 19.0573C64.2844 19.0573 64.1777 18.9862 64.1777 18.844V14.4707C64.1777 14.364 64.2488 14.2573 64.3911 14.2573C64.4977 14.2573 64.6044 14.3284 64.6044 14.4707V15.3595C64.9244 14.7907 65.6 14.2573 66.3111 14.2573C66.3466 14.2573 66.4889 14.3284 66.4889 14.4351" stroke="white"/>
<path fill-rule="evenodd" clip-rule="evenodd" d="M73.102 16.6752C73.102 16.7819 72.9954 16.8885 72.8887 16.8885H68.8709C68.9776 17.8841 69.7243 18.8085 70.7909 18.8085C71.502 18.8085 72.0354 18.5241 72.462 17.9552C72.4976 17.8841 72.5687 17.8485 72.6398 17.8485C72.7465 17.8485 72.8531 17.9196 72.8531 18.0619C72.8531 18.0974 72.8531 18.133 72.8176 18.1685C72.4265 18.8796 71.6087 19.2352 70.8265 19.2352C69.4754 19.2352 68.5154 18.0263 68.5154 16.7108C68.5154 15.3952 69.4754 14.1863 70.8265 14.1863C72.1065 14.1508 73.102 15.3596 73.102 16.6752ZM72.6754 16.4617C72.6043 15.4662 71.8221 14.5417 70.7554 14.5417C69.6888 14.5417 68.9421 15.4662 68.8354 16.4617H72.6754Z" fill="white"/>
<path d="M68.8709 16.8885V16.3885H68.3145L68.3738 16.9418L68.8709 16.8885ZM72.462 17.9552L72.862 18.2552L72.8891 18.2191L72.9093 18.1788L72.462 17.9552ZM72.8176 18.1685L72.464 17.815L72.4138 17.8653L72.3795 17.9276L72.8176 18.1685ZM70.8265 14.1863V14.6865L70.8404 14.6861L70.8265 14.1863ZM72.6754 16.4617V16.9617H73.2124L73.1742 16.4261L72.6754 16.4617ZM68.8354 16.4617L68.3383 16.4085L68.279 16.9617H68.8354V16.4617ZM72.602 16.6752C72.602 16.5659 72.6516 16.4985 72.6818 16.4683C72.712 16.4381 72.7794 16.3885 72.8887 16.3885V17.3885C73.1047 17.3885 73.2788 17.2856 73.3889 17.1754C73.4991 17.0652 73.602 16.8911 73.602 16.6752H72.602ZM72.8887 16.3885H68.8709V17.3885H72.8887V16.3885ZM68.3738 16.9418C68.4991 18.1116 69.3958 19.3085 70.7909 19.3085V18.3085C70.0528 18.3085 69.4561 17.6566 69.3681 16.8353L68.3738 16.9418ZM70.7909 19.3085C71.6689 19.3085 72.3468 18.9422 72.862 18.2552L72.062 17.6552C71.724 18.1059 71.3352 18.3085 70.7909 18.3085V19.3085ZM72.9093 18.1788C72.8484 18.3005 72.7304 18.3485 72.6398 18.3485V17.3485C72.407 17.3485 72.1468 17.4676 72.0148 17.7316L72.9093 18.1788ZM72.6398 18.3485C72.5866 18.3485 72.5171 18.3314 72.4543 18.2756C72.3823 18.2116 72.3531 18.1264 72.3531 18.0619H73.3531C73.3531 17.8551 73.2706 17.6632 73.1187 17.5282C72.9759 17.4013 72.7997 17.3485 72.6398 17.3485V18.3485ZM72.3531 18.0619C72.3531 18.0889 72.3508 18.0454 72.3636 17.9939C72.3807 17.9257 72.4164 17.8626 72.464 17.815L73.1711 18.5221C73.3622 18.3311 73.3531 18.1048 73.3531 18.0619H72.3531ZM72.3795 17.9276C72.0993 18.4371 71.4797 18.7352 70.8265 18.7352V19.7352C71.7377 19.7352 72.7537 19.3222 73.2557 18.4095L72.3795 17.9276ZM70.8265 18.7352C69.8116 18.7352 69.0154 17.8143 69.0154 16.7108H68.0154C68.0154 18.2383 69.1392 19.7352 70.8265 19.7352V18.7352ZM69.0154 16.7108C69.0154 15.6072 69.8116 14.6863 70.8265 14.6863V13.6863C69.1392 13.6863 68.0154 15.1832 68.0154 16.7108H69.0154ZM70.8404 14.6861C71.7699 14.6603 72.602 15.5669 72.602 16.6752H73.602C73.602 15.1524 72.4431 13.6412 70.8126 13.6865L70.8404 14.6861ZM73.1742 16.4261C73.0885 15.2264 72.1384 14.0417 70.7554 14.0417V15.0417C71.5058 15.0417 72.1202 15.706 72.1767 16.4974L73.1742 16.4261ZM70.7554 14.0417C69.3603 14.0417 68.4636 15.2387 68.3383 16.4085L69.3326 16.515C69.4206 15.6937 70.0173 15.0417 70.7554 15.0417V14.0417ZM68.8354 16.9617H72.6754V15.9617H68.8354V16.9617Z" fill="white"/>
<path fill-rule="evenodd" clip-rule="evenodd" d="M79.6089 14.4706V15.8572V18.8795C79.6089 18.9861 79.5022 19.0928 79.3956 19.0928C79.2889 19.0928 79.1822 19.0217 79.1822 18.8795V18.0261C78.8622 18.7017 78.2578 19.1639 77.5111 19.1639C76.3022 19.1639 75.6622 18.1328 75.6622 17.0306V14.435C75.6622 14.3283 75.7333 14.2217 75.8756 14.2217C75.9822 14.2217 76.0889 14.3283 76.0889 14.435V17.0661C76.0889 17.9195 76.5867 18.8083 77.5467 18.8083C78.8978 18.8083 79.2178 17.5283 79.2178 16.1417V14.5061C79.2178 14.3995 79.2889 14.2928 79.4311 14.2928C79.5022 14.2928 79.6089 14.3639 79.6089 14.4706Z" fill="white"/>
<path d="M79.6089 14.4706V15.8572V18.8795C79.6089 18.9861 79.5022 19.0928 79.3956 19.0928C79.2889 19.0928 79.1822 19.0217 79.1822 18.8795V18.0261C78.8622 18.7017 78.2578 19.1639 77.5111 19.1639C76.3022 19.1639 75.6622 18.1328 75.6622 17.0306V14.435C75.6622 14.3283 75.7333 14.2217 75.8756 14.2217C75.9822 14.2217 76.0889 14.3283 76.0889 14.435V17.0661C76.0889 17.9195 76.5867 18.8083 77.5467 18.8083C78.8978 18.8083 79.2178 17.5283 79.2178 16.1417V14.5061C79.2178 14.3995 79.2889 14.2928 79.4311 14.2928C79.5022 14.2928 79.6089 14.3639 79.6089 14.4706" stroke="white"/>
<path fill-rule="evenodd" clip-rule="evenodd" d="M89.8133 16.2842V18.8798C89.8133 18.9864 89.7067 19.0931 89.6 19.0931C89.4933 19.0931 89.3867 19.022 89.3867 18.8798V16.2842C89.3867 15.4309 88.8889 14.5776 87.9289 14.5776C86.72 14.5776 86.2578 15.8931 86.2578 16.8887V18.8798C86.2578 18.9864 86.1511 19.0931 86.0444 19.0931C85.9378 19.0931 85.8311 19.022 85.8311 18.8798V16.2842C85.8311 15.4309 85.3333 14.5776 84.3733 14.5776C83.1289 14.5776 82.6311 15.5376 82.6667 16.8176C82.6667 16.8531 82.6667 16.8887 82.6667 16.9242V18.8798C82.6667 18.9864 82.5955 19.0931 82.4533 19.0931C82.3467 19.0931 82.24 19.022 82.24 18.8798V14.4709C82.24 14.3642 82.3111 14.2576 82.4533 14.2576C82.56 14.2576 82.6667 14.3287 82.6667 14.4709V15.2176C83.0222 14.6131 83.6267 14.1864 84.3733 14.1864C85.1911 14.1864 85.8311 14.7198 86.08 15.4664C86.4 14.7198 87.0755 14.1864 87.8933 14.1864C89.1378 14.1509 89.8133 15.182 89.8133 16.2842Z" fill="white"/>
<path d="M89.8133 16.2842V18.8798C89.8133 18.9864 89.7067 19.0931 89.6 19.0931C89.4933 19.0931 89.3867 19.022 89.3867 18.8798V16.2842C89.3867 15.4309 88.8889 14.5776 87.9289 14.5776C86.72 14.5776 86.2578 15.8931 86.2578 16.8887V18.8798C86.2578 18.9864 86.1511 19.0931 86.0444 19.0931C85.9378 19.0931 85.8311 19.022 85.8311 18.8798V16.2842C85.8311 15.4309 85.3333 14.5776 84.3733 14.5776C83.1289 14.5776 82.6311 15.5376 82.6667 16.8176C82.6667 16.8531 82.6667 16.8887 82.6667 16.9242V18.8798C82.6667 18.9864 82.5955 19.0931 82.4533 19.0931C82.3467 19.0931 82.24 19.022 82.24 18.8798V14.4709C82.24 14.3642 82.3111 14.2576 82.4533 14.2576C82.56 14.2576 82.6667 14.3287 82.6667 14.4709V15.2176C83.0222 14.6131 83.6267 14.1864 84.3733 14.1864C85.1911 14.1864 85.8311 14.7198 86.08 15.4664C86.4 14.7198 87.0755 14.1864 87.8933 14.1864C89.1378 14.1509 89.8133 15.182 89.8133 16.2842" stroke="white"/>
<g opacity="0.9">
<path opacity="0.5" fill-rule="evenodd" clip-rule="evenodd" d="M17.0667 17.5645L25.7778 29.8667V22.72L17.0667 17.5645Z" fill="white"/>
<path fill-rule="evenodd" clip-rule="evenodd" d="M17.0667 15.893L25.7778 21.0841V11.9463L17.0667 15.893Z" fill="white" fill-opacity="0.8"/>
<path opacity="0.5" fill-rule="evenodd" clip-rule="evenodd" d="M17.0667 15.893L25.7778 11.9463V1.42188L17.0667 15.893Z" fill="white"/>
<path opacity="0.75" fill-rule="evenodd" clip-rule="evenodd" d="M34.5245 17.5645L25.7778 29.8667V22.72L34.5245 17.5645Z" fill="white"/>
<path fill-rule="evenodd" clip-rule="evenodd" d="M34.5244 15.893L25.7777 21.0841V11.9463L34.5244 15.893Z" fill="white" fill-opacity="0.9"/>
<path opacity="0.75" fill-rule="evenodd" clip-rule="evenodd" d="M34.5244 15.893L25.7777 11.9463V1.42188L34.5244 15.893Z" fill="white"/>
</g>
</svg>
