<?xml version="1.0" encoding="UTF-8"?>
<!DOCTYPE svg PUBLIC "-//W3C//DTD SVG 1.1//EN" "http://www.w3.org/Graphics/SVG/1.1/DTD/svg11.dtd">
<!-- Creator: CorelDRAW 2021 (64-Bit) -->
<svg xmlns="http://www.w3.org/2000/svg" xml:space="preserve" width="12.8308in" height="12.3446in" version="1.1" style="shape-rendering:geometricPrecision; text-rendering:geometricPrecision; image-rendering:optimizeQuality; fill-rule:evenodd; clip-rule:evenodd"
viewBox="0 0 670.77 645.35"
 xmlns:xlink="http://www.w3.org/1999/xlink"
 xmlns:xodm="http://www.corel.com/coreldraw/odm/2003">
 <defs>
  <style type="text/css">
   <![CDATA[
    .fil0 {fill:#D9C179}
   ]]>
  </style>
 </defs>
 <g id="Layer_x0020_1">
  <metadata id="CorelCorpID_0Corel-Layer"/>
  <path class="fil0" d="M599.29 526.64c-59.05,72.44 -148.98,118.71 -249.72,118.71 -177.74,0 -321.85,-144 -322.04,-321.7l57.39 -12.12c-0.21,3.9 -0.32,7.82 -0.32,11.77 0,121.72 100.85,220.39 225.25,220.39 75.3,0 141.96,-36.16 182.86,-91.69l-66.03 -46.24 213.45 -45.06 30.66 215.99 -71.48 -50.05zm-527.8 -407.92c59.05,-72.44 148.98,-118.71 249.72,-118.71 177.74,0 321.85,144 322.04,321.7l-57.39 12.12c0.21,-3.9 0.32,-7.82 0.32,-11.77 0,-121.72 -100.85,-220.39 -225.25,-220.39 -75.3,0 -141.96,36.16 -182.86,91.69l66.03 46.24 -213.45 45.06 -30.66 -215.99 71.48 50.05z"/>
 </g>
</svg>
