<svg width="108" height="32" viewBox="0 0 108 32" fill="none" xmlns="http://www.w3.org/2000/svg">
<path opacity="0.3" d="M19.1546 5.68896C21.1237 5.68875 23.0486 6.27244 24.6859 7.36624C26.3233 8.46004 27.5995 10.0148 28.3532 11.8339C29.1068 13.653 29.3042 15.6548 28.9201 17.5861C28.5361 19.5173 27.588 21.2913 26.1958 22.6838C24.8035 24.0762 23.0296 25.0245 21.0984 25.4087C19.1672 25.7929 17.1654 25.5958 15.3462 24.8424C13.527 24.0889 11.9721 22.8129 10.8781 21.1756C9.78411 19.5384 9.2002 17.6136 9.2002 15.6445C9.2002 13.0043 10.2489 10.4723 12.1157 8.60527C13.9825 6.73827 16.5145 5.68926 19.1546 5.68896ZM17.5764 9.52135L16.0281 15.3726L14.9615 15.7855L14.4488 17.7056L15.5154 17.3027L14.6275 20.65H24.1502L24.8039 18.1662H19.0736L19.7273 15.7322L20.7728 15.3393L21.2856 13.4192L20.239 13.8221L21.3755 9.51802H17.5764V9.52135Z" fill="white"/>
<path d="M33.4275 21.7234L36.0324 9.28613H38.5851L36.4219 19.6401H42.7482L42.3153 21.7189L33.4275 21.7234Z" fill="white"/>
<path d="M45.8437 12.7134H48.2743L46.3875 21.7234H43.9569L45.8437 12.7134ZM46.5562 9.28613H48.9913L48.5329 11.4914H46.0934L46.5562 9.28613Z" fill="white"/>
<path d="M49.3953 14.5203L49.7682 12.7134H50.9557L51.2532 11.2705L54.0445 9.59131L53.3908 12.7134H54.8758L54.5007 14.5203H53.0079L52.2188 18.2938C52.0782 18.979 52.0075 19.3693 52.0068 19.4647C52.0026 19.5463 52.0164 19.6278 52.0473 19.7033C52.0782 19.7789 52.1254 19.8468 52.1855 19.902C52.3042 20.0063 52.5184 20.0585 52.8303 20.0585C52.9413 20.0585 53.2066 20.0396 53.6361 19.9997L53.2543 21.8066C52.8297 21.8919 52.3977 21.9346 51.9646 21.9342C51.1048 21.9342 50.48 21.7685 50.09 21.437C49.7001 21.1055 49.5055 20.6464 49.5063 20.0596C49.5063 19.7829 49.6109 19.144 49.8203 18.1429L50.5751 14.5203H49.3953Z" fill="white"/>
<path d="M63.3407 17.9751H57.2364C57.2364 18.0716 57.2276 18.1449 57.2276 18.1971C57.2276 18.7964 57.3989 19.2799 57.7414 19.6477C57.8979 19.8245 58.0906 19.9656 58.3064 20.0614C58.5222 20.1571 58.7562 20.2053 58.9923 20.2026C59.801 20.2026 60.4299 19.7838 60.879 18.9462L63.0611 19.3069C62.6371 20.1837 62.0703 20.8411 61.3607 21.2792C60.6428 21.72 59.8146 21.9482 58.9723 21.9373C57.761 21.9373 56.777 21.5541 56.02 20.7875C55.2631 20.021 54.8843 19.0073 54.8835 17.7465C54.8664 16.568 55.2256 15.4148 55.909 14.4546C56.8428 13.1538 58.1747 12.5034 59.9046 12.5034C61.0063 12.5034 61.8827 12.8441 62.5339 13.5256C63.185 14.2071 63.5102 15.1616 63.5094 16.3891C63.5158 16.9225 63.4592 17.4549 63.3407 17.9751ZM61.2886 16.4879C61.2941 16.3769 61.2964 16.2992 61.2964 16.2426C61.2964 15.5767 61.1465 15.0761 60.8469 14.7409C60.6951 14.5744 60.5085 14.4432 60.3004 14.3567C60.0923 14.2702 59.8678 14.2305 59.6427 14.2404C59.3907 14.2413 59.1413 14.2919 58.9089 14.3894C58.6766 14.4869 58.4658 14.6294 58.2886 14.8086C57.8898 15.1867 57.6201 15.7465 57.4795 16.4879H61.2886Z" fill="white"/>
<path d="M70.3408 18.3293L72.7026 18.7111C72.3134 19.7633 71.7366 20.5635 70.9723 21.1118C70.198 21.6636 69.267 21.9523 68.3163 21.9353C67.1687 21.9353 66.2583 21.5931 65.585 20.9086C64.9116 20.2242 64.5764 19.2834 64.5794 18.0862C64.5752 17.1275 64.784 16.1797 65.1909 15.3116C65.584 14.4562 66.2257 13.7392 67.0322 13.2539C67.8431 12.7559 68.7777 12.496 69.7292 12.5036C70.7925 12.5036 71.6408 12.7807 72.2742 13.3349C72.9075 13.8891 73.2642 14.6186 73.3441 15.5235L71.0278 15.7699C70.9715 15.2661 70.8173 14.8961 70.5649 14.6601C70.2955 14.4157 69.9405 14.2877 69.5772 14.3038C69.0899 14.3101 68.622 14.4959 68.2631 14.8254C67.8561 15.1762 67.5435 15.7008 67.3252 16.3992C67.118 17.0339 67.008 17.6962 66.9989 18.3637C66.9989 18.8957 67.1292 19.3056 67.3896 19.5934C67.5105 19.7327 67.6606 19.8437 67.8292 19.9185C67.9978 19.9933 68.1808 20.0301 68.3652 20.0263C68.7784 20.0174 69.1761 19.8679 69.4928 19.6023C69.8569 19.3197 70.1395 18.8953 70.3408 18.3293Z" fill="white"/>
<path d="M74.2563 17.9819C74.2563 16.3127 74.7269 14.9808 75.6681 13.9864C76.6093 12.9919 77.8464 12.4958 79.3795 12.4981C80.7113 12.4981 81.7494 12.8639 82.4938 13.5957C83.2382 14.3275 83.6114 15.3131 83.6137 16.5524C83.6386 17.9449 83.139 19.2958 82.2141 20.3371C81.2744 21.4026 80.0229 21.9353 78.4594 21.9353C77.6772 21.9506 76.9029 21.7758 76.203 21.4259C75.5735 21.1121 75.0594 20.607 74.7347 19.983C74.4155 19.3646 74.2514 18.6779 74.2563 17.9819ZM81.1953 16.2428C81.1953 15.6656 81.0269 15.2032 80.6903 14.8554C80.5218 14.6823 80.3189 14.5464 80.0946 14.4566C79.8704 14.3667 79.6298 14.3249 79.3884 14.3338C78.8793 14.3278 78.3841 14.5001 77.9888 14.821C77.5782 15.1481 77.2589 15.6205 77.031 16.2383C76.8189 16.7839 76.7039 17.3623 76.6914 17.9475C76.6914 18.5927 76.8668 19.1048 77.2175 19.4836C77.3841 19.6679 77.5886 19.8141 77.8169 19.9122C78.0452 20.0102 78.292 20.0579 78.5404 20.0518C79.2064 20.0518 79.7665 19.7662 80.2208 19.195C80.8682 18.3856 81.1916 17.4015 81.1908 16.2428H81.1953Z" fill="white"/>
<path d="M86.3918 12.7134H88.8268L86.94 21.7234H84.5083L86.3918 12.7134ZM87.1043 9.28613H89.5394L89.081 11.4914H86.6459L87.1043 9.28613Z" fill="white"/>
<path d="M91.2528 12.7135H93.5603L93.3228 13.8833C93.8039 13.4481 94.3489 13.0892 94.9387 12.8189C95.4394 12.6071 95.9778 12.4991 96.5214 12.5015C97.2613 12.5015 97.8451 12.7135 98.2728 13.1375C98.7005 13.5614 98.9139 14.1241 98.9132 14.8256C98.9132 15.1415 98.82 15.7412 98.6335 16.6247L97.5736 21.7234H95.1385L96.2073 16.6069C96.3664 15.8433 96.4456 15.3883 96.4448 15.2418C96.4521 15.1069 96.4314 14.9721 96.384 14.8456C96.3367 14.7192 96.2637 14.6039 96.1696 14.507C96.0654 14.4143 95.9439 14.3431 95.8121 14.2974C95.6803 14.2517 95.5408 14.2324 95.4016 14.2407C95.0449 14.2407 94.6491 14.3905 94.214 14.6902C93.7762 14.9921 93.4228 15.4009 93.1874 15.8777C93.0061 16.2285 92.8022 16.944 92.5758 18.0242L91.8044 21.7234H89.3694L91.2528 12.7135Z" fill="white"/>
</svg>
