<svg width="107" height="32" viewBox="0 0 107 32" fill="none" xmlns="http://www.w3.org/2000/svg">
<path d="M90.6974 24.0103V23.1331H91.2941C92.0149 23.1331 92.2082 22.904 92.4708 21.7977C92.6641 20.9551 92.6295 20.868 91.2416 17.0038C90.4516 14.8449 89.8202 12.9664 89.8202 12.8256C89.8202 12.668 90.0828 12.5976 90.7499 12.5976H91.6629L92.6462 15.5477L93.6296 18.48L94.5783 15.5824L95.5259 12.6859L96.4568 12.6323C97.2468 12.5798 97.3698 12.6155 97.3698 12.9139C97.3698 13.0893 96.5451 15.6003 95.5617 18.4967C93.4195 24.6774 93.2787 24.8886 91.6808 24.8886H90.6974V24.0103ZM14.4766 21.2904C13.5278 20.7808 13.4228 19.4108 14.2654 18.7426C14.7917 18.3224 15.3895 18.3045 16.0566 18.6554C16.6355 18.937 16.7763 19.2354 16.7763 20.06C16.7763 20.4992 16.6355 20.7629 16.2321 21.0959C15.6354 21.6055 15.1604 21.658 14.4766 21.2892V21.2904ZM43.1148 15.4069V9.24414L44.115 9.29666L45.1162 9.34918L46.6616 13.0368C47.5221 15.0549 48.2417 16.7412 48.2753 16.7758C48.311 16.7926 49.0307 15.1253 49.8911 13.0536L51.4544 9.26202H53.4737V21.553H51.3673L51.3483 18.005V14.4403L50.1716 17.3904L48.9949 20.3405L48.311 20.2869L47.6439 20.2344L46.4672 17.4608L45.3084 14.6683L45.2559 18.1101L45.2201 21.5518H43.1148V15.4058V15.4069ZM55.4047 17.0753V12.5965H57.3367V21.5507H55.4058V17.0753H55.4047ZM59.2677 15.4069V9.2609H66.1155V11.193H61.287V14.5286H66.1155V16.2853H61.3741V21.553H59.2677V15.4069ZM68.2219 17.0753V12.5965H69.9786V21.5507H68.2219V17.0753ZM72.0861 17.0753V12.5965H73.0695C74.0171 12.5965 74.0528 12.6144 73.9824 13.0178L73.893 13.4212L74.5266 12.9999C75.3513 12.439 76.8085 12.4915 77.6868 13.1228C78.7573 13.8782 78.9328 14.5454 78.9328 18.2676V21.5507H77.0197L76.9672 18.3727C76.9146 15.2829 76.8968 15.1946 76.4922 14.8616C75.9134 14.3878 74.9837 14.4225 74.4562 14.9667C74.0171 15.3879 74.0171 15.4405 74.0171 18.4788V21.5518H72.0861V17.0742V17.0753ZM80.8649 17.0753V12.5965H82.7958V21.5507H80.8649V17.0753ZM86.641 21.1484C85.7448 20.5517 85.5873 19.8142 85.6398 16.7769C85.6923 14.1777 85.6923 14.1777 85.3068 14.1777C84.938 14.1777 84.9023 14.0906 84.9023 13.3877C84.9023 12.7206 84.9548 12.5976 85.2542 12.5976C85.5873 12.5976 85.6051 12.4747 85.6051 10.9293V9.26202H87.5361V12.5965H88.1507C88.7653 12.5965 88.7653 12.5965 88.7653 13.3866C88.7653 14.1766 88.7653 14.1766 88.1507 14.1766H87.5182L87.5719 16.863L87.6244 19.5326L88.2032 19.5851C88.7653 19.6376 88.7653 19.6555 88.7653 20.6031V21.5507H87.9931C87.5123 21.555 87.0413 21.4148 86.641 21.1484ZM30.7881 20.5864C30.6127 20.2008 30.6306 20.0779 30.9636 19.7617C31.2798 19.4276 31.4027 19.4108 31.7894 19.5862C32.0698 19.727 32.2285 19.9371 32.2285 20.2008C32.2285 21.078 31.1401 21.3596 30.7881 20.5864ZM29.0683 20.5864C28.6113 20.0254 29.2963 19.165 29.9109 19.5516C30.5076 19.9371 30.2964 20.8501 29.5947 20.8501C29.4192 20.8501 29.1913 20.7272 29.0683 20.5875V20.5864ZM32.7906 20.4634C32.6677 20.3405 32.5794 20.0947 32.5794 19.8846C32.5794 19.375 32.9135 19.0946 33.4924 19.0946C34.1249 19.0946 34.4757 19.727 34.1774 20.3059C33.9494 20.7104 33.1415 20.8154 32.7906 20.4646V20.4634ZM17.6904 20.0947C17.0054 19.3572 17.2333 18.2509 18.1642 17.8653C19.2347 17.4262 20.3767 18.5671 19.9376 19.6388C19.5331 20.5864 18.3575 20.8143 17.6904 20.0947ZM11.6673 20.1126C11.3879 20.0254 11.1063 19.727 10.9834 19.4276C10.7901 18.9716 10.8079 18.8308 11.1063 18.4274C11.8259 17.4441 13.2663 17.8475 13.2663 19.0063C13.2663 19.8667 12.4931 20.3942 11.6684 20.1126H11.6673ZM27.5933 19.8667C27.2245 19.498 27.2413 19.3404 27.6805 19.0242C28.1375 18.7079 28.4884 18.8308 28.6459 19.3225C28.7163 19.5684 28.6638 19.7617 28.4359 19.9192C28.0313 20.2176 27.9263 20.2008 27.5933 19.8667ZM34.5461 19.2342C34.4232 19.1113 34.3349 18.8655 34.3349 18.6554C34.3349 18.1637 34.6691 17.8653 35.2133 17.8653C35.7575 17.8653 36.0916 18.1637 36.0916 18.6554C36.0916 19.1471 35.7575 19.4454 35.2133 19.4454C34.9674 19.4454 34.6691 19.3572 34.5461 19.2342ZM26.2054 19.1638C26.0121 18.9716 26.0646 18.2509 26.2579 18.128C26.363 18.0754 26.5921 18.0754 26.8021 18.128C27.2938 18.2866 27.2055 19.1638 26.6971 19.2342C26.4859 19.27 26.2758 19.2342 26.2054 19.1638ZM20.4807 18.0933C20.0594 17.567 20.1298 17.0753 20.674 16.6004C21.1657 16.1623 21.7278 16.2149 22.1837 16.6887C22.6586 17.1982 22.6754 17.7592 22.2194 18.2162C22.1044 18.3366 21.9643 18.4301 21.8091 18.4901C21.6538 18.5501 21.4872 18.5751 21.3212 18.5634C21.1551 18.5516 20.9937 18.5034 20.8484 18.4222C20.7032 18.3409 20.5776 18.2286 20.4807 18.0933ZM9.87597 17.4966C9.49045 17.2675 9.47257 16.2316 9.85921 15.8629C10.228 15.4773 10.9119 15.512 11.3343 15.9333C12.264 16.8641 11.0527 18.1805 9.87597 17.4966ZM35.9497 17.4798C35.7742 17.2507 35.6859 16.882 35.7206 16.5132C35.7206 16.3903 35.9329 16.1623 36.1776 16.0037C36.581 15.7411 36.6514 15.7411 37.056 16.0037C37.5298 16.3199 37.6527 17.1099 37.2839 17.4787C37.0023 17.7603 36.1776 17.7424 35.9497 17.4787V17.4798ZM23.0464 16.1445C22.9031 15.9924 22.8079 15.8015 22.7725 15.5956C22.7371 15.3898 22.7632 15.178 22.8475 14.9869C22.9318 14.7958 23.0706 14.6337 23.2465 14.521C23.4223 14.4083 23.6275 14.3499 23.8364 14.3532C24.7304 14.3532 25.2053 15.5645 24.5382 16.1623C24.1169 16.5479 23.3972 16.5311 23.0464 16.1445ZM35.9161 14.8806C35.2311 14.1956 35.6703 13.1251 36.6704 13.1251C37.2504 13.1251 37.6717 13.5464 37.6717 14.161C37.6717 15.1265 36.6 15.5656 35.9161 14.8806ZM9.84021 14.4593C9.63013 14.1431 9.61225 13.9319 9.73517 13.5989C10.0682 12.7206 11.3857 12.8256 11.6136 13.7564C11.8595 14.7398 10.4023 15.3198 9.84021 14.4593ZM25.0466 13.8972C24.8354 13.6335 24.6778 13.3173 24.6778 13.1776C24.6778 12.8088 25.4858 12.0713 25.9071 12.0713C26.4155 12.0713 26.9597 12.6859 26.9597 13.2648C26.9597 14.3185 25.6959 14.7219 25.0466 13.8972ZM21.4115 13.4056C21.2361 12.9496 21.4819 12.563 21.9032 12.6334C22.2016 12.668 22.3077 12.8088 22.3077 13.1251C22.3077 13.4413 22.2016 13.581 21.9032 13.6168C21.6752 13.6514 21.464 13.5642 21.4115 13.4056ZM11.3857 12.6859C10.9119 12.2814 10.9119 12.2468 11.1577 11.773C11.6673 10.86 12.9132 11.0701 12.9132 12.0713C12.9132 12.9485 12.0707 13.3005 11.3857 12.6859ZM20.2181 12.4926C19.8493 12.1417 19.8672 12.0188 20.2706 11.65C20.6572 11.298 21.1143 11.4388 21.2718 11.9484C21.3422 12.1942 21.2897 12.3876 21.0617 12.5451C20.6572 12.8435 20.5522 12.8256 20.2181 12.4926ZM27.6805 12.3172C27.1888 11.7026 27.2234 11.1047 27.7509 10.5784C29.0147 9.29666 30.8239 11.1047 29.6293 12.4747C29.208 12.9664 28.1196 12.8781 27.6805 12.316V12.3172ZM34.2824 12.458C33.6857 11.7897 34.0008 10.6845 34.8613 10.4029C35.2133 10.2979 35.8971 10.5616 36.1262 10.9125C36.3721 11.2813 36.2659 12.1942 35.9508 12.4747C35.5116 12.8614 34.6333 12.8435 34.2824 12.458ZM31.4374 11.8601C30.5769 11.3684 30.4015 10.4912 31.0161 9.71794C31.2966 9.36706 31.5256 9.26202 32.0698 9.26202C32.9828 9.26202 33.4566 9.73582 33.4566 10.6477C33.4566 11.754 32.3861 12.4043 31.4374 11.8601ZM18.8134 11.6322C18.6559 11.4746 18.5329 11.2813 18.5329 11.193C18.5329 10.9304 19.0939 10.4733 19.3755 10.5259C19.7968 10.6141 20.0605 11.1405 19.8314 11.5092C19.5688 11.9138 19.1643 11.9663 18.8145 11.6322H18.8134ZM13.4049 11.526C13.0361 11.3159 12.9836 10.4901 13.2999 10.1739C13.5636 9.91126 14.1961 9.91126 14.4587 10.1739C14.5816 10.2968 14.6699 10.613 14.6699 10.8768C14.6699 11.2455 14.5648 11.421 14.2128 11.5439C13.6865 11.7551 13.7737 11.7551 13.4049 11.526ZM55.6851 11.1751C54.8068 10.4733 55.2639 9.26202 56.4227 9.26202C57.0026 9.26202 57.5111 9.77046 57.5111 10.3683C57.5111 10.7371 56.7568 11.5439 56.4048 11.5439C56.2651 11.5439 55.9489 11.3863 55.6851 11.1751ZM68.6097 11.3673C67.7492 11.0176 67.766 9.55926 68.6622 9.3313C69.6981 9.06758 70.4881 9.85874 70.1372 10.8064C70.0311 11.1047 69.2768 11.6143 69.0477 11.526C68.8996 11.4796 68.7534 11.427 68.6097 11.3684V11.3673ZM81.3733 11.298C80.3195 10.7717 80.6537 9.26202 81.8292 9.26202C82.55 9.26202 82.9713 9.64754 82.9713 10.2979C82.9713 11.1047 82.093 11.6668 81.3733 11.298ZM15.3012 10.86C14.8978 10.4208 15.0733 9.8241 15.6521 9.6833C15.898 9.6129 16.1963 9.66542 16.3371 9.78834C16.7059 10.1046 16.6712 10.7896 16.2667 11.0176C15.7929 11.2634 15.6521 11.2455 15.3012 10.86ZM17.0221 10.9472C16.812 10.4029 17.0221 10.0521 17.5485 10.0521C18.1809 10.0521 18.5318 10.508 18.1988 10.9125C17.9005 11.2634 17.145 11.2813 17.0221 10.9472Z" fill="white"/>
</svg>
