<svg width="107" height="32" viewBox="0 0 107 32" fill="none" xmlns="http://www.w3.org/2000/svg">
<path d="M16.3555 23.9075V10.05C16.3555 8.79586 17.3391 7.88597 18.6671 7.88597C19.995 7.88597 20.7697 8.40239 21.3599 9.54591L24.8396 16.4685H24.8888V8.14418H28.7866V21.8664C28.7866 23.305 27.7046 24.1657 26.7209 24.1657C25.7126 24.1657 24.9749 23.6985 23.942 21.6942L20.3147 14.6733H20.2656V23.8952H16.3555V23.9075ZM35.869 19.5793L34.4058 17.2431L37.5413 15.1528C36.9633 14.784 36.5084 14.7348 36.0658 14.7348C34.4919 14.7348 33.6312 16.3701 33.6312 17.7718C33.6312 19.2351 34.664 20.7597 36.2133 20.7597C37.6519 20.7597 39.0536 19.4687 39.6316 18.1038L42.3735 19.5425C41.2792 22.223 38.8323 24.1657 35.9428 24.1657C32.7459 24.1657 29.9424 21.3622 29.9424 17.9686C29.9424 14.5626 32.7336 11.7715 35.9428 11.7715C38.6233 11.7715 40.3816 13.2347 41.6358 15.5463L35.869 19.5793ZM46.0623 17.9686C46.0623 16.6037 47.046 15.4602 48.3862 15.4602C49.7265 15.4602 50.7101 16.6037 50.7101 17.9686C50.7101 19.3334 49.7265 20.4769 48.3862 20.4769C47.046 20.4769 46.0623 19.3334 46.0623 17.9686ZM42.3735 17.9686C42.3735 21.3745 45.177 24.1657 48.3862 24.1657C51.5954 24.1657 54.3989 21.3622 54.3989 17.9686C54.3989 14.5626 51.5954 11.7715 48.3862 11.7715C45.177 11.7715 42.3735 14.5626 42.3735 17.9686ZM55.1858 20.5261H58.8131C59.2558 20.5261 59.4771 20.3048 59.4771 19.9974C59.4771 18.8908 55.3088 19.3088 55.3088 15.4479C55.3088 13.247 57.1901 12.1403 58.9853 12.1403H62.6494V15.2512H59.6984C59.2558 15.2512 58.9238 15.4848 58.9238 15.8045C58.9238 16.739 63.3257 16.9726 63.3257 20.1081C63.3257 22.4812 61.8625 23.7722 59.391 23.7722H55.1735V20.5261H55.1858ZM68.2194 18.8662C68.2194 19.8744 68.7236 20.5015 69.5474 20.5015C70.3712 20.5015 70.8754 19.8744 70.8754 18.8662V12.1526H74.601V18.8662C74.601 21.9033 72.8427 24.178 69.5474 24.178C66.2644 24.178 64.4938 21.9156 64.4938 18.8662V12.1526H68.2194V18.8662ZM79.0275 14.0954H79.0767C79.6423 12.4477 80.7243 12.1526 82.3597 12.1526V15.6447C79.753 15.743 79.5194 16.3086 79.5194 18.3252V23.7845H75.7568V12.1526H79.0275V14.0954ZM83.1466 23.7845V11.3042C83.1466 8.89423 85.0156 7.11133 87.9666 7.11133H90.1307V10.5911H88.3109C87.3272 10.5911 87.0813 11.1444 87.0813 12.1157H89.3683V15.5955H87.0813V23.7845H83.1466Z" fill="#FF3399"/>
</svg>
