<svg width="79" height="32" viewBox="0 0 79 32" fill="none" xmlns="http://www.w3.org/2000/svg">
<path d="M66.8818 15.2856C66.5479 15.5241 65.9913 15.6433 65.3235 15.6433L64.9896 15.6432L64.6556 15.6432L65.101 12.543L65.4349 12.5431L65.6575 12.5431C66.214 12.5431 66.6593 12.6623 66.9932 12.7816C67.2158 13.0201 67.4384 13.2586 67.4384 13.974C67.4383 14.6894 67.2157 15.0471 66.8818 15.2856ZM24.8075 19.2189L19.3534 19.2187L19.6874 17.0724L23.138 17.0725L23.472 14.807L20.1327 14.8069L20.4667 12.7799L25.9208 12.7801L24.8075 19.2189ZM69.8872 10.9931C68.9968 10.3969 67.7724 10.1584 66.2141 10.1583L62.0958 10.1582L60.5371 19.2202L55.0831 19.22L55.4171 17.0737L58.645 17.0739L59.0903 14.8084L55.7511 14.8082L56.1964 12.7812L59.5356 12.7813L59.9809 10.1581L53.0799 10.1578L51.6326 18.7429L49.0725 18.7428L50.6311 10.1577L46.958 10.1576L45.5107 18.7427L43.0619 18.7426L44.5092 10.1575L40.9474 10.1574L39.3887 19.2194L33.9347 19.2192L34.2687 17.073L37.4966 17.0731L37.9419 14.8076L34.6027 14.8074L34.9367 12.7804L38.3872 12.7805L38.8325 10.1573L17.3502 10.1565L16.1256 17.3108L13.7884 10.1564L10.004 10.1562L7.99999 21.8415L11.5618 21.8416L12.7865 14.4489L15.1237 21.8418L27.924 21.8423L29.4826 12.7802L31.4862 12.7803L29.9275 21.8423L63.5423 21.8436L64.5443 16.1202L66.1024 21.8437L69.6642 21.8438L67.9948 17.1935L68.44 17.0742C69.2192 16.8358 69.887 16.4781 70.3323 15.8819C70.7775 15.2857 71.0002 14.4511 71.0002 13.4972C71.0003 12.424 70.6664 11.5893 69.8872 10.9931Z" fill="#8CC540"/>
</svg>
