<svg xmlns="http://www.w3.org/2000/svg" width="123" height="58" viewBox="0 0 123 58"><g><g><g><path fill="#ffbc0d" d="M47.41 44.034c3.243-10.854-.944-24.343-8.853-33.34C30.323 1.332 16.387-4.383 6.7 4.258-4.98 14.675-.94 39.467 15.312 51.76c14.059 10.637 28.19 5.353 32.099-7.727z"/></g><g><path fill="#232634" d="M46.1 42.755c3.15-9.995-.726-22.622-8.153-30.986C30.186 3.03 17.375-1.818 8.803 6.312c-10.1 9.581-6.49 31.608 7.976 42.857C29.422 59 42.37 54.585 46.099 42.755z"/></g><g><path fill="#ffbc0d" d="M37.118 34.126c1.844-4.192.27-10.41-3.536-14.386-3.996-4.176-9.46-4.87-12.254-1.03-3.1 4.26-1.538 11.958 3.524 16.505 4.773 4.289 10.241 3.514 12.266-1.09z"/></g><g><path fill="#ee3a4c" d="M20.849 14.294s1.558-.927 5.713-.345c3.811.535 5.704 1.624 5.704 1.624s-1.734-1.647-5.852-2.252c-4.522-.665-5.566.973-5.566.973zm-.876-2.122a.245.245 0 0 0-.002 0zm0 0c.07-.043 1.727-1.017 6.104-.307 4.079.662 6.087 1.912 6.087 1.912s-1.92-1.895-6.255-2.631c-4.705-.798-5.907.981-5.936 1.026zm-.947-1.854l-.002.001zm0 0c.072-.049 1.82-1.186 6.619-.318 4.43.805 6.582 2.267 6.582 2.267s-2.066-2.219-6.782-3.116c-5.163-.98-6.389 1.114-6.419 1.166zm-.98-1.905V8.41a.168.168 0 0 0-.002.002zm0-.002c.074-.055 1.912-1.377 7.147-.326 4.795.965 7.097 2.662 7.097 2.662s-2.217-2.578-7.332-3.659c-5.64-1.192-6.882 1.262-6.912 1.323zm-1.213-2.08s2.022-1.678 7.858-.377c5.287 1.177 7.784 3.203 7.784 3.203s-2.42-3.095-8.071-4.423c-6.387-1.5-7.57 1.598-7.57 1.598zm9.538 33.674l.004.002-.004-.003zm6.456 1.128c4.109-.682 5.08-2.541 5.08-2.541s-1.439 1.225-5.243 1.821c-4.072.643-6.19-.357-6.289-.406.095.09 2.023 1.862 6.452 1.126zm-6.388 1.313l.004.002a.306.306 0 0 1-.004-.003zm6.966 1.22c4.322-.851 5.36-3.038 5.36-3.038s-1.483 1.436-5.551 2.194c-4.39.822-6.665-.319-6.771-.374.103.1 2.286 2.139 6.962 1.218zm-7.103.96s2.38 2.608 7.644 1.418c4.698-1.063 5.719-3.676 5.719-3.676s-1.532 1.71-5.947 2.654c-4.93 1.057-7.416-.396-7.416-.396zm-.15 2.294s2.605 3.133 8.363 1.646c5.092-1.314 6.069-4.407 6.069-4.407s-1.57 2.024-6.346 3.182c-5.384 1.304-8.087-.422-8.087-.422zm-.328 2.56s2.908 3.94 9.36 2.035c5.614-1.656 6.512-5.454 6.512-5.454s-1.602 2.468-6.86 3.916c-5.887 1.623-9.012-.497-9.012-.497z"/></g><g><path fill="#232634" d="M30.99 27.963c.422-.78.13-2.023-.653-2.801s-1.8-.811-2.255-.044c-.463.782-.17 2.075.654 2.87.824.795 1.826.766 2.255-.025z"/></g><g><path fill="#ffbc0d" d="M50.177 31.62c5.67-.816 13.405-5.575 14.43-12.768.71-4.857-1.785-7.742-5.776-8.73-4.096-1.01-8.246.025-12.09 1.499-7.262 2.846-13.218 8.315-12.681 13.455.47 4.506 5.726 5.268 4.964 4.472 0 0-3.357-4.058 1.558-8.575 4.187-3.863 12.88-9.238 18.726-6.27 1.5.778 2.655 2.137 2.084 4.565-1.37 5.736-8.659 8.584-12.685 9.1-.178.012-.355.048-.533.058a60.514 60.514 0 0 1 2.67-7.926 15.263 15.263 0 0 1 2.37-3.935c.934-1.023 1.218-1.803.576-1.893-3.998-.682-7.78 6.162-9.39 12.906a2.692 2.692 0 0 1-.658-.75s-.265-.595-.566-.07c-.163.265-.08 1.661.786 2.91-.909 5.326-.269 10.078 2.906 10.223.103.019.87.05.57-.289-.934-1.117-.794-3.902-.214-7.044 1.286 5.325 7.11 13.084 11.883 13.925 2.476.44 4.423-.744 4.727-3.36.054-.385-.15-.806-.464-.507-.533.41-1.24.52-1.872.288-3.245-1.287-9.243-5.113-11.321-11.283zm43.582-14.377c.974.045 1.988-.447 2.256-1.1.267-.651-.303-1.23-1.302-1.273-.974-.045-1.99.448-2.258 1.1-.267.653.303 1.231 1.301 1.274zm19.106 1.07c.54.045.988.732.59 1.8-.152.534-.498.99-.971 1.28-1.409.822-.103 1.28.867.84-.256 2.13-.655 4.446-2.805 5.21-1.076.368-2.097-.056-1.823-1.88a16.27 16.27 0 0 1 1.882-5.282c.885-1.428 1.744-2.013 2.258-1.967zm-1.22 15.101a.717.717 0 0 1-.844-.815c-.059-1.422 1.042-2.658 1.9-3.677-.293 2.36-.68 4.446-1.06 4.494zM71.558 21.96c.202.63.276 1.292.216 1.95-1.582.016-2.596-2.013-2.006-2.812.614-.851 1.545.215 1.788.863zm-4.532 2.355a3.777 3.777 0 0 0 4.084 2.179h.026a6.508 6.508 0 0 1-3.417 3.512c-1.508.395-1.93-.676-1.8-1.932.183-1.3.555-2.566 1.104-3.758zm49.183 1.343c1.167-1.419 4.077-3.194 5.657-4.093l-.74-.847a34.385 34.385 0 0 0-4.269 2.059c.304-1.377.71-2.729 1.215-4.045.528-1.432 1.073-1.286.693-1.646-1.376-1.244-3.458-.205-3.741.194a3.21 3.21 0 0 0-1.184-.593c-3.593-.732-6.832 2.334-8.098 5.952-.333.867-.562 1.77-.683 2.69-.058.48-.06.965-.004 1.446-.391.513-.944.88-1.57 1.04-1.568.245-1.08-3.99 1.93-8.775 1.26-2.01.121-2.249-1.24-1.965-2.877.576-4.046 2.377-5.803 4.62.385-.836.796-1.653 1.16-2.412.265-.448.41-.956.422-1.477-.108-.961-5.155.048-4.267.81.27.24.21.523.013 1.07-.566 1.451-2.877 5.583-2.72 8.492a1.798 1.798 0 0 1-.724.292c-1.569.244-1.08-3.99 1.929-8.775.748-1.165 1.244-1.831.576-1.893-2.984-.384-4.454 1.51-5.808 4.518a16.346 16.346 0 0 0-1.216 4.02v.003c-.694 1.12-1.697 2.42-2.673 2.548-1.468.214-.935-2.416-.025-5.144 1.843-2.312 4.232-5.722 5.19-7.823.225-.494 1.386-2.57-.331-3.212-5.676-.966-8.827 10.452-9.352 14.05a7.394 7.394 0 0 0-.059.7c-.638.895-1.424 1.723-2.193 1.824-1.468.214-.935-2.416-.025-5.144 1.968-2.47 4.558-6.19 5.365-8.232-.077.195 1.186-2.385-.506-2.804-4.07-.693-6.843 4.987-8.279 9.581-.283.16-.568.315-.845.456a4.6 4.6 0 0 0-1.247-2.933 3.786 3.786 0 0 0-3.256-1.082c-2.441.169-6.486 3.386-7.245 8.704-.448 3.185 1.962 5.515 4.49 5.086v.025c3.173-.313 6.247-4.009 7.056-7.572.124-.073.248-.15.37-.227a24.562 24.562 0 0 0-.398 2.012c-.374 2.722.753 6.222 4.07 4.907a6.877 6.877 0 0 0 2.842-2.58c.46 1.77 1.697 3.068 3.929 2.182 1.261-.496 2.333-1.766 3.133-3.019.386 2.194 1.913 3.44 4.059 2.597a5.186 5.186 0 0 0 1.763-1.25 3.3 3.3 0 0 0 2.327 1.189c.104.018.846.052.621-.292-1.395-2.058 1.025-7.677 3.331-8.398a13.338 13.338 0 0 0-.883 3.184c-.506 3.52 1.251 6.016 4.071 4.907a6.298 6.298 0 0 0 2.51-2.123c.816 1.608 2.452 2.354 4.076 1.507-2.408 2.867-.79 6.466 1.93 6.28 3.41-.224 3.987-5.532 4.656-10.59z"/><path fill="none" stroke="#232634" stroke-linejoin="round" stroke-miterlimit="20" d="M50.177 31.62c5.67-.816 13.405-5.575 14.43-12.768.71-4.857-1.785-7.742-5.776-8.73-4.096-1.01-8.246.025-12.09 1.499-7.262 2.846-13.218 8.315-12.681 13.455.47 4.506 5.726 5.268 4.964 4.472 0 0-3.357-4.058 1.558-8.575 4.187-3.863 12.88-9.238 18.726-6.27 1.5.778 2.655 2.137 2.084 4.565-1.37 5.736-8.659 8.584-12.685 9.1-.178.012-.355.048-.533.058a60.514 60.514 0 0 1 2.67-7.926 15.263 15.263 0 0 1 2.37-3.935c.934-1.023 1.218-1.803.576-1.893-3.998-.682-7.78 6.162-9.39 12.906a2.692 2.692 0 0 1-.658-.75s-.265-.595-.566-.07c-.163.265-.08 1.661.786 2.91-.909 5.326-.269 10.078 2.906 10.223.103.019.87.05.57-.289-.934-1.117-.794-3.902-.214-7.044 1.286 5.325 7.11 13.084 11.883 13.925 2.476.44 4.423-.744 4.727-3.36.054-.385-.15-.806-.464-.507-.533.41-1.24.52-1.872.288-3.245-1.287-9.243-5.113-11.321-11.283zm43.582-14.377c.974.045 1.988-.447 2.256-1.1.267-.651-.303-1.23-1.302-1.273-.974-.045-1.99.448-2.258 1.1-.267.653.303 1.231 1.301 1.274zm19.106 1.07c.54.045.988.732.59 1.8-.152.534-.498.99-.971 1.28-1.409.822-.103 1.28.867.84-.256 2.13-.655 4.446-2.805 5.21-1.076.368-2.097-.056-1.823-1.88a16.27 16.27 0 0 1 1.882-5.282c.885-1.428 1.744-2.013 2.258-1.967zm-1.22 15.101a.717.717 0 0 1-.844-.815c-.059-1.422 1.042-2.658 1.9-3.677-.293 2.36-.68 4.446-1.06 4.494zM71.558 21.96c.202.63.276 1.292.216 1.95-1.582.016-2.596-2.013-2.006-2.812.614-.851 1.545.215 1.788.863zm-4.532 2.355a3.777 3.777 0 0 0 4.084 2.179h.026a6.508 6.508 0 0 1-3.417 3.512c-1.508.395-1.93-.676-1.8-1.932.183-1.3.555-2.566 1.104-3.758zm49.183 1.343c1.167-1.419 4.077-3.194 5.657-4.093l-.74-.847a34.385 34.385 0 0 0-4.269 2.059c.304-1.377.71-2.729 1.215-4.045.528-1.432 1.073-1.286.693-1.646-1.376-1.244-3.458-.205-3.741.194a3.21 3.21 0 0 0-1.184-.593c-3.593-.732-6.832 2.334-8.098 5.952-.333.867-.562 1.77-.683 2.69-.058.48-.06.965-.004 1.446-.391.513-.944.88-1.57 1.04-1.568.245-1.08-3.99 1.93-8.775 1.26-2.01.121-2.249-1.24-1.965-2.877.576-4.046 2.377-5.803 4.62.385-.836.796-1.653 1.16-2.412.265-.448.41-.956.422-1.477-.108-.961-5.155.048-4.267.81.27.24.21.523.013 1.07-.566 1.451-2.877 5.583-2.72 8.492a1.798 1.798 0 0 1-.724.292c-1.569.244-1.08-3.99 1.929-8.775.748-1.165 1.244-1.831.576-1.893-2.984-.384-4.454 1.51-5.808 4.518a16.346 16.346 0 0 0-1.216 4.02v.003c-.694 1.12-1.697 2.42-2.673 2.548-1.468.214-.935-2.416-.025-5.144 1.843-2.312 4.232-5.722 5.19-7.823.225-.494 1.386-2.57-.331-3.212-5.676-.966-8.827 10.452-9.352 14.05a7.394 7.394 0 0 0-.059.7c-.638.895-1.424 1.723-2.193 1.824-1.468.214-.935-2.416-.025-5.144 1.968-2.47 4.558-6.19 5.365-8.232-.077.195 1.186-2.385-.506-2.804-4.07-.693-6.843 4.987-8.279 9.581-.283.16-.568.315-.845.456a4.6 4.6 0 0 0-1.247-2.933 3.786 3.786 0 0 0-3.256-1.082c-2.441.169-6.486 3.386-7.245 8.704-.448 3.185 1.962 5.515 4.49 5.086v.025c3.173-.313 6.247-4.009 7.056-7.572.124-.073.248-.15.37-.227a24.562 24.562 0 0 0-.398 2.012c-.374 2.722.753 6.222 4.07 4.907a6.877 6.877 0 0 0 2.842-2.58c.46 1.77 1.697 3.068 3.929 2.182 1.261-.496 2.333-1.766 3.133-3.019.386 2.194 1.913 3.44 4.059 2.597a5.186 5.186 0 0 0 1.763-1.25 3.3 3.3 0 0 0 2.327 1.189c.104.018.846.052.621-.292-1.395-2.058 1.025-7.677 3.331-8.398a13.338 13.338 0 0 0-.883 3.184c-.506 3.52 1.251 6.016 4.071 4.907a6.298 6.298 0 0 0 2.51-2.123c.816 1.608 2.452 2.354 4.076 1.507-2.408 2.867-.79 6.466 1.93 6.28 3.41-.224 3.987-5.532 4.656-10.59z"/></g><g><path fill="#ffbc0d" d="M102.093 41.345c3.573 3.841-.926 6.321-1.824 3.24a2.057 2.057 0 0 1-.078-.437c.432-.71.683-1.203.683-1.203l-.194-.485a3.07 3.07 0 0 1 1.413-1.115zm-4.347-4.636c1.012-.332 1.964-.661 2.664-.9-.478 1.132-.172 2.582.594 3.969-3.196 1.29-4.513 3.814-3.913 5.863-.322.284-.71.48-1.129.572-.657.115-.954-.581-.87-1.757.11-1.128 1.328-4.713 2.654-7.748zm-9.703 2.25c.203.629.278 1.292.219 1.95-1.582.016-2.597-2.014-2.006-2.813.613-.851 1.545.215 1.787.863zm-4.532 2.355a3.777 3.777 0 0 0 4.087 2.178h.026a6.507 6.507 0 0 1-3.417 3.512c-1.508.395-1.93-.676-1.8-1.932.183-1.3.555-2.566 1.104-3.758zm-17.063 2.123c3.573 3.84-.926 6.32-1.824 3.24a2.796 2.796 0 0 1 1.824-3.24zm44.87-4.544c.481-.486-.354-1.227-1.146-1.184a38.753 38.753 0 0 0-5.687.97c-.25-.341-.971-1.318-1.057-1.466-.996-1.724 2.051-2.005 1.238-.658-.62 1.132.89.763 1.4-.107 1.203-2.084-.934-2.824-2.63-2.572a5.583 5.583 0 0 0-1.542.467 13.295 13.295 0 0 0-3.175.27c.236-.51.506-1.001.806-1.475.724-1.138 1.219-1.803.577-1.893-2.11-.259-3.464.585-4.543 2.177a18.155 18.155 0 0 0-1.068 1.85c-1.667.3-2.956.529-2.956.529-1.459.366-.337 2.491.683 2.457.36-.018.717-.081 1.061-.19-.075.189-.148.38-.22.574a32.132 32.132 0 0 1-2.573 1.5 4.6 4.6 0 0 0-1.247-2.933 3.788 3.788 0 0 0-3.257-1.082c-2.44.168-6.485 3.387-7.244 8.704a5.358 5.358 0 0 0-.04 1.136 3.33 3.33 0 0 1-1.847 1.369c-1.469.213-.936-2.417-.026-5.145 2.095-2.628 4.896-6.671 5.499-8.605.076-.265.108-.541.095-.817.047-1.487-.948-1.643-.928-1.641-3.717-.454-6.325 4.412-7.802 8.746-1.63.219-3.249.52-4.849.901-.25-.342-.972-1.319-1.057-1.466-.996-1.725 2.051-2.006 1.237-.66-.62 1.133.89.764 1.4-.106 1.204-2.084-.933-2.824-2.629-2.572-3.716.6-3.833 3.358-2.432 5.9-5.46 2.205-5.445 8.013.274 8.9a4.927 4.927 0 0 0 5.817-3.933c.283-2.106-.433-2.981-1.547-4.546a29.578 29.578 0 0 1 3.3-.876 30.03 30.03 0 0 0-.866 3.789c-.374 2.722.753 6.222 4.07 4.907a6.71 6.71 0 0 0 2.75-2.447c.7 1.58 2.366 2.5 4.076 2.25v.026c3.172-.314 6.247-4.01 7.056-7.572.681-.408 1.34-.852 1.974-1.33-.766 2.632-1.124 5.233-.375 6.662a2.738 2.738 0 0 0 3.627 1.29 6.903 6.903 0 0 0 2.467-1.843 5.71 5.71 0 0 0 3.296 1.53 4.927 4.927 0 0 0 5.817-3.932c.283-2.106-.433-2.981-1.547-4.546a34.33 34.33 0 0 1 5.77-1.307zm-29.827-7.765z"/><path fill="none" stroke="#232634" stroke-linejoin="round" stroke-miterlimit="20" d="M102.093 41.345c3.573 3.841-.926 6.321-1.824 3.24a2.057 2.057 0 0 1-.078-.437c.432-.71.683-1.203.683-1.203l-.194-.485a3.07 3.07 0 0 1 1.413-1.115zm-4.347-4.636c1.012-.332 1.964-.661 2.664-.9-.478 1.132-.172 2.582.594 3.969-3.196 1.29-4.513 3.814-3.913 5.863-.322.284-.71.48-1.129.572-.657.115-.954-.581-.87-1.757.11-1.128 1.328-4.713 2.654-7.748zm-9.703 2.25c.203.629.278 1.292.219 1.95-1.582.016-2.597-2.014-2.006-2.813.613-.851 1.545.215 1.787.863zm-4.532 2.355a3.777 3.777 0 0 0 4.087 2.178h.026a6.507 6.507 0 0 1-3.417 3.512c-1.508.395-1.93-.676-1.8-1.932.183-1.3.555-2.566 1.104-3.758zm-17.063 2.123c3.573 3.84-.926 6.32-1.824 3.24a2.796 2.796 0 0 1 1.824-3.24zm44.87-4.544c.481-.486-.354-1.227-1.146-1.184a38.753 38.753 0 0 0-5.687.97c-.25-.341-.971-1.318-1.057-1.466-.996-1.724 2.051-2.005 1.238-.658-.62 1.132.89.763 1.4-.107 1.203-2.084-.934-2.824-2.63-2.572a5.583 5.583 0 0 0-1.542.467 13.295 13.295 0 0 0-3.175.27c.236-.51.506-1.001.806-1.475.724-1.138 1.219-1.803.577-1.893-2.11-.259-3.464.585-4.543 2.177a18.155 18.155 0 0 0-1.068 1.85c-1.667.3-2.956.529-2.956.529-1.459.366-.337 2.491.683 2.457.36-.018.717-.081 1.061-.19-.075.189-.148.38-.22.574a32.132 32.132 0 0 1-2.573 1.5 4.6 4.6 0 0 0-1.247-2.933 3.788 3.788 0 0 0-3.257-1.082c-2.44.168-6.485 3.387-7.244 8.704a5.358 5.358 0 0 0-.04 1.136 3.33 3.33 0 0 1-1.847 1.369c-1.469.213-.936-2.417-.026-5.145 2.095-2.628 4.896-6.671 5.499-8.605.076-.265.108-.541.095-.817.047-1.487-.948-1.643-.928-1.641-3.717-.454-6.325 4.412-7.802 8.746-1.63.219-3.249.52-4.849.901-.25-.342-.972-1.319-1.057-1.466-.996-1.725 2.051-2.006 1.237-.66-.62 1.133.89.764 1.4-.106 1.204-2.084-.933-2.824-2.629-2.572-3.716.6-3.833 3.358-2.432 5.9-5.46 2.205-5.445 8.013.274 8.9a4.927 4.927 0 0 0 5.817-3.933c.283-2.106-.433-2.981-1.547-4.546a29.578 29.578 0 0 1 3.3-.876 30.03 30.03 0 0 0-.866 3.789c-.374 2.722.753 6.222 4.07 4.907a6.71 6.71 0 0 0 2.75-2.447c.7 1.58 2.366 2.5 4.076 2.25v.026c3.172-.314 6.247-4.01 7.056-7.572.681-.408 1.34-.852 1.974-1.33-.766 2.632-1.124 5.233-.375 6.662a2.738 2.738 0 0 0 3.627 1.29 6.903 6.903 0 0 0 2.467-1.843 5.71 5.71 0 0 0 3.296 1.53 4.927 4.927 0 0 0 5.817-3.932c.283-2.106-.433-2.981-1.547-4.546a34.33 34.33 0 0 1 5.77-1.307zm-29.827-7.765s0 0 0 0 0 0 0 0z"/></g></g></g></svg>