<svg width="60" height="32" viewBox="0 0 60 32" fill="none" xmlns="http://www.w3.org/2000/svg">
<path fill-rule="evenodd" clip-rule="evenodd" d="M8 13.6668C8 18.2581 13.2594 18.0285 14.0743 18.3346C15.1113 18.7172 15.0373 20.6302 12.6668 20.6302C11.4075 20.6302 10.3704 20.4772 9.18522 20.0946C8.88892 20.0181 8.59261 19.865 8.29631 19.7885V23.232C9.18522 23.6911 12.2224 23.7676 13.4817 23.7676C16.741 23.7676 19.7041 21.472 18.8892 18.0285C18.0744 14.279 13.3335 14.6616 12.6668 14.279C11.852 13.8964 11.852 12.8251 12.7409 12.4425C13.9261 11.9069 16.2966 12.4425 17.4818 12.8251C17.8522 12.9782 18.2225 13.1312 18.5189 13.2077V9.91732C18.0003 9.76428 17.704 9.61124 16.6669 9.38168C15.1854 9.07559 14.5928 9.07559 13.1113 9.07559C10.4445 9.07559 8 10.9121 8 13.6668Z" fill="#852164"/>
<path fill-rule="evenodd" clip-rule="evenodd" d="M19.9254 9.83978V23.6135H23.7774V19.4814C23.8515 19.6345 23.7774 19.5579 23.8515 19.711L24.2218 20.3997C24.37 20.7057 24.5182 21.0118 24.6663 21.3944C24.8145 21.777 25.2589 23.1544 25.2589 23.6135H29.9257C29.8517 23.4605 29.7776 23.1544 29.7035 22.9249L28.8146 20.8588C26.9627 16.9562 27.3331 19.0223 28.9627 15.7319C29.259 15.2728 30.0739 13.5128 30.148 12.9006H25.7775C25.6293 13.6658 24.2218 16.191 23.7774 16.5736V9.07457C23.0366 9.07457 20.518 9.83978 19.9254 9.83978Z" fill="#852065"/>
<path fill-rule="evenodd" clip-rule="evenodd" d="M42.9627 9.76326V23.6135H46.6665V9.07457C46.0739 9.07457 43.7775 9.68674 42.9627 9.76326Z" fill="#862064"/>
<path fill-rule="evenodd" clip-rule="evenodd" d="M48.2961 9.76326V23.6135H51.9999V9.07457C51.5554 9.07457 48.7405 9.76326 48.2961 9.76326Z" fill="#852164"/>
<path fill-rule="evenodd" clip-rule="evenodd" d="M30.5932 17.492V23.6136H34.297V19.0224C34.297 16.8798 34.5933 16.0381 36.6674 16.0381V12.8242C36.0008 12.8242 36.5934 12.7477 35.4822 12.8242C34.3711 12.9772 33.5562 12.9772 32.371 13.7424C31.3339 14.4311 30.5932 15.732 30.5932 17.492Z" fill="#862164"/>
<path fill-rule="evenodd" clip-rule="evenodd" d="M37.7787 23.6138H41.4825V12.9774H37.7787V23.6138Z" fill="#852164"/>
<path fill-rule="evenodd" clip-rule="evenodd" d="M37.8519 9.9929C37.8519 10.6051 37.9259 10.9877 38.3704 11.4468C40.0001 13.1303 42.5928 10.6051 40.889 8.76857C39.7779 7.54423 37.8519 8.61552 37.8519 9.9929Z" fill="#862165"/>
</svg>
