<svg width="107" height="32" viewBox="0 0 107 32" fill="none" xmlns="http://www.w3.org/2000/svg">
<path d="M35.9058 8.74561H28.0039C26.758 8.74561 25.547 8.74561 24.4634 9.29564C23.3789 9.8465 22.4217 10.9482 21.6841 13.15C21.5255 13.6232 21.4408 14.032 21.429 14.3851C21.418 14.7413 21.4801 15.0435 21.6143 15.3056C21.7806 15.625 22.0489 15.9271 22.3856 16.1805C22.7214 16.4348 23.1247 16.6411 23.558 16.7738C23.5744 16.7776 23.8027 16.8436 24.0789 16.922C24.3544 17.0012 24.6768 17.0962 24.8801 17.1575C24.9994 17.1943 25.1303 17.2414 25.2497 17.3128C25.369 17.3843 25.4757 17.4784 25.5432 17.6094C25.5871 17.6973 25.6107 17.7923 25.613 17.8943C25.6162 17.9971 25.5989 18.1078 25.5581 18.2246C25.4576 18.5235 25.3038 18.7166 25.0119 18.8344C24.7208 18.952 24.2909 18.9898 23.6395 18.9943H15.5085L14.2224 22.5263H22.9262C23.7454 22.5263 25.2427 22.5263 26.6826 21.9151C28.1217 21.3038 29.5012 20.0811 30.0858 17.6368C30.3055 16.718 30.238 15.9687 29.8779 15.3809C29.5161 14.7931 28.8633 14.3671 27.9121 14.094C27.9121 14.094 27.6996 14.032 27.4484 13.9607C27.1996 13.8885 26.9117 13.8061 26.7642 13.7637C26.521 13.6945 26.3334 13.5533 26.2227 13.3745C26.1128 13.1956 26.08 12.9774 26.1426 12.7553C26.2078 12.5246 26.3655 12.3402 26.5938 12.2131C26.823 12.0868 27.1236 12.017 27.4743 12.017H32.5332C32.5693 11.9659 32.6023 11.9103 32.6376 11.8577C33.5611 10.5511 34.6801 9.4926 35.9058 8.74561Z" fill="#F48120"/>
<path d="M35.9102 8.73047H28.0084C26.7623 8.73047 25.5522 8.73047 24.4678 9.2805C23.3834 9.83137 22.4268 10.9324 21.6891 13.135C21.53 13.6082 21.4451 14.0162 21.4342 14.3701C21.4231 14.7255 21.4851 15.0276 21.6194 15.2898C21.7849 15.6098 22.0532 15.912 22.3899 16.1654C22.7265 16.4189 23.1291 16.626 23.5631 16.7579C23.5795 16.7626 23.8078 16.8278 24.0841 16.907C24.3587 16.9862 24.6812 17.0804 24.8852 17.1416C25.0037 17.1792 25.1356 17.2264 25.2549 17.2969C25.3733 17.3684 25.48 17.4633 25.5475 17.5944C25.5915 17.6815 25.615 17.7764 25.6173 17.8793C25.6205 17.982 25.6032 18.0926 25.5624 18.2087C25.462 18.5085 25.309 18.7008 25.0162 18.8192C24.7251 18.937 24.2959 18.9746 23.6447 18.9793H15.5128L14.2275 22.5113H22.9313C23.7505 22.5113 25.2477 22.5113 26.6869 21.9C28.126 21.2886 29.5055 20.0661 30.0901 17.621C30.3106 16.703 30.2423 15.9535 29.8822 15.3658C29.5204 14.7774 28.8676 14.3512 27.9173 14.079C27.9173 14.079 27.7039 14.017 27.4535 13.9448C27.2048 13.8733 26.916 13.7909 26.7685 13.7486C26.5253 13.6795 26.3385 13.5383 26.227 13.3586C26.1179 13.1797 26.0843 12.9624 26.1471 12.7403C26.2129 12.5096 26.3698 12.3252 26.5983 12.1981C26.8274 12.0717 27.1279 12.0018 27.4786 12.0018H32.5384C32.5744 11.9501 32.6066 11.8943 32.6427 11.8425C33.5663 10.5353 34.6852 9.47747 35.9102 8.73047Z" fill="#F48120"/>
<path d="M78.926 8.75391C79.1967 8.96729 79.4281 9.21133 79.6221 9.48917C80.1179 10.204 80.3079 11.0531 80.1942 12.0253H82.7319L78.9072 22.5378H82.7288L86.5554 12.0253H91.4655L92.6574 8.75391H78.926Z" fill="#F48120"/>
<path d="M75.0264 13.1498C74.6168 14.2523 73.8823 14.9333 72.4847 14.9333H72.4784L71.7557 14.9318L72.9924 11.5992H73.6956C74.9818 11.5992 75.462 11.9759 75.0264 13.1498ZM78.7358 10.1052C78.1064 9.20042 76.8273 8.75625 74.8232 8.75391H70.1833L65.1658 22.5347H69.4276L71.253 17.6845C71.3405 17.8838 72.4172 22.5347 72.4172 22.5347H76.8987C76.8987 22.5347 76.0835 19.1173 75.4839 17.7371C75.3302 17.3816 75.1691 16.9837 74.9543 16.6519C76.2199 16.1818 78.0545 15.1712 78.8135 13.1255C79.281 11.8676 79.2534 10.8514 78.7358 10.1052Z" fill="#F48120"/>
<path d="M39.6175 15.5724C38.4365 18.8052 37.5788 19.619 36.2888 19.619H36.2865C35.0302 19.6174 34.5892 18.8225 35.7646 15.6052C36.6434 13.2034 37.7805 11.6677 39.1576 11.6677H39.1584C40.4665 11.6693 40.7662 12.4273 39.6175 15.5724ZM43.6696 10.0363C42.9814 9.05159 41.802 8.55097 40.1628 8.54932C39.0909 8.54932 38.0488 8.79569 37.0735 9.25629C35.6767 9.91633 34.4118 11.0196 33.3784 12.4814C32.7066 13.4317 32.1323 14.5318 31.6819 15.763C30.8344 18.0849 30.8438 19.9706 31.7117 21.2118C32.2028 21.9151 33.2245 22.7539 35.3032 22.7554H35.311C39.0972 22.7554 41.9237 20.2734 43.7135 15.3801C44.186 14.0846 44.8097 11.6684 43.6696 10.0363Z" fill="#F48120"/>
<path d="M58.7989 8.74561H50.7457C48.4942 8.74561 46.8182 9.88487 46.0272 12.017L42.2019 22.5263H46.3913L48.3569 17.1237L52.0606 17.1268L53.1138 14.2328L49.4225 14.2305L50.0164 12.5553C50.1414 12.2555 50.4365 12.017 50.8705 12.017C51.1122 12.017 53.8294 12.017 55.2371 12.0177C55.2731 11.9659 55.3053 11.9103 55.3413 11.8577C56.265 10.5511 57.5731 9.4926 58.7989 8.74561Z" fill="#F48120"/>
<path d="M62.4617 15.5724C61.2808 18.8052 60.4232 19.619 59.1339 19.619H59.1307C57.8735 19.6174 57.4349 18.8225 58.6105 15.6052C59.4879 13.2034 60.6264 11.6677 62.0013 11.6677H62.0033C63.3115 11.6693 63.6115 12.4273 62.4617 15.5724ZM66.5146 10.0363C65.826 9.05159 64.6478 8.55097 63.0062 8.54932C61.9351 8.54932 60.8939 8.79569 59.9179 9.25629C58.5219 9.91633 57.2569 11.0196 56.2234 12.4814C55.5516 13.4317 54.9774 14.5318 54.5277 15.763C53.6779 18.0849 53.6888 19.9706 54.5566 21.2118C55.0481 21.9151 56.0696 22.7539 58.1491 22.7554H58.1561C61.9415 22.7554 64.7687 20.2734 66.5569 15.3801C67.0312 14.0846 67.6541 11.6684 66.5146 10.0363Z" fill="#F48120"/>
<path d="M78.9309 8.73828C79.2009 8.95167 79.4333 9.19487 79.6269 9.47355C80.123 10.1876 80.3121 11.0374 80.1991 12.0096H82.7368L78.9121 22.5221H82.7336L86.5596 12.0096H91.4704L92.6616 8.73828H78.9309Z" fill="#F48120"/>
<path d="M75.0307 13.1341C74.6219 14.2357 73.8865 14.9169 72.489 14.9169H72.4833L71.7608 14.9154L72.9968 11.5836H73.7007C74.9866 11.5836 75.467 11.9594 75.0307 13.1341ZM78.7398 10.0894C78.1112 9.18466 76.8324 8.74063 74.8282 8.73828H70.1884L65.1702 22.519H69.4325L71.257 17.6689C71.3456 17.8682 72.4215 22.519 72.4215 22.519H76.9037C76.9037 22.519 76.0875 19.1017 75.489 17.7206C75.3349 17.3659 75.1741 16.9681 74.9592 16.6355C76.2249 16.1653 78.0589 15.1554 78.8182 13.1097C79.2852 11.8519 79.2578 10.8357 78.7398 10.0894Z" fill="#F48120"/>
<path d="M39.6218 15.5569C38.4409 18.7899 37.5832 19.6029 36.293 19.6029H36.2907C35.0345 19.6021 34.5935 18.8064 35.7698 15.5891C36.6478 13.1872 37.7848 11.6516 39.1619 11.6516H39.1627C40.4716 11.6531 40.7713 12.4119 39.6218 15.5569ZM43.6747 10.021C42.9858 9.03617 41.8072 8.53555 40.1672 8.5332C39.0944 8.5332 38.0532 8.78041 37.0779 9.24017C35.681 9.90091 34.4162 11.0035 33.3828 12.4661C32.7118 13.4156 32.1367 14.5165 31.687 15.7469C30.8387 18.0696 30.8482 19.9551 31.716 21.1966C32.208 21.8997 33.2297 22.7378 35.3075 22.7401H35.3154C39.1015 22.7401 41.928 20.2581 43.7179 15.364C44.1902 14.0685 44.8149 11.6523 43.6747 10.021Z" fill="#F48120"/>
<path d="M58.8038 8.73047H50.7507C48.4984 8.73047 46.8223 9.86988 46.0313 12.0018L42.2061 22.5113H46.3963L48.3619 17.1087L52.0647 17.111L53.1177 14.2178L49.4268 14.2155L50.0214 12.5401C50.1453 12.2396 50.4411 12.0011 50.8744 12.0011C51.1161 12.0011 53.8343 12.0018 55.2421 12.0018C55.2774 11.9509 55.3096 11.8943 55.3456 11.8425C56.27 10.5353 57.578 9.47747 58.8038 8.73047Z" fill="#F48120"/>
<path d="M62.4663 15.5569C61.2854 18.7899 60.4286 19.6029 59.1391 19.6029H59.136C57.878 19.6021 57.4395 18.8064 58.6141 15.5891C59.4922 13.1872 60.63 11.6516 62.0055 11.6516H62.008C63.3161 11.6531 63.6157 12.4119 62.4663 15.5569ZM66.5191 10.021C65.8301 9.03617 64.6525 8.53555 63.0115 8.5332C61.9398 8.5332 60.8984 8.78041 59.9228 9.24017C58.526 9.90091 57.2614 11.0035 56.2279 12.4661C55.5562 13.4156 54.9827 14.5165 54.5322 15.7469C53.6831 18.0696 53.6933 19.9551 54.5619 21.1966C55.0523 21.8997 56.0743 22.7378 58.1543 22.7401H58.1607C61.9469 22.7401 64.7739 20.2581 66.5615 15.364C67.0362 14.0685 67.6594 11.6523 66.5191 10.021Z" fill="#F48120"/>
</svg>
