<svg width="107" height="32" viewBox="0 0 107 32" fill="none" xmlns="http://www.w3.org/2000/svg">
<path fill-rule="evenodd" clip-rule="evenodd" d="M68.4028 8.12015L65.1431 23.3528H61.2007L64.4617 8.12015H68.4028ZM84.9837 17.9532L87.0593 12.2358L88.2513 17.9545H84.9824L84.9837 17.9532ZM89.3817 23.3528H93.0247L89.8477 8.12015H86.4803C85.7255 8.12015 85.0861 8.55994 84.8025 9.23604L78.8909 23.3528H83.0263L83.8494 21.0777H88.9064L89.3817 23.3528ZM79.0931 18.3812C79.1128 14.356 73.5346 14.1368 73.5727 12.3422C73.5858 11.7947 74.1057 11.2132 75.2439 11.0635C75.8084 10.99 77.3641 10.9335 79.1298 11.7435L79.8217 8.51268C78.6425 8.0715 77.3943 7.84303 76.1353 7.83789C72.2415 7.83789 69.4977 9.91083 69.4754 12.8791C69.4517 15.0702 71.4328 16.2925 72.9281 17.0237C74.4628 17.7694 74.9761 18.2472 74.9721 18.9181C74.959 19.9368 73.7447 20.3898 72.613 20.4042C70.6306 20.4383 69.4793 19.8712 68.5656 19.4472L67.8501 22.7844C68.7691 23.2071 70.4692 23.5707 72.2336 23.5917C76.3716 23.5917 79.0813 21.5437 79.0931 18.3812ZM62.7708 8.12015L56.3852 23.3528H52.2183L49.0768 11.1961C48.8838 10.4452 48.717 10.1747 48.1381 9.85701C47.1929 9.34107 45.628 8.85926 44.2495 8.55994L44.3453 8.12015H51.0499C51.9059 8.12015 52.6739 8.68597 52.8669 9.67321L54.5276 18.4888L58.6288 8.12015H62.7708Z" fill="white"/>
<path fill-rule="evenodd" clip-rule="evenodd" d="M22.8099 21.9088H29.7009V9.521H22.8086V21.9061L22.8099 21.9088Z" fill="#FF5F00"/>
<path fill-rule="evenodd" clip-rule="evenodd" d="M23.2456 15.7163C23.2444 14.5236 23.5146 13.3462 24.0356 12.2733C24.5567 11.2004 25.3151 10.2602 26.2533 9.52371C25.0913 8.61026 23.6957 8.04217 22.2261 7.88438C20.7566 7.72658 19.2722 7.98545 17.9428 8.6314C16.6134 9.27734 15.4925 10.2843 14.7083 11.5372C13.9242 12.79 13.5083 14.2382 13.5083 15.7163C13.5083 17.1943 13.9242 18.6425 14.7083 19.8954C15.4925 21.1483 16.6134 22.1552 17.9428 22.8012C19.2722 23.4471 20.7566 23.706 22.2261 23.5482C23.6957 23.3904 25.0913 22.8223 26.2533 21.9089C25.3152 21.1723 24.5569 20.232 24.0358 19.1592C23.5147 18.0863 23.2445 16.909 23.2456 15.7163Z" fill="#EB001B"/>
<path fill-rule="evenodd" clip-rule="evenodd" d="M38.9966 15.716C38.996 17.1935 38.5798 18.6409 37.7957 19.8931C37.0115 21.1453 35.891 22.1517 34.5621 22.7974C33.2333 23.4431 31.7496 23.702 30.2805 23.5446C28.8115 23.3872 27.4163 22.8198 26.2544 21.9073C27.1918 21.1702 27.9496 20.2299 28.4706 19.1573C28.9917 18.0847 29.2624 16.9078 29.2624 15.7154C29.2624 14.5229 28.9917 13.346 28.4706 12.2734C27.9496 11.2008 27.1918 10.2605 26.2544 9.52343C27.4162 8.61033 28.8114 8.04249 30.2806 7.88481C31.7499 7.72714 33.2338 7.98598 34.5629 8.63176C35.892 9.27754 37.0126 10.2842 37.7966 11.5367C38.5806 12.7892 38.9965 14.237 38.9966 15.7147V15.716Z" fill="#F79E1B"/>
</svg>
